/* XPM */
static char *result[] = {
/* columns rows colors chars-per-pixel */
"64 64 24 1 ",
"  c black",
". c #000100",
"X c #000900",
"o c #000A00",
"O c #000B00",
"+ c #000C00",
"@ c #001300",
"# c #001500",
"$ c #001600",
"% c #001800",
"& c #001D00",
"* c #001F00",
"= c #002100",
"- c #002700",
"; c #019C00",
": c #01A800",
"> c #01A900",
", c #01AB00",
"< c #01AC00",
"1 c #01AE00",
"2 c #01B400",
"3 c #01B500",
"4 c #01B600",
"5 c #02C000",
/* pixels */
"                                                                ",
"                                                                ",
"              +                                 O               ",
"              5O                               o2+              ",
"              53$                             #,5+              ",
"              553$                           #,55+              ",
"              5554*                         &<555+              ",
"              5555:                         ;5555+              ",
"              5555:                         ;5555+              ",
"              5555:                         ;5555+              ",
"              5555:                         ;5555+              ",
"              5555:                         ;5555+              ",
"              5555:                         ;5555+              ",
"              5555:                         ;5555+              ",
"              5555:                         ;5555+              ",
"              5555:                         ;5555+              ",
"              5555:                         ;5555+              ",
"              5555:                         ;5555+              ",
"              5555:                         ;5555+              ",
"              5555:                         ;5555+              ",
"              5555:                         ;5555+              ",
"              5555:                         ;5555+              ",
"              5555:                         ;5555+              ",
"              5555:                         ;5555+              ",
"              5555:                         ;5555+              ",
"              5555:                         ;5555+              ",
"              5555:                         ;5555+              ",
"              5555:                         ;5555+              ",
"              5553#                         @,555+              ",
"              553$#:::::::::::::::::::::::::*#,55+              ",
"              52OO355555555555555555555555554$o>5+              ",
"              +OO25555555555555555555555555553$o+               ",
"                +55555555555555555555555555555%                 ",
"                 +555555555555555555555555555% :5+              ",
"                  $2222222222222222222222222=o>55+              ",
"                                            X>555+              ",
"                                            ;5555+              ",
"                                            ;5555+              ",
"                                            ;5555+              ",
"                                            ;5555+              ",
"                                            ;5555+              ",
"                                            ;5555+              ",
"                                            ;5555+              ",
"                                            ;5555+              ",
"                                            ;5555+              ",
"                                            ;5555+              ",
"                                            ;5555+              ",
"                                            ;5555+              ",
"                                            ;5555+              ",
"                                            ;5555+              ",
"                                            ;5555+              ",
"                                            ;5555+              ",
"                                            ;5555+              ",
"                                            ;5555+              ",
"                                            ;5555+              ",
"                                            ;5555+              ",
"                                            ;5555+              ",
"                                            -1555+              ",
"                                             *<55+              ",
"                                              *<5+              ",
"                                               #3+              ",
"                                                $.              ",
"                                                                ",
"                                                                "
};
