/* XPM */
static char *result[] = {
/* columns rows colors chars-per-pixel */
"64 64 21 1 ",
"  c black",
". c #000100",
"X c #000900",
"o c #000A00",
"O c #000B00",
"+ c #000C00",
"@ c #001300",
"# c #001500",
"$ c #001600",
"% c #001D00",
"& c #001F00",
"* c #002700",
"= c #019C00",
"- c #01A800",
"; c #01A900",
": c #01AB00",
"> c #01AC00",
", c #01AE00",
"< c #01B400",
"1 c #01B500",
"2 c #02C000",
/* pixels */
"                                                                ",
"                                                                ",
"                                                O               ",
"                                               o<+              ",
"                                              #:2+              ",
"                                             #:22+              ",
"                                            %>222+              ",
"                                            =2222+              ",
"                                            =2222+              ",
"                                            =2222+              ",
"                                            =2222+              ",
"                                            =2222+              ",
"                                            =2222+              ",
"                                            =2222+              ",
"                                            =2222+              ",
"                                            =2222+              ",
"                                            =2222+              ",
"                                            =2222+              ",
"                                            =2222+              ",
"                                            =2222+              ",
"                                            =2222+              ",
"                                            =2222+              ",
"                                            =2222+              ",
"                                            =2222+              ",
"                                            =2222+              ",
"                                            =2222+              ",
"                                            =2222+              ",
"                                            =2222+              ",
"                                            @:222+              ",
"                                             #:22+              ",
"                                              o;2+              ",
"                                               o+               ",
"                                                                ",
"                                               -2+              ",
"                                             o;22+              ",
"                                            X;222+              ",
"                                            =2222+              ",
"                                            =2222+              ",
"                                            =2222+              ",
"                                            =2222+              ",
"                                            =2222+              ",
"                                            =2222+              ",
"                                            =2222+              ",
"                                            =2222+              ",
"                                            =2222+              ",
"                                            =2222+              ",
"                                            =2222+              ",
"                                            =2222+              ",
"                                            =2222+              ",
"                                            =2222+              ",
"                                            =2222+              ",
"                                            =2222+              ",
"                                            =2222+              ",
"                                            =2222+              ",
"                                            =2222+              ",
"                                            =2222+              ",
"                                            =2222+              ",
"                                            *,222+              ",
"                                             &>22+              ",
"                                              &>2+              ",
"                                               #1+              ",
"                                                $.              ",
"                                                                ",
"                                                                "
};
