/* XPM */
static char *result[] = {
/* columns rows colors chars-per-pixel */
"64 64 28 1 ",
"  c black",
". c #000100",
"X c #000900",
"o c #000A00",
"O c #000B00",
"+ c #000C00",
"@ c #001300",
"# c #001500",
"$ c #001600",
"% c #001800",
"& c #001D00",
"* c #001F00",
"= c #002100",
"- c #002700",
"; c #002A00",
": c #019C00",
"> c #01A000",
", c #01A200",
"< c #01A800",
"1 c #01A900",
"2 c #01AB00",
"3 c #01AC00",
"4 c #01AE00",
"5 c #01B400",
"6 c #01B500",
"7 c #01B600",
"8 c #01B700",
"9 c #02C000",
/* pixels */
"                                                                ",
"               999999999999999999999999999999999+               ",
"              +O5999999999999999999999999999996$                ",
"              9OO59999999999999999999999999996$                 ",
"              96$o299999999999999999999999993#                  ",
"              996$#<<<<<<<<<<<<<<<<<<<<<<<<<*                   ",
"              9997*                                             ",
"              9999<                                             ",
"              9999<                                             ",
"              9999<                                             ",
"              9999<                                             ",
"              9999<                                             ",
"              9999<                                             ",
"              9999<                                             ",
"              9999<                                             ",
"              9999<                                             ",
"              9999<                                             ",
"              9999<                                             ",
"              9999<                                             ",
"              9999<                                             ",
"              9999<                                             ",
"              9999<                                             ",
"              9999<                                             ",
"              9999<                                             ",
"              9999<                                             ",
"              9999<                                             ",
"              9999<                                             ",
"              9999<                                             ",
"              9996#                                             ",
"              996$#<<<<<<<<<<<<<<<<<<<<<<<<<*                   ",
"              95OO699999999999999999999999997$                  ",
"              +OO59999999999999999999999999996$                 ",
"                +99999999999999999999999999999%                 ",
"              95 +999999999999999999999999999% <9+              ",
"              995O$5555555555555555555555555=o199+              ",
"              9995o                         X1999+              ",
"              9999<                         :9999+              ",
"              9999<                         :9999+              ",
"              9999<                         :9999+              ",
"              9999<                         :9999+              ",
"              9999<                         :9999+              ",
"              9999<                         :9999+              ",
"              9999<                         :9999+              ",
"              9999<                         :9999+              ",
"              9999<                         :9999+              ",
"              9999<                         :9999+              ",
"              9999<                         :9999+              ",
"              9999<                         :9999+              ",
"              9999<                         :9999+              ",
"              9999<                         :9999+              ",
"              9999<                         :9999+              ",
"              9999<                         :9999+              ",
"              9999<                         :9999+              ",
"              9999<                         :9999+              ",
"              9999<                         :9999+              ",
"              9999<                         :9999+              ",
"              9999<                         :9999+              ",
"              9998;                         -4999+              ",
"              997=@:::::::::::::::::::::::::&*399+              ",
"              97=X>9999999999999999999999999,@*39+              ",
"              9$o19999999999999999999999999992##6+              ",
"              %o1999999999999999999999999999992#$.              ",
"               599999999999999999999999999999996O               ",
"               +++++++++++++++++++++++++++++++++                "
};
