/* XPM */
static char *result[] = {
/* columns rows colors chars-per-pixel */
"64 64 26 1 ",
"  c black",
". c #000100",
"X c #000900",
"o c #000A00",
"O c #000B00",
"+ c #000C00",
"@ c #001300",
"# c #001500",
"$ c #001600",
"% c #001800",
"& c #001D00",
"* c #001F00",
"= c #002100",
"- c #002700",
"; c #019C00",
": c #01A000",
"> c #01A200",
", c #01A800",
"< c #01A900",
"1 c #01AB00",
"2 c #01AC00",
"3 c #01AE00",
"4 c #01B400",
"5 c #01B500",
"6 c #01B600",
"7 c #02C000",
/* pixels */
"                                                                ",
"               777777777777777777777777777777777+               ",
"               O4777777777777777777777777777775$O               ",
"                O47777777777777777777777777775$o4+              ",
"                 o177777777777777777777777772##17+              ",
"                  #,,,,,,,,,,,,,,,,,,,,,,,,,*#177+              ",
"                                            &2777+              ",
"                                            ;7777+              ",
"                                            ;7777+              ",
"                                            ;7777+              ",
"                                            ;7777+              ",
"                                            ;7777+              ",
"                                            ;7777+              ",
"                                            ;7777+              ",
"                                            ;7777+              ",
"                                            ;7777+              ",
"                                            ;7777+              ",
"                                            ;7777+              ",
"                                            ;7777+              ",
"                                            ;7777+              ",
"                                            ;7777+              ",
"                                            ;7777+              ",
"                                            ;7777+              ",
"                                            ;7777+              ",
"                                            ;7777+              ",
"                                            ;7777+              ",
"                                            ;7777+              ",
"                                            ;7777+              ",
"                                            @1777+              ",
"                  #,,,,,,,,,,,,,,,,,,,,,,,,,*#177+              ",
"                 O577777777777777777777777776$o<7+              ",
"                O47777777777777777777777777775$o+               ",
"                +77777777777777777777777777777%                 ",
"                 +777777777777777777777777777% ,7+              ",
"                  $4444444444444444444444444=o<77+              ",
"                                            X<777+              ",
"                                            ;7777+              ",
"                                            ;7777+              ",
"                                            ;7777+              ",
"                                            ;7777+              ",
"                                            ;7777+              ",
"                                            ;7777+              ",
"                                            ;7777+              ",
"                                            ;7777+              ",
"                                            ;7777+              ",
"                                            ;7777+              ",
"                                            ;7777+              ",
"                                            ;7777+              ",
"                                            ;7777+              ",
"                                            ;7777+              ",
"                                            ;7777+              ",
"                                            ;7777+              ",
"                                            ;7777+              ",
"                                            ;7777+              ",
"                                            ;7777+              ",
"                                            ;7777+              ",
"                                            ;7777+              ",
"                                            -3777+              ",
"                  @;;;;;;;;;;;;;;;;;;;;;;;;;&*277+              ",
"                 X:7777777777777777777777777>@*27+              ",
"                o<7777777777777777777777777771##5+              ",
"               o<777777777777777777777777777771#$.              ",
"               477777777777777777777777777777775O               ",
"               +++++++++++++++++++++++++++++++++                "
};
