/* XPM */
static char *result[] = {
/* columns rows colors chars-per-pixel */
"64 64 25 1 ",
"  c black",
". c #000900",
"X c #000A00",
"o c #000B00",
"O c #000C00",
"+ c #001300",
"@ c #001500",
"# c #001600",
"$ c #001800",
"% c #001D00",
"& c #001F00",
"* c #002100",
"= c #002A00",
"- c #019C00",
"; c #01A000",
": c #01A200",
"> c #01A800",
", c #01A900",
"< c #01AB00",
"1 c #01AC00",
"2 c #01B400",
"3 c #01B500",
"4 c #01B600",
"5 c #01B700",
"6 c #02C000",
/* pixels */
"                                                                ",
"               666666666666666666666666666666666O               ",
"               o2666666666666666666666666666663#o               ",
"                o26666666666666666666666666663#X2O              ",
"                 X<66666666666666666666666661@@<6O              ",
"                  @>>>>>>>>>>>>>>>>>>>>>>>>>&@<66O              ",
"                                            %1666O              ",
"                                            -6666O              ",
"                                            -6666O              ",
"                                            -6666O              ",
"                                            -6666O              ",
"                                            -6666O              ",
"                                            -6666O              ",
"                                            -6666O              ",
"                                            -6666O              ",
"                                            -6666O              ",
"                                            -6666O              ",
"                                            -6666O              ",
"                                            -6666O              ",
"                                            -6666O              ",
"                                            -6666O              ",
"                                            -6666O              ",
"                                            -6666O              ",
"                                            -6666O              ",
"                                            -6666O              ",
"                                            -6666O              ",
"                                            -6666O              ",
"                                            -6666O              ",
"                                            +<666O              ",
"                  @>>>>>>>>>>>>>>>>>>>>>>>>>&@<66O              ",
"                 o366666666666666666666666664#X,6O              ",
"                o26666666666666666666666666663#XO               ",
"                O66666666666666666666666666666$                 ",
"              62 O666666666666666666666666666$                  ",
"              662o#2222222222222222222222222*                   ",
"              6662X                                             ",
"              6666>                                             ",
"              6666>                                             ",
"              6666>                                             ",
"              6666>                                             ",
"              6666>                                             ",
"              6666>                                             ",
"              6666>                                             ",
"              6666>                                             ",
"              6666>                                             ",
"              6666>                                             ",
"              6666>                                             ",
"              6666>                                             ",
"              6666>                                             ",
"              6666>                                             ",
"              6666>                                             ",
"              6666>                                             ",
"              6666>                                             ",
"              6666>                                             ",
"              6666>                                             ",
"              6666>                                             ",
"              6666>                                             ",
"              6665=                                             ",
"              664*+-------------------------%                   ",
"              64*.;6666666666666666666666666:+                  ",
"              6#X,666666666666666666666666666<@                 ",
"              $X,66666666666666666666666666666<@                ",
"               266666666666666666666666666666663o               ",
"               OOOOOOOOOOOOOOOOOOOOOOOOOOOOOOOOO                "
};
