/* XPM */
static char *_371_fce8decf9e2f274d26dc03c83d0f725ffd34833f4c9ed3f081ed3b00b31c7f64[] = {
/* columns rows colors chars-per-pixel */
"64 64 133 2 ",
"   c #020203",
".  c #070906",
"X  c #090906",
"o  c #050608",
"O  c #060A0C",
"+  c #0B0C0C",
"@  c #100C09",
"#  c #11100B",
"$  c #070E11",
"%  c #0B0E11",
"&  c #0E1114",
"*  c #08171A",
"=  c #0C1A1D",
"-  c #121314",
";  c #191A17",
":  c #121619",
">  c #15191D",
",  c #1A1C1C",
"<  c #1E231F",
"1  c #21201C",
"2  c #151C20",
"3  c #1A1D21",
"4  c #1D2124",
"5  c #16252A",
"6  c #1B242A",
"7  c #1B292D",
"8  c #232525",
"9  c #292723",
"0  c #2A2A24",
"q  c #22262C",
"w  c #24292D",
"e  c #2A2C2C",
"r  c #302F29",
"t  c #31322D",
"y  c #39342E",
"u  c #242C31",
"i  c #2A2D34",
"p  c #273135",
"a  c #2C3135",
"s  c #27363C",
"d  c #2F343F",
"f  c #27383F",
"g  c #2F383C",
"h  c #323434",
"j  c #393734",
"k  c #363836",
"l  c #3C3B35",
"z  c #31353E",
"x  c #343A3C",
"c  c #3B3C3A",
"v  c #433E35",
"b  c #3F403B",
"n  c #44443E",
"m  c #4B473C",
"M  c #2A3C43",
"N  c #313640",
"B  c #303940",
"V  c #3A3E43",
"C  c #374147",
"Z  c #3C4245",
"A  c #3B4449",
"S  c #3E484D",
"D  c #444643",
"F  c #464844",
"G  c #444749",
"H  c #43494D",
"J  c #4A4D4B",
"K  c #524E44",
"L  c #4F504F",
"P  c #52504D",
"I  c #59554C",
"U  c #444E50",
"Y  c #4A4E51",
"T  c #455056",
"R  c #4C5255",
"E  c #45545B",
"W  c #4D5559",
"Q  c #4D595D",
"!  c #525454",
"~  c #575854",
"^  c #5A5C57",
"/  c #50565A",
"(  c #545A5D",
")  c #5C5C59",
"_  c #4E5B61",
"`  c #535D60",
"'  c #5A5D62",
"]  c #566165",
"[  c #5D6164",
"{  c #5B656B",
"}  c #5A6970",
"|  c #646462",
" . c #676863",
".. c #6A6B67",
"X. c #64666A",
"o. c #66696B",
"O. c #6A6B6B",
"+. c #797367",
"@. c #70716B",
"#. c #656C72",
"$. c #6B6C70",
"%. c #6E7072",
"&. c #66737A",
"*. c #6A7579",
"=. c #767677",
"-. c #7A7975",
";. c #707579",
":. c #757A7D",
">. c #7D7D7D",
",. c #6F7A80",
"<. c #707C82",
"1. c #7C7D83",
"2. c #7E8287",
"3. c #7B858D",
"4. c #808487",
"5. c #848689",
"6. c #87888C",
"7. c #8A8A8D",
"8. c #818C95",
"9. c #8D8E92",
"0. c #839197",
"q. c #8C9093",
"w. c #8A969D",
"e. c #989697",
"r. c #979598",
"t. c #999A9F",
"y. c #8E96A0",
"u. c #9A9BA0",
"i. c #9CA5AC",
"p. c #A0A1A6",
"a. c #A2A4A9",
"s. c #ACADB2",
"d. c #B3B2B7",
/* pixels */
"d N d d d d N d N d d d d d d d d d d d d d N d d d d d d d a z N d d N i i N N d d d d d z B N N d d d d N d N d d d d d N d d ",
"d d N d d d d d d d d z d d d N d d d d d N N N d d q q d V i q a d d N N N N N N d d u $ O & 6 d d q i d N d d d d d d d d N d ",
"d d d d N N a u q d V i q d d d d d d d d d i q V z % > J O.J 8 3 w N N N N N N d d z w c L |  .{ k : X   i N N d u z N d d d d ",
"d d d d 6 D z + 2 H ..J q 3 q d d N d d d d q T O.j 3 N ~ Y Y C 3 & N N N u N N d d x 1.r.>.-.@.! < + & 2 > u a d u z z N d N d ",
"d d N q ! ..l 1 j ~ Y Y Z > - z d d d d N N X.L - 9 I r j , d &.6 $ 3 d N N N N z i ! >.j ; ; t n ; X , 8 x | ;.[ G 4 i d d d i ",
"d d N X.J - 0 I r j > p &.6 % 6 N N d d N V %.9 @ @ I 9 e + S 3.N 3 > N N u u N N q.6.R ; X X . n K y y c ) |  .| G h - d d d i ",
"N d V $.e X @ I 9 e $ S 3.V 3 : i N N N N Y 7.i @ y 1.$./ _ <.E 2 O * N N N N N { d.>.e & X     v +.m n K ! ^ ) ~ J i q % N d d ",
"d d E 7.e @ h 1.O./ ` ,._ : o - N N N N N H X.' [ 5.1.Z ' &.M u & $ * N u N N N o.9.X.8 - @ X   m I @ < j D c x A R z : e & d d ",
"d d Y o.' [ 5.2.Z ] &.s u & + > N N u N N u G 8 e G W Z E 3 % u i % N N d N d N X.' $.G % X   9 -.P - 8 0 & + 2 x *.s : 8 % z N ",
"d d d F 9 w G W A U 5 & u u & d N N N N N N N V j x N i 2 $ : 3 : q N N d d d i / d V 1.X.D ) 6.e.%.c D 8   & = E w.p 5 > O i d ",
"N d N h D j z x i > $ : 3 : q d u N N u N d d i j 8 i 4 & & % q N N N N d d N i G y 8 i :.i.s.a.t.5.X.R a O $ 5 0.8.d = &   z N ",
"d d N a j l 8 i 4 & & & q d d d N N N N N s d d e & & 3 & % q d N i N N d d N 3 G 9 @ - 8 [ ;.{ Y D ` ] #.Q _ w.i.{ A 2 $ o i d ",
"N d N d N w % & 3 $ % q N d N d N N N N d d d d d w q > q d N d i N d d d d d 6 v | v 4 3 N R U 2 q Q ,.y.y.3.3.{ T A u 3 & > z ",
"d d d d N i q q 2 q N d N d d d u N N N d N d N N d d N d d N d N N d d N u d d 8 I ) D a N T ] W _ { } E M C f 7 - O + : $ z N ",
"N i d N N d N N N N d d d N d N N N N N N s d d d d d N N d N d d d d d N d d d i v r 0 H Z 8 x _ S d 7 * = 5 s 2         > N d ",
"N N N s d d d N N N N d d d d d N N N i N N d N d d d d d d d N d d d d d d d d i y 4 o 4 A & O & & & O O $ > B w $ o O   d N d ",
"N N N N q $ O & 6 z z w i d N d d N a z N N d d d N i N i V w i N N N N N N d d i i e o   i V 3 & & O O % % q V z , -   q z d d ",
"N N N N q N L [  .{ k : +   i N d d u z N d d d N N N ' L D ; i H q N N N N i d N q : : & : d 3 & & = > 3 4 q 4 3 %   u z z d N ",
"N N N N 1.r.>.-.@.I < + % > > : d z a d d d N d N N ' ( + 9 v J Y d 6 N N i d d d d N q & 2 2 & + & & X   O : % + : N d N d d d ",
"N u 7 W >.c ; ; t n ; + , 8 x | ;.' G 4 i d d d i N G ! G =.V - d G : N N N d d d d N N N - $ o O   O 3 N N d N N d d d d d d N ",
"z N 9.6.Y ; X o   v K y l l ~ X. .[ D h - z N z w N c e R R ` #.,.V = N d d d d N d N d N N N N d z d d N d d d N N z N d d d d ",
"N { d.>.i # o X   v +.m n J ~ ) ) ~ J i q % z d N d a t g x d 6 u o : N d d N d d d d d N i N N d d d N d d d d d V q i d d N d ",
"z o.9...8 - @ X   K P # , y D c k S W g : u : N d d z 3 4 : $ : q % i N d d N N d d d d s N d d d d N d N d N ' P n ; i Y i d d ",
"N ..[ O.F - X   0 -.P - 8 9 - X > g *.d - 8 % z d d d z 6 > 2 u i N N N d d d N N d d N d N d N d d d d d d ` ( + 9 l J ! z 3 d ",
"i ) t V 1.X.c ) 6.e.;.c Z 8   - 2 E w.s 2 > O i N N d d d d d d N N d N q $ O % 6 x g w i z N N N N d N N N G ! D =.D - d S > d ",
"i F t 8 a :.a.s.a.u.2...W a X $ 5 0.8.s 2 & o d N d N d N N d d N N N N q V L [  .{ z - X   i N N N q N N N v e W Y ` #.,.A & d ",
"4 F 0 + & q { ;.{ Y D ` { } _ ] w.i.{ S , $ o i d a V q i N d N N N N N 1.r.>.-.@.! 1 + & 3 > u N i i N N N a t z k x 5 u O > d ",
"q c  .v 4 , x T U > 6 Q ,.y.w.3.3.{ U C i 3 % 3 ' J D : i Y a N N N 6 T >.c ; ; t m ; + > 8 k | ;.' S 3 q N N 3 3 > $ : w 4 a d ",
"N 8 I ) F a b T ` W _ } } E M M d 7 & O O & % ' ) + 0 l F ! a 8 N N 1.5.Y ; X X   v K y j c )  .| [ G h : z N a 3 : 2 i d d d d ",
"d i v r e H A 8 x Q S d 7 * = 5 s 2       o 3 J ! G -.Z - g S > d [ d.>.u - X X   v +.m n J ~ ~ ) ~ J i q % N d N N N d d d d d ",
"N i h 1 . 3 Z & o & : & O O $ 2 M w $ + +   a c e R R ( #.,.A : d O.9.O.8 - @ X   K P # ; y D c x A W z 2 i & N N N d d d d d d ",
"d i i e O   a V 3 & $ O O $ & 8 C h , :   q N i t z x d 5 u O : a O.' O.G # X   0 -.P - 8 0 - X > x *.a 3 3 % N i N d d d d d d ",
"N N q % : & 2 i 4 % : - > 3 3 3 6 3 $ o 6 d d d 3 3 2 $ : q - i a ) t V 1.X.V ) 5.e.%.c D 4   % 2 Q w.s 2 > O i N d z N d N d d ",
"N N N N q % 2 = > % & % O o % & % O : N N d d d N 3 : 2 i i N d i F h 8 i :.p.a.i.t.4. .! a % $ 5 0.8.s 2 - o d d d d N d d N d ",
"N i N d N N $ O O $   o 3 N d N N N d d N d d d N N i N N N d d 8 D 0 + - q ' ;.{ R Z Q ] #.Q ` w.i.{ A 2 $ o i p d V q i N i N ",
"N N N N N N N N z d N d N N d d N N N d d d N d N N N N N N d d q c | v 4 3 x R U , 8 Q <.y.w.8.1.{ E V i 3 - 3 ' L D ; i Y i N ",
"N N N N i N N N d d d d N d d N N N N u d d d d N N u N N d d d z 8 I ^ D a x T ` W _ } } E M M M 5 & O O & % ' ) + 9 l G ! a q ",
"N u d N N N N N d d N d d N d d N N N N d d d d N N N N d d d d d e n r e S S 8 N _ H d 7 * = 5 M 2       o 3 G ! F -.Z - N S > ",
"d d { #.N N N N N N d i N N d d N N N N N d u N N u N N d d d d d a t 8 . 4 A & o % - $ O $ % > N w $ X +   a c q R R ` #.,.A : ",
"d d #.#.i N d d q q d V i q a N d N i N N N N N N N N N d d d d N i i e .   a b 3 : $ O O % % q C a 3 :   q N a t z B g 5 u o > ",
"N d N d d 4 A N + > J O.J q 4 w d d d d d d N d N N d d d d d d d d 6 : : - > a 8 % - : > 3 3 8 q 3 +   i d d d , 4 > % : w : d ",
"d d N N q Y X.j 1 h ~ P Y Z 2 & d d d d d d N u i D q d d d N a d N N N q % > > > O - % O   % : # o : N d d N d z 6 : 2 i i d N ",
"d d d N X.Y - 9 I r j > p *.5 O 2 N N d d N N ' P D ; i J a d d d d d d N d : $ O O   O 2 N d d N N N N d d N d z d d d d d N d ",
"d d d N %.9 @ @ ~ 9 e % A 3.A 4 : N N d d N ' _ @ 1 l J Y z q d N d N d z N N N N i N N d d d N N N N N i i V q i N d d d d N d ",
"N N N / 9.i @ y 1.O./ ` <._ : O - d d d d d H W G ;.D : N S : N d d d d d i u q d V a q z d d d N N N N ' L D ; i Y N N N N N N ",
"N N N H X.' ' 5.2.Z ] &.N u & @ : d d d d d N q R R ( #.<.N : N N d d q D z + > H ..J 8 3 q N z N i N _ ) + 9 v J Y d q i N N N ",
"N i N i F 8 i G W V T 6 $ i q - d N d d d d d y d x N 3 7 O : N d d 6 ! ..j 1 j ~ L Y C , - d d d N N G ! G -.V - d S 2 N N N N ",
"N N N N h n j z N i 2 O : 2 : q d d d N d d N 3 3 2 % : q 2 i N d d X.J - 9 I r h , d &.5 % 6 z d N N z e / Y ` #.,.N & u N N u ",
"N u N N i d v 8 i 3 % : % q N N N N N N N N d d 2 * 2 i i d N N N V %.e X + I 9 e $ S 3.V 3 : d d d d i t z z z 6 u o > d N d d ",
"N N N N d d q - - 3 % + q N N N u N N i N i d d N N d d d d N i N W 7.e @ t 1.O./ ` ,.E > o & d N d N N 3 3 > % : q & d d d N d ",
"N i u N N N N q q > q N N N N N N N N i N d d d d d d N N N N N d H O.' [ 5.2.A ] &.d p & % : d N d d N d 3 2 2 i u d d d d d d ",
"N N N N N i N N N N N N N i N N N N N N N d d d d d d d i d d N d d F 8 e H R C T 7 % u u % d d d d d d N N N N N d d N d d N d ",
"d N d d d d N N d d d d d d N i N d N d N N N N d q q N V i q d d d h D j g x a > $ : 3 > 6 N d d d N N N i w w d V a q d d N d ",
"d d d d d d N N N d d d d d N N N N d d N d 4 Z N $ 3 G O.Y q 3 q N d j j 8 a 4 & & % q d d N d i N N q V d @ > J o.J q 2 q d N ",
"d d d N u N N q u d N N d d d N #.#.N N d 4 P o.N 1 y ! P Y V 2 % z d d e - - 3 % % u N N d N d N N 3 Y o.l 1 j ~ L J V 2 % d d ",
"d d d N ' T G : i T u d d d d d #.X.d N N X.L - 9 P r j , i *.6 $ 3 d d d q q 3 q d d d d d d d N N X.Y - 9 I r h , d &.6 % 3 d ",
"N N N ' ( @ q v G Y N q N N N N N N N N N #.9 @ @ I 9 u & V 8.N 3 > N N N N N u i V e i N N N d N V $.0 X + ~ 0 e + S 3.C 4 > d ",
"d N N G ! G =.V : N V > N N N N N N N N R 3.i @ a 1.$./ _ <._ : o - i N N N N ` P n ; i Y i d N N W 9.i @ h >.O.W ` ,.Q = o - d ",
"d N d j 9 R T ' #.<.V : i N N N N u N N H X.' [ 5.2.V { ,.M u & + : N N N N ' _ + 9 l J ! a q z d H O.' [ 5.2.Z ] &.f u - X > d ",
"N i N d t N N N 6 q $ : N u N N N N N N N G 8 w G / N T 5 $ u i # N N N N N G Y G =.D - d S > z d d F 8 e G W Z T 5 & u u % d d ",
"N N N i 2 3 > & : q * u N N d d d d d N z x n x z x i > $ : 3 : 4 d d d N N z 8 R R ' #.<.V & d d d a D j z x i 2 $ 2 3 8 G N N ",
"N N N N d 6 > 2 u i d d N N d d N d N i z a j j 8 u 4 - & % q N N N d d N N z r z N N 5 u o : N d d a j j 8 i 3 & & % 3 #.#.d d ",
"N i N i d d d d N N d d d d d d d d d d N d d e # - 4 % $ q N i N N d N d d d , 3 2 % & u : i N N d N d r & & 4 % % q N d d N d ",
"N N N N d d d d d N d N d d d d N d d N d d N N q q 2 q i N N N N N d d N N N d 3 2 2 i i N d d d d d N d q q 2 q d d N d N d d "
};
