/* XPM */
static char *_7585_86957c412f1af0284ad50badf983ad29560a10c18eb18bb43282be444eb3b381[] = {
/* columns rows colors chars-per-pixel */
"64 64 233 2 ",
"   c #3C0B15",
".  c #3C0D18",
"X  c #37121B",
"o  c #191D3C",
"O  c #171E3C",
"+  c #3C1925",
"@  c #1B203C",
"#  c #37212C",
"$  c #2A2C3E",
"%  c #26283C",
"&  c #3B2A36",
"*  c #3C2D3B",
"=  c #372836",
"-  c #2F343F",
";  c #33323E",
":  c #38303D",
">  c #3C3B3E",
",  c #440C16",
"<  c #480E16",
"1  c #440C19",
"2  c #4B0D1A",
"3  c #530E1D",
"4  c #580E1F",
"5  c #4C1016",
"6  c #44121A",
"7  c #4C111B",
"8  c #4A151A",
"9  c #54111A",
"0  c #5C141B",
"q  c #581517",
"w  c #64161C",
"e  c #6C1B1D",
"r  c #621B1B",
"t  c #731C1E",
"y  c #7B1E1F",
"u  c #7B241E",
"i  c #76251D",
"p  c #6F251B",
"a  c #5A0E21",
"s  c #4C1A2A",
"d  c #461725",
"f  c #531423",
"g  c #5A1225",
"h  c #5B1629",
"j  c #521A2A",
"k  c #571A29",
"l  c #581E31",
"z  c #640F24",
"x  c #6C1324",
"c  c #641526",
"v  c #751C21",
"b  c #7B1E22",
"n  c #76132A",
"m  c #651C33",
"M  c #731632",
"N  c #46222E",
"B  c #442332",
"V  c #4B2434",
"C  c #422937",
"Z  c #422B3A",
"A  c #4C2938",
"S  c #552534",
"D  c #543233",
"F  c #573539",
"G  c #58282A",
"H  c #7D2321",
"J  c #6B3B33",
"K  c #643836",
"L  c #6D372D",
"P  c #764E39",
"I  c #5F513E",
"U  c #252E47",
"Y  c #273248",
"T  c #363843",
"R  c #283A52",
"E  c #403F40",
"W  c #304F60",
"Q  c #585445",
"!  c #505750",
"~  c #625A43",
"^  c #736F50",
"/  c #4F7371",
"(  c #676A71",
")  c #82261E",
"_  c #88291D",
"`  c #8A341E",
"'  c #98391E",
"]  c #851F27",
"[  c #8A1431",
"{  c #921337",
"}  c #852222",
"|  c #8C2422",
" . c #8E2922",
".. c #892C24",
"X. c #912622",
"o. c #942B22",
"O. c #992C23",
"+. c #902C29",
"@. c #823221",
"#. c #9D3223",
"$. c #963621",
"%. c #8B3632",
"&. c #A43422",
"*. c #AB3A23",
"=. c #A53A26",
"-. c #B13D24",
";. c #B4392D",
":. c #894A33",
">. c #8F5332",
",. c #A84427",
"<. c #B44124",
"1. c #BC4523",
"2. c #B84A27",
"3. c #BC582B",
"4. c #AA5034",
"5. c #BD6534",
"6. c #B67036",
"7. c #AE491D",
"8. c #C44C23",
"9. c #CA4E24",
"0. c #C54B28",
"q. c #CD5C26",
"w. c #C95526",
"e. c #D35523",
"r. c #DD5C24",
"t. c #D35C27",
"y. c #E15E25",
"u. c #CC672C",
"i. c #DA6428",
"p. c #D4732E",
"a. c #C26834",
"s. c #C77735",
"d. c #D77633",
"f. c #CD6F35",
"g. c #E46224",
"h. c #EA6524",
"j. c #EE6B24",
"k. c #E86D2A",
"l. c #F06A24",
"z. c #EB742A",
"x. c #F1772A",
"c. c #E77A32",
"v. c #8C5248",
"b. c #877C4A",
"n. c #916B5A",
"m. c #B8744F",
"M. c #CB7742",
"N. c #52817C",
"B. c #6D856B",
"V. c #CB8339",
"C. c #D78839",
"Z. c #D7983F",
"A. c #ED822E",
"S. c #F1842E",
"D. c #ED8D35",
"F. c #E88834",
"G. c #F18D33",
"H. c #EB933A",
"J. c #EE9B3A",
"K. c #EB9337",
"L. c #F19938",
"P. c #F3A53D",
"I. c #8C8754",
"U. c #A59854",
"Y. c #B98B51",
"T. c #B7A954",
"R. c #BCB358",
"E. c #8F8E72",
"W. c #B49166",
"Q. c #B0B16E",
"!. c #8EB37D",
"~. c #DC9548",
"^. c #D29256",
"/. c #CD8F4E",
"(. c #D8B64D",
"). c #C8B656",
"_. c #D4B254",
"`. c #F2A943",
"'. c #EEBA4A",
"]. c #F5B646",
"[. c #E7B44F",
"{. c #CEAF68",
"}. c #D99D54",
"|. c #B5C476",
" X c #D8C65B",
".X c #CFC35F",
"XX c #F5C34C",
"oX c #F8C34B",
"OX c #F9CB4E",
"+X c #F7CB4E",
"@X c #EAC95A",
"#X c #F3C951",
"$X c #FAD452",
"%X c #FCDD56",
"&X c #F5DC59",
"*X c #EDD157",
"=X c #FEE55A",
"-X c #F7E45D",
";X c #DCD26A",
":X c #D5D274",
">X c #CACD73",
",X c #EAD863",
"<X c #DBE779",
"1X c #F5E664",
"2X c #E4EA76",
"3X c #EDE266",
"4X c #487B82",
"5X c #6DB9AA",
"6X c #7CDBBC",
"7X c #98B882",
"8X c #85B398",
"9X c #B8B884",
"0X c #88BAA6",
"qX c #A7CD8C",
"wX c #ABC497",
"eX c #AED693",
"rX c #91CCAD",
"tX c #A8D6A5",
"yX c #99E8BC",
"uX c #B6F4A8",
"iX c #A7F6B8",
"pX c #AFF0AC",
"aX c #B4E79C",
"sX c #C7D685",
"dX c #D4EF88",
"fX c #CCEC91",
"gX c #C7F196",
"hX c #CAE88A",
"jX c #9BF7C6",
"kX c #89FADB",
"lX c #95E7C2",
"zX c #84FCE0",
"xX c #A2F8C3",
/* pixels */
"- - - - - - - - - - - - - - - - - - - - - - - - - - - - - - - - - - - - - - - - - - - - - - - - - - - - - - - - - - - - - - - - ",
"- - - - - - - - - - - - - - - - - - - - - - - - - - - - - - - - - - - - - - - - - - - - - - - - - - - - - - - - - - - - - - - - ",
"- - - - - - - - - - - - - - - - - - - - - - - - - - - - - - - - - - - - - - - - - - - - - - - - - - - - - - - - - - - - - - - - ",
"- - - - - - - - - - - - - - - - - - - - - - - - - - - - - - - - - - - - - - - - - - - - - - - - - - - - - - - - - - - - - - - - ",
"- - - - - - - - - - - - - - - - - - - - T Z # + + * - - - - - - ; Y - - - ; - - - - ( ( - - - - - - - - - - - - - - - - - - - - ",
"- - - - - - - - - - - - - - - - - - - - & s .   , d B B # # B T - Z + B = Y - - - - ( ( - - - - - - - - - - - - - - - - - - - - ",
"- - - - - - - - - - - - - - - - - - Y Z j .       1 9 a     f B C g , 3 N : - - - - - - - - - - - - - - - - - - - - - - - - - - ",
"- - - - - - - - - - - - - - - - - ; C h , < q 0 0 0 0 0 9 8   a x z a 2 N : - - - - - - - - - - - - - - - - - - - - - - - - - - ",
"- - - - - - - - ( ( - - - - - - ; : c < q u  .X.| | | | } t 9 0 x { [ m V = = = ; T $ - - - - - - - - - - - - - - - - - - - - - ",
"- - - - - - - - ( ( - - - - ; : = c q e =.e.1.*.O.X.X.X.X.| | _ v v [ [ x <   1 s ; - - - - - - - - - - - - - - - - - - - - - - ",
"- - - - - - - - - - - - - - * h , w _ _ *.i.j.r.1.&.&.&.&.&.' _ X.| t q 5 8 , . 2 h ; - - - - - - - - - - - - - - - - - - - - - ",
"- - - - - - - - - - - - - C h < e o.&.*.1.g.l.l.l.h.l.h.l.h.8.*.&.*.&.&.=.$.p 0 9 2 h - - - - - - - - - - - - - - - - - - - - - ",
"- - - - - - - - - - - - - # 8 u =.,.7.8.g.l.l.l.l.l.l.l.j.j.A.G.D.D.c.x.h.k.F.d.,.p 9 1 c Z T - - - - - - - - - - - - - - - - - ",
"- - - - - - - - - - - - : V H <.9.' q ' g.h.y.r.r.h.h.l.j.A.P.%X%X%X].K.S.L.oXoXC.,.u 0 1 . h ; - - - - - - - - - - - - - - - - ",
"- - - - - - - - - - ; ; C @.w.;.] q ` e.g.9.7.*.8.r.l.l.A.P.%X=X=X1X%X$X$X$X=X=XXX6.&.) w 1 1 X j Z - - - - - - - - - - - - - - ",
"- - - - - - - - - - Y Z G +.;.v q ` q.r.9.&.&.8.g.j.S.S.C.)..XR.).).@X&X1X2X2X1X*XJ.i.*.| 0 6   1 f & - - - - - - - - - - - - - ",
"- - - - - - - - - - - V S G H 0 ` w.0.&.=.v.;.y.z././.Y.b.I I I Q Q b.T..XqXaX2X=XoXS.t.*.b w 1   , f & - - - - - - - - - - - - ",
"- - - - - - - - - - - * Z C r ` 8.9.=.v.n.E.M.g.6.:.~ I > O O O O @ ; Q ! N.5XeX1X$XP.k.1.o.y 0 ,   , s C - - - - - - - - - - - ",
"- - - - - - - - - - - ; : N i 2.w.4.n.8XrX9X/.6.P = o o O O @ @ O O O O @ Y / 7X>X,XXXc.r.&.X.b 0 ,   1 s ; - - - - - - - - - - ",
"- - - - - - - - - - - : N g i <.=.v.0XkXlX7X^ Q ; o o O O O O O O O O O @ @ R ! B.!.;XG.h.1.O.| b 0 ,   d : - - - - - - - - - - ",
"- - - - - - - - - - - N f 9 v } %.E.zXjXeX^ $ O o o O O o o o o O O o o o o o o % / Q.L.j.e.&.X.| y 0 , + * - - - - - - - - - - ",
"- - - - - - - - - - ; d 9 v | +.v.0XkXiXQ.T O O O O O o o o o o O O o o o o o O o T E._.D.x.1.O.| | e , + * - - - - - - - - - - ",
"- - - - - - - - - - V f e | { 4.E.kXjXqX^ Y o o o o o o o o o o o o o o o o O O @ U N.qX Xx.e.&.X.| b 0 d : ; - - - - - - - - - ",
"- - - - - - - - - ; d 9 v +.#.M.wXjXeX^ - o o o o o o o o o o o o o o o o O O O O @ U N.|.K.z.0.O.| | t j * - - - - - - - - - - ",
"- - - - - - - - - V h y X.&.a.9XjXfXT.U o o o o o o o o o o o o o o o o o o o o O O O % U.`.K.u.=.X.| e g j - - - - - - - - - - ",
"- - - - - - - - l f e  .&.9.k.{.fX1XU.% o o o o o o o o o O o o o o o O o o o o O O o % U.&X=XP.3.O.| y 0 3 j T - - - - - - - - ",
"- - - - - - - l 2 9 y o.0.h.x.`.1X Xb.% o o o o o o o o O O O O o = A D D D D D D # O % U.-X=XP.0.O.] t 0 < 6 * - - - - ( ( - - ",
"- - - - - - - d 9 t | &.e.l.x.`.-XT.: @ o o o % C D D D D D D D G :.w.u.i.q.i.q.2.P D I T.%X=XP.w. .v 0 6 . + Z - - - - ( ( - - ",
"- - - - - - j 8 e } X.8.g.l.x.`.3XQ.I F D F D J ,.q.w.u.a.V.V.V.Y.Y.^.^./.H.D.D.K.C.V._.*X=X=XP.q.#.$...i G N ; - - - - - - - - ",
"- - - - - - 8 q } | &.e.l.l.F.[.fXeX/.5.s.6.s.s.F.S.S.D.P.@X;X:XsXyXyXeX>X,XOX+X+X+X+X=X=X=X=X].F.p.p.d.p.5.>.J - - - - - - - - ",
"- - - - - - 6 e } o.8.g.j.x.J.sXiXuX*XP.oXoXoXoX'.oXoX@X:XdXgXgXpXxXuXdX2X-X$X=X=X=X=X=X=X=X=X%X+XoX].oXoX].F.3.>.- - - - - - - ",
"- - - - - - 8 o.=.4.d.S.S.G.[.gXkXpX&X+X=X%X+X+X+X+X#X:XeX:X:X:X:X:X;X#X+X].P.].+X+X=X=X=X=X=X3X&X#X(._.(.'.P.u.4.- - - - - - - ",
"- - - - - - 8 3.f.~.'.oXoXXX*XdXjXgX=X=X$X].L.G.G.G.H.~.^.~.D.C.s.V.V.d.V.s.a.s.V.C._.*X=X=X1XgX:X/.4.P >.6.6.:.F Y - - - - - - ",
"- - - - - - G V.~.XX#XOX$X$X&X2XdX2X&X(.Z.V.u.q.t.q.q.q.q.q.w.4.J J J J J P J J J J ^ ).*X1XfXjX9X5._ r 9 p P Y - ; - - - - - - ",
"- - - - - - D >.6.C.s.V.K.L.L.].-X-X).~ P L L J J J J L J J L & % o o o O o o o o o % ~ ).fXjXzX9X5.#.t 2 6 V T - - - - - - - - ",
"- - - - - - - 8 ' <.&.-.e.l.z.J.=X=XT.$ O O o o o o O O O o o o o o o o o O @ o o o o T U.pXkXkXQ.f.<.u 1 a M C ; - - - - - - - ",
"- - - - - - - 6 i ` | O.8.h.i.d.].-X>X/ R o o o o o o o o o o o o o o o o o o o o o T ^ .XpXkX0Xm.c.9.) < f n g Z - - - - - - - ",
"- - - - - - - X , q u O.9.g.9.0.J.-XdX6X4XU o o O o o o o o o o o o o o o o o o o $ ^  XdXxXtXn.0.y.9.@.< 2 n g Z - - - - - - - ",
"- - ( ( - - ; h , , q _ 8.g.8.*.p.XX2XpX5XR o o o o o o o o o o o o o o o o o o o E U.1XgXtX/.2.0.g.0.H 2 + V Z Y ; - - - - - - ",
"- - ( ( ; ; Y ; f 1 , y -.e.e.*.2.P.-X2XqX^ U o o o o o o o o o o o o o o o o o Y ^ _.-X>X^.u.*.0.g.9.} 3 s ; T - - - - - - - - ",
"- - - - - - - - = j 2 0 } -.w.8.<.F.XX-X3X).I.! R o o o o o o o o o o o O O Y W N.Q.'.].K.z.1.O.1.g.9.) k Z - - - - - - - - - - ",
"- - - - - - - - Z Z j 9 r u #.0.1.i.D.XX=X-X:X7XN.T o @ @ o o o o o o o @ > ^ 7XeX.XG.x.j.l.<.X.1.g.9.u j * - - - - - - - - - - ",
"- - - - - - - N f & & s 3 2 e #.1.w.i.D.XX=X1X<XqXB.~ Q Q o o o o o T Q ~ ^ R.;X@XK.x.l.l.l.<.X.1.e.1.u q B - - - - - - - - - - ",
"- - - - - - - 6 3 # Y * s f 9 p =.8.1.j.G.].XX+X(._._.).I.Q Q Q Q Q b.).(. X'.].C.k.l.l.l.l.<.&.9.9.&.t 7 d : - - - - - - - - - ",
"- - - - - - - X , d T & h x z 9 t 7.&.e.i.d.F.G.H.}.:X<X>XQ.).).).).[.#XXX`.C.f.w.e.l.l.l.l.<.1.e.-.o.w < + * ; - - - - - - - - ",
"- - - - - - - d , f & N a 4 4 z r u o.&.&.<.e.h.k.{.tXxXiXgX2XdX2X,X[.C.d.f.2.&.&.9.l.l.l.y.*.<.-.&.b 9 1 d * Y - - - - - - - - ",
"- - - - - - - V . 1 = +     3 z z w | | | O.1.g.k.^.wXlXyXiXiXiXpX{.M.<.=.&.X.X.&.e.l.l.g.1._ ) ] ] e 2 8 C - - - - - - - - - - ",
"- - - - - - - - + d & + 2 2 w 9 e t | | | ' 9.h.l.k.~.W.{.wXlXlX9X^.2.+.| | | O.0.y.g.y.8.o.e x n v w g B - - - - - - - - - - - ",
"- - - - - - - - A A : B k w b t u O.O.O.O.*.y.l.l.h.h.j.l.M.^.W.f.9.&.| X.| | #.8.r.8.*.O.w 1 M [ w z V T ; Y - - - - - - - - - ",
"- - - - - - - - - - - - Z k v } #.w.8.9.9.q.i.k.r.9.e.h.g.9.*.*.*.O.X.| | | | X.&.&.O.| } 3 1 n x 3 s * V V = - - - - - - - - - ",
"- - - - - - - - - - - - - C h 0 u &.@.@.H @.@.@.#.O.&.7.-.#.| | | | | | | | | | | | ] | t < a x 3 a C Z s 2 d - - - - - - - - - ",
"- - - - - - - - - - - - - ; C c < 5 3 V A A m 9 5 q r t | } t t | | | | | | | ] | | ) w , z { x z C - N 3 < h - - - - - - - - - ",
"- - - - - - - - - - - - - - ; ; C V ; ; ; - : * V h a 2 0 0 8 < v t t ) y w 0 0 9 0 9 , . V m m Z ; - ; * C ; - - - - - - - - - ",
"- - - - - - - - - - - - - - - ; ; ; ; - - - - ; ; : N 3       4 x 2 2 0 3 1 ,   ,   , z B ; ; : ; - - - - ; - - - - - - - - - - ",
"- - - - - - - - - - - - - - - - ( ( - - - - - - T - ; & N B B & C f ,   2 j s 1     3 & ; ; - - - - - - - - - - - - - - - - - - ",
"- - - - - - - - - - - - - - - - ( ( - - - - - - - - - ; ; * : - - & # s & * * & d N & - - - - - - - - - - - - - - - - - - - - - ",
"- - - - - - - - - - - - - - - - - - - - - - - - - - - - - - - - - - : : ; - - ; * : Y - - - - - - - - - - - - - - - - - - - - - ",
"- - - - - - - - - - - - - - - - - - - - - - - - - - - - - - - - - - - - - - - - - - ; - - - - - - - - - - - - - - - - - - - - - ",
"- - - - - - - - - - - - - - - - - - - - - - - - - - - - - - - - - - - - - - - - - - - - - - - - - - - - - - - - - - - - - - - - ",
"- - - - - - - - - - - - - - - - - - - - - - - - - - - - - - - - - - - - - - - - - - - - - - - - - - - - - - - - - - - - - - - - ",
"- - - - - - - - - - - - - - - - - - - - - - - - - - - - - - - - - - - - - - - - - - - - - - - - - - - - - - - - - - - - ( ( - - ",
"- - - - - - - - - - - - - - - - - - - - - - - - - - - - - - - - - - - - - - - - - - - - - - - - - - - - - - - - - - - - ( ( - - ",
"- - - - - - - - - - - - - - - - - - - - - - - - - - - - - - - - - - - - - - - - - - - - - - - - - - - - - - - - - - - - - - - - ",
"- - - - - - - - - - - - - - - - - - - - - - - - - - - - - - - - - - - - - - - - - - - - - - - - - - - - - - - - - - - - - - - - "
};
