/* XPM */
static char *collectible_resized[] = {
/* columns rows colors chars-per-pixel */
"64 64 204 2 ",
"   c #000001",
".  c #00000B",
"X  c #000113",
"o  c #01011B",
"O  c #09071E",
"+  c #020223",
"@  c #090724",
"#  c #0C0924",
"$  c #02022B",
"%  c #09072B",
"&  c #0C092B",
"*  c #120D25",
"=  c #130D2C",
"-  c #181127",
";  c #17102D",
":  c #1B122B",
">  c #020333",
",  c #080732",
"<  c #0C0933",
"1  c #04043B",
"2  c #08073B",
"3  c #0B093B",
"4  c #130E33",
"5  c #120E3B",
"6  c #161033",
"7  c #1B1333",
"8  c #16103C",
"9  c #1B133B",
"0  c #21172C",
"q  c #25192C",
"w  c #2A1D2E",
"e  c #211734",
"r  c #241935",
"t  c #2A1D34",
"y  c #20173C",
"u  c #24193C",
"i  c #2A1D3A",
"p  c #2F203A",
"a  c #332333",
"s  c #392632",
"d  c #3C2935",
"f  c #34243B",
"g  c #3A273C",
"h  c #3D2A3C",
"j  c #432E3E",
"k  c #473136",
"l  c #4D3337",
"z  c #46303E",
"x  c #4B333B",
"c  c #4E3B3B",
"v  c #50363F",
"b  c #55393C",
"n  c #5C3E3D",
"m  c #050542",
"M  c #0D0A43",
"N  c #0F0C4A",
"B  c #130E42",
"V  c #161042",
"C  c #1C1445",
"Z  c #15104B",
"A  c #1B144D",
"S  c #201741",
"D  c #241944",
"F  c #2B1E44",
"G  c #251A4A",
"H  c #2A1E48",
"J  c #281C51",
"K  c #2E2044",
"L  c #352442",
"P  c #382744",
"I  c #3D2A41",
"U  c #34244B",
"Y  c #39274C",
"T  c #3C294B",
"R  c #302152",
"E  c #3C2A53",
"W  c #432E44",
"Q  c #432E4A",
"!  c #473044",
"~  c #4B3344",
"^  c #49324B",
"/  c #513644",
"(  c #563A43",
")  c #583B45",
"_  c #50374B",
"`  c #54394C",
"'  c #593C4B",
"]  c #4B3352",
"[  c #4B3354",
"{  c #503754",
"}  c #563B51",
"|  c #5A3D53",
" . c #573B59",
".. c #564242",
"X. c #684543",
"o. c #6B4745",
"O. c #62424C",
"+. c #6A474B",
"@. c #6D494A",
"#. c #724D44",
"$. c #724D4C",
"%. c #6B5644",
"&. c #7A5547",
"*. c #7A524C",
"=. c #644352",
"-. c #694757",
";. c #6D4952",
":. c #754E54",
">. c #764F5C",
",. c #7D5454",
"<. c #7A5258",
"1. c #855A4B",
"2. c #815757",
"3. c #865A53",
"4. c #8A5C54",
"5. c #85595B",
"6. c #865A5C",
"7. c #86654A",
"8. c #886A4A",
"9. c #94644D",
"0. c #9A694D",
"q. c #8D784E",
"w. c #876951",
"e. c #966454",
"r. c #9B6B55",
"t. c #996758",
"y. c #986959",
"u. c #917856",
"i. c #A26C5A",
"p. c #A87051",
"a. c #A77957",
"s. c #AA725B",
"d. c #B87A5A",
"f. c #885C60",
"g. c #9E6A62",
"h. c #A97561",
"j. c #B97A63",
"k. c #9B8457",
"l. c #A48959",
"z. c #AA935C",
"x. c #B3905D",
"c. c #B88661",
"v. c #B88B65",
"b. c #B89963",
"n. c #BCAA64",
"m. c #C38B5B",
"M. c #C38A65",
"N. c #C3896B",
"B. c #CC996B",
"V. c #D29F73",
"C. c #C1AD64",
"Z. c #D3A96D",
"A. c #CDBD69",
"S. c #CDA571",
"D. c #D7AB77",
"F. c #D7AB7A",
"G. c #D7B973",
"H. c #D2C26A",
"J. c #D9C673",
"K. c #DAC474",
"L. c #DDC37B",
"P. c #E1CD78",
"I. c #E5D27E",
"U. c #E9DA79",
"Y. c #EFE37A",
"T. c #F3E778",
"R. c #DDB785",
"E. c #E0BF85",
"W. c #E4CA82",
"Q. c #E6C78A",
"!. c #EDDA86",
"~. c #EFDF8A",
"^. c #F2DF9F",
"/. c #F3E680",
"(. c #F8EE80",
"). c #FFFC84",
"_. c #FDF589",
"`. c #FFFA8C",
"'. c #F7E992",
"]. c #F7E89B",
"[. c #F9ED9E",
"{. c #FDF492",
"}. c #FFF994",
"|. c #FEF69D",
" X c #FFFA9C",
".X c #EDD5A2",
"XX c #F2DFA9",
"oX c #F7E8A3",
"OX c #F7E8A5",
"+X c #FCF2A1",
"@X c #FFFAA4",
"#X c #FEF7AC",
"$X c #FFFAAB",
"%X c #FCF4B2",
"&X c #FFFBB3",
"*X c #FFFBBB",
"=X c #FFFCC4",
"-X c #FFFCCC",
";X c #FFFCD4",
":X c #FFFDDB",
">X c #FFFDE3",
",X c #FFFEEB",
"<X c #FFFEF4",
"1X c #FFFFFA",
/* pixels */
"                                                        .                                                                       ",
"                                            .     .   .     . .   . .   .   .                                                   ",
"                                          .     . . . . . . . . . . . .   . .       .                                           ",
"                                      . .   . . . . . . X . . . X . . . . . . . . .                                             ",
"                                  . .   . . . . . . X . X X X X X X . X X . . X . . .   .   .                                   ",
"                                  . . . . . X X X X X X X X X X X X X X X X . X X . . . . .                                     ",
"                        .   . . . . X . X X X X X o X o o o o o o o o o X X X X X X X . . . .     .                             ",
"                            . . . . X X X X X o o o o o o o o o o o o o o o o o X X X X X . . . .                               ",
"                        . . . X . X X X X o o o + o + o @ + + + @ @ o + + o o o o o X X X X . . . . .                           ",
"                    .   . . . X X X o o o o o + + + + + @ @ # @ # & # @ @ + + + o o o o X X X X . . .   .                       ",
"                    . . . X X X o o o o + + + + + $ % % & & = ; ; = = & & @ @ + + + o o o o X X X . . . .                       ",
"                . . . . . X X X o o o + + + $ $ $ % , & 6 6 7 : e : 7 ; = & % $ + + + + o o o X X X . . . .                     ",
"              . . . . X X X o o o + + + + $ $ > > , < 6 6 7 p p d a t e 7 ; & , $ $ + + + + o o X X X . . . .                   ",
"              . . . . X X o o o + + + $ $ $ > > , < 6 9 p f d %.n...g p t 7 6 , > $ $ + + + o o o X X X . . .                   ",
"          .   . . . X X o o o + + $ $ $ > > > > 2 5 9 K L ! / b.T.k.c j f u 9 < , > $ $ $ + + + o o X X . . . .                 ",
"            . . . X X X o o + + + $ > > > > 1 1 3 V u K ! ..&.U.).P.#.) ! f u 8 2 , > > $ $ + + + o o X X X . .   .             ",
"            . . X X X o o + + $ $ $ > > 1 1 m m B C H W ' @.x.)._._.l.+.( W K 9 5 2 > > > $ $ + + o o o X X . . .               ",
"      . . . . X X X o o o + + $ > > > 1 1 1 m m Z G T _ +.9.I.}.}.}.L.1.+._ P D B m 1 1 > > $ $ + + o o o X X . . .             ",
"          . . X X o o + + + $ > > > 1 1 m m m N A H ] =.,.v.{. X}. X{.c.*.O.Q K V B 1 1 1 > $ $ $ + + o o X X . . .             ",
"        . . . X X o o + + $ $ > > 1 1 m m m N A J E } >.t.W.@X@X@X@X@XG.e.:.` T G C B m 1 > > > $ $ + o o X X X . . .           ",
"        . . X X o o o + $ % , , 2 3 M N N Z A J E [ -.f.v.[.$X#X$X$X@X[.c.4.;.{ Y G C B 5 3 < < % @ + @ o o X X . . . .         ",
"    . . . . X o o o + + % % , 3 5 8 V C G J J E  .-.f.g.E.$X&X&X&X&X&X&XE.i.2.=.] T U F S 9 9 4 4 < # # # o o X X . .           ",
"      . . . X X o o + @ % < 4 9 y D H U R [ [  .-.<.g.N.OX*X*X*X*X*X*X&XOXc.t.2.-.} Q T L L i r 7 : = # # o X X X . . .         ",
"    . . . X X o o + @ % & 6 9 r f P Q ^ [  .-.>.6.g.j.R.*X=X=X=X-X=X=X=X*XR.j.r.4.:.+.' / ! W f t q : = # O O X X . . .         ",
"    . . . X X o o + @ & 4 7 r f I ~ ' =.;.<.6.g.h.h.N.XX=X-X-X-X-X;X-X-X=XOXN.d.s.e.3.*.$.X.b x d a q - * O O X X X . .         ",
"  . . . X X o o o + % & ; 7 p P ~ O.$.3.y.h.v.V.R.R..X-X-X;X;X:X:X;X;X;X-X=X.XR.F.B.c.a.9.1.#.n l s w 0 - # O o X . . . .       ",
"    . . . X o o + + % = 7 p ..k.z.C.G.W.~.'.+X#X&X*X=X;X;X:X:X:X>X:X:X:X;X-X-X=X*X#X+X'.~.I.H.C.z.q.c w - O O X X X . .   .     ",
".   . . X X X o + + % 4 e p ,.T.).).`.}. X@X$X&X*X=X-X;X:X>X>X,X>X,X,X>X:X;X;X=X*X&X&X@X X}.}.).T.T.%.w - * O O o X . . .       ",
"  . . . X X o o o + % 4 7 i W u./.).`.}. X@X$X&X=X=X;X:X:X>X,X,X<X,X,X,X>X:X;X-X*X&X#X@X X}.`.).Y.8.s w - * O o X X . . .       ",
"    . . X X o o + @ @ 4 7 i g / u.!.`.}. X$X&X&X=X-X;X:X>X,X<X<X<X<X<X,X>X:X;X-X=X*X&X$X@X X`.P.8.l s q - * O o o X X . .       ",
".   . X X X o o + + % < 6 u g ~ O.y.L. X@X$X$X*X=X-X;X:X>X,X<X1X1X1X<X,X,X:X;X-X=X*X&X$X X}.J.7.n l a q = # O o X X X . .       ",
"  . . . X X o o + $ % , 5 9 F W ( $.r.L. X@X&X*X=X-X;X:X,X,X<X1X1X1X<X<X>X>X;X;X=X*X&X#X|.G.9.#.b d w : = # o O o X . . . .     ",
"    . . X X o o + $ $ , < 9 S L ^ O.,.i.F.+X&X*X=X-X;X:X>X,X<X<X1X1X<X,X>X>X;X-X=X*X&X|.Z.0.*.n z f r = & @ o o X X X . . .     ",
". . . . X X o o + + $ , , 5 9 F T _ ;.4.s.D.+X&X=X=X;X:X>X,X,X<X<X<X,X,X>X:X;X-X=X*XoXB.p.1.o./ g r 7 = & @ + o o X . .         ",
"  . . . X X o o o + $ $ , 3 5 C F T } >.y.j.V.oX*X=X-X;X:X>X,X,X,X,X,X>X:X;X;X=X*X^.B.d.9.$.( I u 7 4 % + + o o X X . .   .     ",
"    . . . X o o + + $ > > 1 3 B A U ] =.5.s.j.F.&X=X-X;X;X:X:X>X>X>X>X:X:X;X-X=X#XZ.d.p.1.O.W p 9 4 < $ $ + o o X X X . .       ",
"    . . X X X o + + $ $ > > 1 M V G T | <.r.j.Q.&X*X=X-X;X;X:X:X:X:X:X;X;X-X=X*X&XW.d.r.*.' I u 8 < , $ + + o o X X . . .       ",
"  . . . . X X o o + $ $ > > 1 m V G Y } :.t.M.[.&X&X*X=X-X-X;X;X;X;X;X-X-X=X=X&X&X].m.0.$./ I u 5 , $ $ + + o o X . . .         ",
"      . . X X o o + + $ > > 1 3 M D Y ] :.e.D.@X@X&X&X*X*X=X-X-X-X-X-X=X=X*X&X&X$X@XZ.9.#./ P 9 4 , $ $ + + o X X X . . .       ",
"    . . . X X X o + + $ $ > > 3 V D P _ ;.r.!. X@X$X&X&X*X*X*X=X*X=X=X*X*X&X$X#X@X X!.0.#./ g 9 4 , $ + + o o X X . . .         ",
"    . . . . X o o o + $ $ $ > , 5 S P _ +.v.`. X X@X@X$X&X&X*X&X%X&X*X&X$X$X$X@X X}.}.x.X.v s r 4 % @ + + o o X X . .           ",
"      . . . X X o o o + $ $ , 2 8 u g ~ @.J.`.}.}. X@X@X@X+XQ.F.B.F.Q.oX#X@X@X|. X}.`.K.#.c s r 4 % $ + o o X X X . . .         ",
"        . . . X o o o + $ $ > , 6 u g ! w.(.).`.}.}.'.W.S.c.s.i.i.i.s.c.S.I.'.}.}.`._.(.8.l s q ; # + + o o X X . .             ",
"      . . . . X X o o + + + $ & 4 9 p ! n.).)./.L.b.a.e.4.3.<.,.,.,.2.3.7.9.a.B.K./.).).C.k a q = # + o o X X . . . .           ",
"          . . X X X o o + + $ & = 7 u c H.H.l.w.*.$.$.$.+.=.| } ` } ' O.+.@.#.#.&.7.l.A.H.c w - = # o o o X X X . .             ",
"          . . . X X X o o + + & & 7 e p / x x / ) ' ( _ ^ Q T Y Y T T Q ~ _ ( ( b b l l c a q - * O o o X X . . . .             ",
"          . . . X X X o o + + + & = : r t f g h I I P L H F D G D D D F K P I h j k s a w 0 - * O o o X X . . .                 ",
"              . . . X X o o + @ # & ; : 7 r u i i u u S V C B B M B B V 9 9 u r r r q q 0 - * O O O O X X X . .   .             ",
"              . . . X X X o o o + # & & = 7 7 6 9 5 5 5 3 3 3 1 1 1 2 2 3 4 4 4 7 : : = * * O O O O X X . . . .                 ",
"              . . . . X X o o o o # @ & & & & & , , , , 1 > 1 1 1 1 > > , , 2 % % & & # # O O O X X X . . . .                   ",
"                  . . . X X X o o o o + @ + @ $ $ > > > > > > > > > > > $ > $ $ $ + @ @ O o o X X X . . .   .                   ",
"                  . . . . X X X o o o + + + $ $ $ $ $ $ $ > $ $ $ $ $ $ $ $ $ + + + + o o o o X X X . . . .                     ",
"                      . . . X X X X o o o o + + + + + $ $ $ $ $ $ $ $ + + + + + + o o o o X X X . . .   .                       ",
"                    . . . . . . X X X o o o o + + + + + + + + + + + + + + + o + o o o X X X X . . . . .                         ",
"                    .     . . . . X X X X o o o o o o o o + o + + o + o o o o o o X X X X . . . . . .                           ",
"                            . . . . . X X X X X X o o o o o o o o o o o o o X X X X X X . . . . .                               ",
"                              . . . . . . X X X X X X X o X o X X o X X o X X X X . . . . . . .                                 ",
"                                  . . . . . . X X X X X X X X X X X X X X . X . . . . . .                                       ",
"                                  .   .   . . . . . . . . X . X . X . . X . . . . . . .   .                                     ",
"                                        .   .   . . . . . . . . . . . . . .   . .                                               ",
"                                          .       . . . . .   . . .   .   . .                                                   ",
"                                                          .   .     .                                                           ",
"                                                                                                                                ",
"                                                                                                                                "
};
