/* XPM */
static char *b3ed31dcdb8a443bc7ac5e98dc99d72bAs3Gp2ZtLFJI23L4[] = {
/* columns rows colors chars-per-pixel */
"32 32 2 1 ",
"  c #312473",
". c #FFED9F",
/* pixels */
"                                ",
"                                ",
"        ................        ",
"        ................        ",
"        ................        ",
"        ................        ",
"    ........        ........    ",
"    ........        ........    ",
"    ........        ........    ",
"    ........        ........    ",
"    ........        ........    ",
"    ........        ........    ",
"    ........        ........    ",
"    ........        ........    ",
"        ................        ",
"        ................        ",
"        ................        ",
"        ................        ",
"    ........        ........    ",
"    ........        ........    ",
"    ........        ........    ",
"    ........        ........    ",
"    ........        ........    ",
"    ........        ........    ",
"    ........        ........    ",
"    ........        ........    ",
"        ................        ",
"        ................        ",
"        ................        ",
"        ................        ",
"                                ",
"                                "
};
