/* XPM */
static char *exit_resized[] = {
/* columns rows colors chars-per-pixel */
"64 64 146 2 ",
"   c None",
".  c #71006F",
"X  c #750074",
"o  c #780077",
"O  c #75007A",
"+  c #7B007C",
"@  c #BF0034",
"#  c #CE050F",
"$  c #D30405",
"%  c #DA0706",
"&  c #D4040A",
"*  c #DF030C",
"=  c #D50B0C",
"-  c #DB0B0B",
";  c #CB0413",
":  c #CD0815",
">  c #C5031B",
",  c #CB031D",
"<  c #CF0C1D",
"1  c #D40614",
"2  c #DC0414",
"3  c #D50C12",
"4  c #DA0C12",
"5  c #D6041C",
"6  c #DC041C",
"7  c #D50A18",
"8  c #DE0A1B",
"9  c #D61314",
"0  c #DB1314",
"q  c #DB141B",
"w  c #DC1B1B",
"e  c #E20405",
"r  c #E90606",
"t  c #E10807",
"y  c #E1050B",
"u  c #E30C0D",
"i  c #E90B0B",
"p  c #E1100F",
"a  c #E10714",
"s  c #E50E14",
"d  c #E0051E",
"f  c #E30C1C",
"g  c #E31313",
"h  c #EA1313",
"j  c #E4141B",
"k  c #E9141D",
"l  c #E41B1C",
"z  c #E91C1C",
"x  c #EA201F",
"c  c #C50323",
"v  c #C4022A",
"b  c #C9072E",
"n  c #C9082E",
"m  c #D70225",
"M  c #DC0424",
"N  c #DF0B24",
"B  c #D5022C",
"V  c #DA032B",
"C  c #DF0829",
"Z  c #D41127",
"A  c #DF1722",
"S  c #DE1B23",
"D  c #D41228",
"F  c #C10030",
"G  c #CB0035",
"H  c #CD0831",
"J  c #C4003B",
"K  c #CD023D",
"L  c #D40332",
"P  c #D80330",
"I  c #D00139",
"U  c #DC1A32",
"Y  c #E00524",
"T  c #E20A24",
"R  c #E10628",
"E  c #E10C2C",
"W  c #E51522",
"Q  c #E81520",
"!  c #E51C23",
"~  c #EA1D23",
"^  c #E5132B",
"/  c #E8132A",
"(  c #E21D28",
")  c #EA1B2A",
"_  c #E21933",
"`  c #DD2424",
"'  c #DD2A2A",
"]  c #DD3131",
"[  c #DF3838",
"{  c #E42324",
"}  c #EA2324",
"|  c #E62429",
" . c #EC2629",
".. c #E42C2C",
"X. c #EB2C2C",
"o. c #F12F2F",
"O. c #E9302F",
"+. c #EA2F30",
"@. c #E53232",
"#. c #EB3334",
"$. c #EB3638",
"%. c #E53C3C",
"&. c #EB3C3C",
"*. c #F13535",
"=. c #F23C3C",
"-. c #E9403F",
";. c #BC0046",
":. c #BC014D",
">. c #B60057",
",. c #BB0053",
"<. c #B4005C",
"1. c #9C007C",
"2. c #AE0065",
"3. c #A6006E",
"4. c #AA006A",
"5. c #B00062",
"6. c #A20076",
"7. c #A00078",
"8. c #C50045",
"9. c #CA0141",
"0. c #C2004A",
"q. c #E74141",
"w. c #EB4242",
"e. c #E54949",
"r. c #ED4A4A",
"t. c #F24444",
"y. c #F54A4A",
"u. c #F75252",
"i. c #FA5454",
"p. c #760083",
"a. c #7B0083",
"s. c #7B008B",
"d. c #7B0093",
"f. c #7B009C",
"g. c #7B00A2",
"h. c #840084",
"j. c #890087",
"k. c #84008C",
"l. c #8B008B",
"z. c #940086",
"x. c #990081",
"c. c #92008A",
"v. c #810094",
"b. c #8B0094",
"n. c #83009B",
"m. c #8000A1",
/* pixels */
"                                                                    e.] 0 % % 0 ` %.                                            ",
"                                                                    ..{ w 0 0 w ..w.                                            ",
"                                                              O.h i u g l X.O.                                                  ",
"                        w.w.                                #.x p r i g X.w.                @.@.@.#.#.#.&.                      ",
"                        ....                              O.g u i h } $.      t.X.z p - % = = = 0 - 0 g l ..=.                  ",
"                      q.` `               w.e.          ..w 0 u h x *.&.$.@.....z p - t - - - - = - p 0 l ..&.                  ",
"                      %.` { w.          { ..w.      } p - - w ..&.=.O.x - = = = % - p h z } X.X.#.#.&.                          ",
"        &.&.          @...| &.      q...w ` w.  t.X.h - - u | @.$...x p - % = = 0 0 z } #.=.y.i.                                ",
"      &.@...        ] ' { ..@.w.    ` ` ` @.e.w. .g e e h !  .{ 0 = = % u l  .#.@.$.=.=.w.r.                                    ",
"      &.....        ` w l { @.w.r.@.0 9 ..w.&.| g - t s l } ~ j = & = 4 j ~ X.#.#.#.#.X...@.@.@.$.#.$.                          ",
"      @.l w         w p - 0 @.w.%.' 9 9 @.*.~ s * - j ! W f 8 8 f k W ( A q 9 0 4 - - = = = % - u g p g g 0 ` ..                ",
"      @.l w         g - % 0 O.&.' ` 9 q ..X.j * * a W / T 6 5 N M E _ U Z < : # & & $ $ $ $ $ $ % % - - % p w ` @.%.&.          ",
"      @.0 p         g t % 0 @.#.w 9 w ` ( k 2 2 6 T C V V V L P L L H n v c > > ; ; ; 3 = = = = = - = % % - l ` { l ` ..w.      ",
"      @.0 0 $.    @.g - % 0 O.O.9 9 S { W f 6 M V V V B L I K 9.K J @ @ @ v v c > , 1 8 7 9 9 9 0 0 0 0 0 g x { { { ` ..w.      ",
"      #.0 - $.    $.g % = 0 ....9 3 ! ) T M M B L I K 9.8.0.0.:.:.:.;.;.J J K G B M M d 8 f j l }  .O.O.@...@.@.%.&.            ",
"      #.0 = #.    $.0 % = 0 } } 7 3 ! / C V L K 9.0.0.,.>.<.<.<.<.5.<.>.,.:.8.9.G P V M d f g k x ....@.w.w.w.r.                ",
"      @.= = #.    @.p % $ 9 ! l 7 1 N E L I 9.0.,.>.<.5.4.4.3.3.3.3.3.4.5.<.>.,.0.K I V M 6 2 7 = 3 3 w ' -.                    ",
"      @.= % X.y.  @.= = = 9 l W 8 6 C L K 8.0.>.5.4.3.6.7.7.1.1.1.1.7.7.6.3.4.<.>.,.8.I P M 5 1 3 = = 3 ` '                     ",
"        % -  .-.r.@.= $ = 9 q j M M L K 0.,.5.4.3.6.1.x.c.c.c.c.c.c.c.x.x.1.7.6.4.<.,.0.K L C N W W w q 9 9 ' %.                ",
"        % - z *.w.@.3 $ 9 7 8 T C B K 0.,.5.4.6.1.x.z.j.c.l.l.b.b.b.b.b.c.c.x.1.6.4.<.>.0.K P ^ / ) { w w q ` @.                ",
"        - - h  .=.+.- $ 3 7 N Y P I 0.,.5.3.6.x.c.c.l.j.h.h.k.k.n.n.n.b.b.b.b.z.x.6.3.5.,.0.K P R T W ~ X.+.@.&.r.              ",
"        p - p z =.#.4 $ ; 1 M V I 8.,.5.3.7.x.z.l.l.j.h.1.+ h.s.n.g.f.n.v.k.l.l.z.x.7.3.5.,.8.I m Y f k  .$.-.w.r.              ",
"-.      z p - 0 &.#.4 & # , m L 9.,.<.3.6.x.c.l.j.h.h.p.. O p.d.m.f.d.s.a.a.p.p.l.c.x.6.4.<.0.9.L V 6 a s ~ $.                  ",
"..#.    X.l = 0 @.#.4 & ; , B I 0.>.2.6.x.z.l.k.h.a.a.p.. p.d.f.d.d.a.a.o X o 1.k.l.c.x.6.4.<.0.I m 6 2 y s  .w.                ",
"h z     t...= = @.$.0 # > c H 9.0.5.3.1.c.l.h.1.p.a.+ + + s.f.f.s.O O O X o o + a.h.l.c.1.3.5.:.9.L M 6 * y g } t.              ",
"u z *.    O.$ =  .O.q ; > v J 8.<.4.7.x.c.l.+ + O p.+ a.a.d.f.d.O . X X X o o + O p.l.l.x.6.4.>.0.I V T a y t h X.              ",
"p z X.t.  @.= % l { q < c v J :.5.3.1.c.b.v.a.o + o o a.s.d.s.O X . . . X X X o + 1.h.j.z.1.3.5.0.9.V R W j t t g x             ",
"z z x X.  $.p - g l S D c @ 8.,.5.6.x.c.b.v.a.o o o X O d.f.s.a.O O O p.p.a.O o X + h.j.c.x.6.5.,.9.L V / Q u t t g             ",
"#. .h z *.&.} 0 % 4 ( U H @ ;.>.2.7.z.b.b.n.s.+ + X X p.f.g.g.d.a.p.d.f.d.d.a.p.X X a.h.c.z.6.4.>.9.I V T k k h t - ..          ",
"  X.i i } *.O.l & = ! U H @ ;.<.3.7.c.b.n.n.d.s.O X . O d.g.g.d.a.a.g.g.d.d.d.s.O O + h.l.c.7.4.<.0.I m d f ~ z - - l O.        ",
"    i r i x =.X.= & T ^ L J :.<.3.1.c.b.n.m.f.d.O . X O p.s.s.a.a.s.g.g.s.s.f.f.d.s.s.h.l.c.1.3.5.0.9.P 5 d ~ } | l 0 h #.      ",
"    h i r h *.#.0 3 f T L 9.:.5.3.1.c.b.n.f.n.d.s.O X O p.s.a.+ + a.d.d.a.p.d.f.f.d.k.k.b.c.1.3.5.0.9.P 5 6 j } X...u u x *.    ",
"    O.x u u | ..{ j 2 M P 9.0.5.6.1.c.l.k.v.d.d.f.d.O p.d.d.a.+ + a.a.p.o X O p.d.g.n.n.b.c.1.3.5.:.J L R a 4 9 $.$.h i i h     ",
"      #.g p g {  .~ 8 5 P 9.0.<.3.1.c.l.h.a.a.d.f.f.s.s.g.g.s.a.a.s.s.p.O . . O d.g.m.m.b.z.1.3.<.:.J H / f & = X.*.z h r i     ",
"        | g t u ~ ~ k M C K 0.<.4.1.z.l.h.+ o O s.s.d.f.g.g.s.s.d.g.g.d.p.. . O a.d.n.n.b.z.7.4.<.:.J n _ W & = l X.*.} t i X.  ",
"        &.x - e g z k T C I 9.>.4.6.z.l.j.a.o X O s.s.d.f.d.a.p.d.g.g.g.p.X . O a.s.v.n.b.z.7.4.>.;.F n U ( - % g ! =.*.h h X.#.",
"          X.u t e u Q / C L 9.>.5.6.x.c.j.h.+ o a.a.+ O O O O O p.s.f.d.p.X X o o a.v.b.c.x.3.5.,.J @ c D S j p % p &.  o.} z z ",
"            z t e e j W C P K 0.<.3.1.z.j.k.h.h.a.o o o X X X X a.s.d.s.O X o o X + v.b.c.x.3.5.0.J v c < q } g % = @.  t.X.z p ",
"            *.} t e y 2 T V I 0.<.2.6.x.c.l.h.+ a.a.O o o X . O d.d.d.a.O X o o o h.b.c.x.7.3.>.0.K v > : q X. .= = ..    $.z i ",
"              $.l y y y d V L 9.,.5.6.1.z.l.l.h.h.+ + o O O O s.f.g.s.+ o o + + h.h.l.x.x.3.5.,.9.G c > # 4 #.#.= $  .t.    x h ",
"              y.$.{ u y 2 5 m I 8.>.2.6.x.c.c.k.a.o o o + s.d.d.d.d.p.X O O O h.h.l.c.1.6.5.>.0.G B > ; & 4 #.#.0 = g o.    #.X.",
"          r.w.q.w.#.z s a 6 V L 9.0.<.4.7.x.c.l.h.a.a.a.s.d.g.g.d.s.O X O 1.a.k.l.c.x.1.3.<.0.9.L m , # $ - $.$.g - p z       &.",
"          w.{ ` @.&.*.} k f Y m K 8.,.5.4.1.x.c.c.l.v.v.v.n.g.n.k.a.+ + + h.l.c.c.1.6.3.<.,.8.I V Y 1 ; $ 4 #.=.z p - p         ",
"            ` ` ` ......~ W T R P K 0.>.2.3.6.1.z.c.b.b.b.n.m.b.k.h.h.h.j.j.l.c.1.1.4.2.>.0.K V Y d 7 3 $ - O.=.} h t -         ",
"              ..w 9 w w ` | ) ^ E P K 0.,.2.4.6.1.x.c.b.b.l.b.v.b.l.l.l.j.z.x.1.6.4.5.,.0.G L Y d 8 7 = $ = @.w.O.z - -         ",
"                ` q 9 9 w S { W A V L K 8.,.<.2.3.7.7.x.z.c.c.j.c.l.z.z.x.1.7.6.4.<.,.0.K L M d d s 7 = $ = @.r.=.} - % #.      ",
"                  @.` ` 9 3 3 7 1 M M P K 9.:.<.5.3.3.6.6.1.1.1.1.1.1.1.6.3.4.5.<.,.8.K L M 6 2 j l 9 = $ - @.  y.X.- = @.      ",
"                    %...q 9 9 3 7 6 f V P I 9.0.0.>.<.5.4.4.3.3.3.3.4.2.5.<.>.0.0.K I V E R 1 1 j l = = % - #.  i.X.= % @.      ",
"                    r.&.#.....} l j W T R V L G 9.8.0.,.>.<.<.5.5.<.<.>.,.0.0.9.I V R R E W = 3 ! } 0 = % 0 $.    #.% - O.      ",
"q.q.q.q.          r.t.&.#.O. .} ! j q 8 6 M m B G K J 8.;.;.:.:.0.0.0.8.9.I I L B M Y T ) W = 9 |  .0 = - g $.    #.- - X.      ",
"&.&.@.{ w ` ' [ %.&.X.| w 0 0 w 9 9 9 9 8 < , > c v v @ J J J K 9.9.I L L P V M 6 6 f W ~ w = = ..O.0 - - g       #.- - X.      ",
"w.%.O...` ` ' ] @.@.{ w p = - = = = 3 3 = # # ; > > c c n H H L L C V V V R Y d a a k ~ l q 9 w @.@.w - p z       $.u u X.      ",
"        &.%.%.[ ] ` ` g p - - % = $ $ $ $ $ $ $ # : < D U _ ^ R N 5 N Y / W a y y s  . .w 9 w ..-.-.x w 0 0         u g X.      ",
"                ] ` w w l l g 0 - = = = = - 4 0 9 q q S ( ! f a 8 8 f k k f e e y z o.X.q 9 ' w.y.-.O.{ l w         h h O.      ",
"                            &.#.@.@.@.@.#.#.#.$.$.X.~ l 4 = & 1 k ~ z k i e t t ( #.&.#.` '       r.$.O.` `         } } =.      ",
"                                    r.t.=.=.$.@.#. .g p % = = q ~  .z i e e i l #.r.q.%.@.%.        &...] ]         o.*.        ",
"                                  y.=.O. .z g 0 = = % - p z X.#.X.l u % e i x $.    r.w.            ] ' %.            r.        ",
"                          $.#.#.O.X. .z h p - % = $ = 0 } o.=.o.| g u - t h *.                      ' ' %.                      ",
"                  -. .l 0 - 0 = = % - - - t p l { O.#.$.&.o.x h u u g x X.                          ` ` q.                      ",
"                  -.X.z g p 0 = % = - - - p z X.t.u.  t.*.x i r t h { #.                            ' ..                        ",
"                      &.$.#.$.@.@.@.              u.-. .h r r i z #.                                w.w.                        ",
"                                                -.*. .x h t i h o.                                                              ",
"                                            -.O.x h h x  .X.                                                                    ",
"                                            &...p i p z #.                                                                      "
};
