/* XPM */
static char *b7f32d5bf15a43b7ecddca8a2151bcaaTI8sqivKp8IGSyXD[] = {
/* columns rows colors chars-per-pixel */
"32 32 2 1 ",
"  c #312473",
". c #FFED9F",
/* pixels */
"                                ",
"                                ",
"    ........................    ",
"    ........................    ",
"    ........................    ",
"    ........................    ",
"    ........                    ",
"    ........                    ",
"    ........                    ",
"    ........                    ",
"    ....................        ",
"    ....................        ",
"    ....................        ",
"    ....................        ",
"                    ........    ",
"                    ........    ",
"                    ........    ",
"                    ........    ",
"                    ........    ",
"                    ........    ",
"                    ........    ",
"                    ........    ",
"    ........        ........    ",
"    ........        ........    ",
"    ........        ........    ",
"    ........        ........    ",
"        ................        ",
"        ................        ",
"        ................        ",
"        ................        ",
"                                ",
"                                "
};
