/* XPM */
static char *empty_resized[] = {
/* columns rows colors chars-per-pixel */
"64 64 59 1 ",
"  c #090123",
". c #0A0123",
"X c #0B0024",
"o c #0A0124",
"O c #0B0124",
"+ c #0B0125",
"@ c #0B0225",
"# c #0C0125",
"$ c #0C0026",
"% c #0C0126",
"& c #0D0126",
"* c #0D0127",
"= c #0E0127",
"- c #0E0227",
"; c #0E0128",
": c #0E0228",
"> c #0F0228",
", c #0F0229",
"< c #0E0528",
"1 c #100129",
"2 c #100229",
"3 c #100329",
"4 c #10012A",
"5 c #11012A",
"6 c #10022A",
"7 c #11022A",
"8 c #10032A",
"9 c #11022B",
"0 c #11032B",
"q c #12022B",
"w c #12042B",
"e c #12052B",
"r c #12062B",
"t c #12022C",
"y c #13022C",
"u c #12032C",
"i c #13032C",
"p c #13022D",
"a c #13032D",
"s c #14022D",
"d c #14032D",
"f c #14032E",
"g c #15032E",
"h c #15032F",
"j c #16032F",
"k c #13042C",
"l c #13042D",
"z c #13072C",
"x c #13062D",
"c c #14042D",
"v c #14062D",
"b c #16042F",
"n c #14062E",
"m c #160330",
"M c #170330",
"N c #170530",
"B c #180331",
"V c #190332",
"C c #180930",
/* pixels */
"gfgddsin12,22:>===&=829qqpfp5qqsgfgddsin12,22:>===&=829qqpfp5qqp",
"hfpytyy972,,:*=&%*%&;29qyyspviydgfpytyy972,,:*=&%*%&;29qyyspviyd",
"pyqtqysyt6,,===#o##%-,9tdiqyutqtpyqtqysyt6,,===#o##%-,9tdiqyuqqt",
"7779qpsfs9,>;=%. @#*>69yt9qst9767779qpsfs9,>;=%. O#*>69yt9qst976",
"qt77typggy67>&+. <&->7qtq7yplx19qt77typggy67>&+. @&;>7qtq7yplx19",
"t969qqpghsq7,&*%oO;>;7qq9qtyy966t969qqpghsq7,&*%o+;>;7qq9qtyy966",
"766qqqyghdyt7-&%#+&,,7tp9qqtptt7766qqqyghdyt7-&%#+&,,7tp9qqtptt7",
"qtyypypggpss9:%%X##;,qspt9qqpfyqqtyypypggpss9:%%X##;,qspt9qqpfyq",
"fsyyt99ttyytq,&&z%&:29t779ypypppfsyyt99ttyytq,&&z%&:29t779ypypps",
"ggy976679ppyy92:r&=-6ty729q9qypsggy976679ppyy92:r&=-6ty729q9qyps",
"hgsqq779ysdgpq7>$&*=7pq626q9tttsghsqq779ysdgpq7>$&*=7pq626q9ttts",
"ghdq979qyydhdq76>::=2tq2,6q97qtfghdq979qyydhdq76>::=2tq2,6q97qtd",
"ggsu06qqqtshfyy7779,6qq22,:,37ysggsu06qqqtshfyy7779,6qq22,:,37ys",
"tytlk6qqttdhffftqqtqtqt7,>=*:79qtytlk6qqttdhffftqqtqtqt7,>=*:79q",
"67ptq96ypysgdfhfdppypdpt72>->7yq67ptq96ypysgdfhfdppypdpt72>->7yq",
"q9taaqqtqqqqygMMmjhgdgdyq7,*,7tqq9taaqqtqqqqygMMmjhgdgdyq7,*,7tq",
"tqqyq9qytyttpMBBVBBMjjfgdy9>29yytqqyq9qytyttpMBBVBBMjjfgdy9>29yy",
"9997q9qstqpsgmMmMBBVVBMmhsq79qq99997q9qstqpsgmMmMBBVVBMmhsq79qq9",
",67,69tyyqqpgfghhhjMVVBMmdqqq76,,67,69tyyqqpgfghhhjMVVBMmdqqq76,",
",6622qqtpytpffsffsddhjjhgdq97226,6622qqtpytpffsffsddhjjhgdq97226",
"797269qpsyypsqpdytttpdssdfiw6667797269qpsyypsqpdytttpdssdfiw6667",
"qyy97qpsfdq997tytqq9qtqssyal9969tyy97qpsfdq997tytqq9qtqssyal9969",
"sdy99qypggs9799qypy99q9ttyy5qyqysdy99qypggs9799qypy99q9ttyy5qyqy",
"jfdt7qqyfhsq9qqtssfy979tyypytsdhjfdt7qqyfhsq9qqtssfy979tyypytsdh",
"BMhpyqtyghfyqqyyyphstq9yddgggjjBVMhpyqtyghfyqqyyyphstq9yddgggjjB",
"VBmdttyyffpqqyyqqpghptqyyfjjMNMVVBmdttyyffpqqyyqqpghptqyyfjjMNMV",
"mjhy97979q99yyqqqyghdyyypfhMBjhjmjhy97979q99yyqqqyghdyyypfhMBjhj",
"ffst6766777qtq97qyfgppyypdhghjgdffst6766777qtq97qyfgppyypdhghjgd",
"dypt996269qq777626qt99yqtdhgfgffdypt996269qq777626qt99yqtdhgfgff",
"gddspy6229tyq9292>67q99qtfhgffdggddspy6229tyq9292>67q99qtfhgffdg",
"hjjdfgq227qtct67,>27qt9tpggfgdyfhjjdfgq227qtct67,>27qt9tpggfgdyd",
"gbmgdgy02229q62>:*=69q9ttdfystydgbmgdgy02229q62>:*=69q9ttdfydtyd",
"gfgfdsin12,2,:>==*&=829qqpgp5qqsgfgfdsin12,2,:>==*&=829qqpfp4qqp",
"hfpytyy9722,:**&%*%&;29qyyspviydhfpytyy9722,:**&%*%&;29qyysyCcyd",
"pyqtqysyt6,,===#o##%-,9tdityutqtpyqtqysyt6,,===#o##%-,9tdittctqt",
"7779qpsfs9,>;=%. O#*>69yt9qst9767779qpsfs9,>;=%. O#*>69yt9qsq976",
"qt77typggy67>&+. @&;>7qtq7yplx19qt77typggy67>&+. @&;>7qtq7yplx19",
"t969qqpghsq7,&*%o+;>;7qq9qtyy966t969qqpghsq7,&*%o+;>;7qq9qtyy966",
"766qqqyghdyt7-&%#+&,,7tp9qqtptt7766qqqyghdyt7-&%#+&,,7tp9qqtptt7",
"qtyypypggpss9:%%X##;,qspt9qqpfyqqtyypypggpss9:%%X##;,qspt9qqpfyq",
"fsyyt99ttyytq,&*z%&:29t779ypypppfsyyt99ttyytq,&&z%&:29t779ypypps",
"ggy976679ppyy92:e&=-6ty729q9qypsggy976679ppyy92:e&=-6ty729q9qyps",
"hgsqq779ysdgpq7>$&*=7pq626q9tttsghsqq779ysdgpq7>$&*=7pq626q9ttts",
"ghdq979qyydhdq76>::=2tq2,6q97qtfghdq979qyydhdq76>::=2tq2,6q97qtd",
"ggsu06qqqtshfyy7779,6qq22,:,37ysggsu06qqqtshfyy7779,6qq22,:,37ys",
"tytlk6qqttdhffftqqtqtqt7,>=*:79qtytlk6qqttdhffftqqtqtqt7,>=*:79q",
"67ptq96ypysgdfhfdppypdpt72>->7yq67ptq96ypysgdfhfdppypdpt72>->7yq",
"q9taaqqtqqqqygMMmjhgdgdyq7,*,7tqq9taaqqtqqqqygMMmjhgdgdyq7,*,7tq",
"tqqyq9qytyttpMBBVBBMjjfgdy9>29yytqqyq9qytyttpMBBVBBMjjfgdy9>29yy",
"9997q9qstqpsgmMmMBBVVBMmhsq79qq99997q9qstqpsgmMmMBBVVBMmhsq79qq9",
",67,69tyyqqpgfghhhjMVVBMmdqqq76,,67,69tyyqqpgfghhhjMVVBMmdqqq76,",
",6622qqtpytpffsffsddhjjhgdq97226,6622qqtpytpffsffsddhjjhgdq97226",
"797269qpsyypsqpdytttpdssdfiw6667797269qpsyypsqpdytttpdssdfiw6667",
"qyy97qpsfdq997tytqq9qtqssyal9969tyy97qpsfdq997tytqq9qtqssyal9969",
"sdy99qypggs9799qypy99q9ttyy5qyqysdy99qypggs9799qypy99q9ttyy5qyqy",
"jfdt7qqyfhsq9qqtssfy979tyypytsdhjfdt7qqyfhsq9qqtssfy979tyypytsdh",
"BMhpyqtyghfyqqyyyphstq9yddgggjjBVMhpyqtyghfyqqyyyphstq9yddgggjjB",
"VBmdttyyffpqqyyqqpghptqyyfjjMNMVVBmdttyyffpqqyyqqpghptqyyfjjMNMV",
"mjhy97979q99yyqqqyghdyyypfhMBjhjmjhy97979q99yyqqqyghdyyypfhMBjhj",
"ffst6766777qtq97qyfgppyypdhghjgdffst6766777qtq97qyfgppyypdhghjgd",
"dypt996269qq777626qt99yqtdhgfgffdypt996269qq777626qt99yqtdhgfgff",
"gddppy6229tyq9292>67q99qtfhgffdggsdppy6229tyq9292>67q99qtfhgffdg",
"hjjdfgq227qtct66,>,7qt9tpggfgdyfhjjdfgq227qtct66,>,7qt9tpggfgdyd",
"gbmgdgy72229q62>:*-69q9ttdfpstydgbmgdgy72229q62>:*-69q9ttdfpstyd"
};
