/* XPM */
static char *cd0e1a394bb04ef2beda0463da0f502c4m20gcQePeOjmGVs[] = {
/* columns rows colors chars-per-pixel */
"32 32 2 1 ",
"  c #312473",
". c #FFED9F",
/* pixels */
"                                ",
"                                ",
"    ........        ........    ",
"    ........        ........    ",
"    ........        ........    ",
"    ........        ........    ",
"    ........        ........    ",
"    ........        ........    ",
"    ........        ........    ",
"    ........        ........    ",
"    ........        ........    ",
"    ........        ........    ",
"    ........        ........    ",
"    ........        ........    ",
"    ........        ........    ",
"    ........        ........    ",
"    ........        ........    ",
"    ........        ........    ",
"        ....................    ",
"        ....................    ",
"        ....................    ",
"        ....................    ",
"                    ........    ",
"                    ........    ",
"                    ........    ",
"                    ........    ",
"                    ........    ",
"                    ........    ",
"                    ........    ",
"                    ........    ",
"                                ",
"                                "
};
