/* XPM */
static char *_33e71143d33494bb40776e12697c730TFm6TsATSPjJFEs9[] = {
/* columns rows colors chars-per-pixel */
"32 32 2 1 ",
"  c #312473",
". c #FFED9F",
/* pixels */
"                                ",
"                                ",
"      ....................      ",
"      ....................      ",
"      ....................      ",
"      ....................      ",
"      ....                      ",
"      ....                      ",
"      ....                      ",
"      ....                      ",
"      ....                      ",
"      ....                      ",
"      ....                      ",
"      ....                      ",
"      ..................        ",
"      ..................        ",
"      ..................        ",
"      ..................        ",
"      ....                      ",
"      ....                      ",
"      ....                      ",
"      ....                      ",
"      ....                      ",
"      ....                      ",
"      ....                      ",
"      ....                      ",
"      ....................      ",
"      ....................      ",
"      ....................      ",
"      ....................      ",
"                                ",
"                                "
};
