/* XPM */
static char *result[] = {
/* columns rows colors chars-per-pixel */
"32 32 2 1 ",
"  c #312473",
". c #FFED9F",
/* pixels */
"                                ",
"                                ",
"      ....            ....      ",
"      ....            ....      ",
"      ....            ....      ",
"      ....            ....      ",
"      ....            ....      ",
"      ....            ....      ",
"      ....            ....      ",
"      ....            ....      ",
"      ....            ....      ",
"      ....            ....      ",
"      ......        ......      ",
"      ......        ......      ",
"        ................        ",
"        ................        ",
"          ............          ",
"          ............          ",
"              ....              ",
"              ....              ",
"              ....              ",
"              ....              ",
"              ....              ",
"              ....              ",
"              ....              ",
"              ....              ",
"              ....              ",
"              ....              ",
"              ....              ",
"              ....              ",
"                                ",
"                                "
};
