/* XPM */
static char *_8a8614d697a4f9de745f58db9dd44e5P7J0GpBrW197cSmx[] = {
/* columns rows colors chars-per-pixel */
"32 32 2 1 ",
"  c #312473",
". c #FFED9F",
/* pixels */
"                                ",
"                                ",
"      ....            ....      ",
"      ....            ....      ",
"      ......        ......      ",
"      ......        ......      ",
"      ........    ........      ",
"      ........    ........      ",
"      ....................      ",
"      ....................      ",
"      ....  ........  ....      ",
"      ....  ........  ....      ",
"      ....    ....    ....      ",
"      ....    ....    ....      ",
"      ....    ....    ....      ",
"      ....    ....    ....      ",
"      ....            ....      ",
"      ....            ....      ",
"      ....            ....      ",
"      ....            ....      ",
"      ....            ....      ",
"      ....            ....      ",
"      ....            ....      ",
"      ....            ....      ",
"      ....            ....      ",
"      ....            ....      ",
"      ....            ....      ",
"      ....            ....      ",
"      ....            ....      ",
"      ....            ....      ",
"                                ",
"                                "
};
