/* XPM */
static char *_b11dba0550c4e12d699e8b5f01cd41aqkKU6dAJEPp9Gnx1[] = {
/* columns rows colors chars-per-pixel */
"32 32 2 1 ",
"  c #312473",
". c #FFED9F",
/* pixels */
"                                ",
"                                ",
"              ....              ",
"              ....              ",
"              ....              ",
"              ....              ",
"              ....              ",
"              ....              ",
"              ....              ",
"              ....              ",
"              ....              ",
"              ....              ",
"              ....              ",
"              ....              ",
"              ....              ",
"              ....              ",
"              ....              ",
"              ....              ",
"              ....              ",
"              ....              ",
"              ....              ",
"              ....              ",
"              ....              ",
"              ....              ",
"              ....              ",
"              ....              ",
"              ....              ",
"              ....              ",
"              ....              ",
"              ....              ",
"                                ",
"                                "
};
