/* XPM */
static char *ship_resized[] = {
/* columns rows colors chars-per-pixel */
"64 64 182 2 ",
"   c None",
".  c #302B16",
"X  c #332E19",
"o  c #3D2C19",
"O  c #36311C",
"+  c #39331F",
"@  c #2C2711",
"#  c #2E3823",
"$  c #323621",
"%  c #3A3521",
"&  c #3D3926",
"*  c #3E3A29",
"=  c #69180B",
"-  c #731409",
";  c #751409",
":  c #7A1C11",
">  c #4C2C1B",
",  c #522B1A",
"<  c #592516",
"1  c #43301E",
"2  c #4C301F",
"3  c #54301F",
"4  c #652315",
"5  c #6A2417",
"6  c #732318",
"7  c #423E2C",
"8  c #453624",
"9  c #45402F",
"0  c #454132",
"q  c #484536",
"w  c #4C493A",
"e  c #494639",
"r  c #524E3F",
"t  c #7C4137",
"y  c #4E4B40",
"u  c #514E43",
"i  c #4F5149",
"p  c #555245",
"a  c #5A5545",
"s  c #54524A",
"d  c #5E5B4D",
"f  c #585549",
"g  c #5B5C55",
"h  c #5F5E5C",
"j  c #595752",
"k  c #615F4F",
"l  c #675E53",
"z  c #77554A",
"x  c #636155",
"c  c #65635A",
"v  c #68655D",
"b  c #7F6359",
"n  c #666562",
"m  c #6C6B62",
"M  c #726F62",
"N  c #716F68",
"B  c #737165",
"V  c #75746D",
"C  c #747373",
"Z  c #7C7B78",
"A  c #9A0D07",
"S  c #84150C",
"D  c #8B150D",
"F  c #80180F",
"G  c #94110B",
"H  c #9B110B",
"J  c #881A13",
"K  c #AC0905",
"L  c #A70905",
"P  c #BC0302",
"I  c #B50604",
"U  c #99241E",
"Y  c #942624",
"T  c #B23D39",
"R  c #C40101",
"E  c #CA0101",
"W  c #C30A0A",
"Q  c #D40000",
"!  c #DC0000",
"~  c #C91718",
"^  c #E40000",
"/  c #EB0000",
"(  c #E60B0B",
")  c #F30000",
"_  c #FE0000",
"`  c #E01919",
"'  c #D12A2A",
"]  c #807F7C",
"[  c #807E74",
"{  c #82776D",
"}  c #D64747",
"|  c #D65858",
" . c #D96363",
".. c #DD7171",
"X. c #E27E7E",
"o. c #7E857A",
"O. c #838177",
"+. c #83817C",
"@. c #8B887F",
"#. c #98897F",
"$. c #0077AD",
"%. c #0079AF",
"&. c #007BB2",
"*. c #007EB8",
"=. c #4E7A8E",
"-. c #567B87",
";. c #0082BD",
":. c #268AB9",
">. c #79878D",
",. c #008CCC",
"<. c #008FD4",
"1. c #0193D7",
"2. c #0096DB",
"3. c #0099DF",
"4. c #159FDF",
"5. c #019BE3",
"6. c #00A0EC",
"7. c #00A5F7",
"8. c #03ACF9",
"9. c #08B1FF",
"0. c #1EB9FF",
"q. c #11A4E7",
"w. c #31ADE5",
"e. c #25BAFF",
"r. c #2ABCFF",
"t. c #3DBEFA",
"y. c #4F9EC3",
"u. c #50A9D2",
"i. c #56C8FC",
"p. c #66CFFF",
"a. c #76D6FF",
"s. c #8C8C8C",
"d. c #878986",
"f. c #908E86",
"g. c #8D9186",
"h. c #96948C",
"j. c #9A978D",
"k. c #8F9090",
"l. c #9F9E98",
"z. c #959692",
"x. c #A09F99",
"c. c #A3A29D",
"v. c #B8A09A",
"b. c #AEADA9",
"n. c #ABA9A3",
"m. c #B0AFAB",
"M. c #B5B3AE",
"N. c #B8B6AF",
"B. c #BAB9B4",
"V. c #BEBDB9",
"C. c #B5B6B1",
"Z. c #E59393",
"A. c #EBAAAA",
"S. c #C1C2BC",
"D. c #91CEEB",
"F. c #85D8FF",
"G. c #A5E2FF",
"H. c #BBE3F5",
"J. c #C6C6C5",
"K. c #CCCCCA",
"L. c #C2CCC5",
"P. c #D1D1CF",
"I. c #D3D2D2",
"U. c #DBDBDB",
"Y. c #D9D8D6",
"T. c #F0C1C1",
"R. c #F6DBDB",
"E. c #C4EDFF",
"W. c #DBF4FF",
"Q. c #E4E3E3",
"!. c #EBEBEB",
"~. c #E8E7E7",
"^. c #F9E5E5",
"/. c #F7EAEA",
"(. c #EFEFF1",
"). c #ECF9FE",
"_. c #E9F5F8",
"`. c #F4F4F4",
"'. c #F9F8F7",
"]. c #F4FBFF",
"[. c #FEFEFE",
"{. c #F8F7F7",
/* pixels */
"                                                            X X O X                                                             ",
"                                                            p a a p                                                             ",
"                                                          r h.l.x.h.r                                                           ",
"                                                        q M K.U.U.K.M q                                                         ",
"                                                      + B b.!.`.`.!.M.B +                                                       ",
"                                                      % O.U.[.[.[.'.U.O.+                                                       ",
"                                                      O O.U.[.[.[.[.U.+.+                                                       ",
"                                                      + O.U.[.[.[.'.U.O.O                                                       ",
"                                                      + O.U.[.[.[.'.U.O.+                                                       ",
"                                                      + O.U.'.[.[.[.U.O.+                                                       ",
"                                                      X Z Y.'.[.[.'.Y.Z X                                                       ",
"                                                      9 f.U.[.[.[.[.U.f.9                                                       ",
"                                                    q O.V.!.[.[.[.[.(.V.Z q                                                     ",
"                                                    w b.!.[.[.].].[.[.~.b.w                                                     ",
"                                                    w M.(.[.[.G.G.[.[.`.M.w                                                     ",
"                                                    w M.!.[.).i.i.).[.!.M.w                                                     ",
"                                                    q m./.).F.0.0.F.)./.b.q                                                     ",
"                                                    r M.(.H.e.8.8.e.E.!.M.r                                                     ",
"                                                  d @.P.H.p.9.6.5.9.p.H.P.@.d                                                   ",
"                                                X M J.(.F.9.8.,.,.8.9.F.`.J.M X                                                 ",
"                                                X B Y.[.a.7.3.;.;.2.7.a.[.Y.M X                                                 ",
"                                                X B I.'.a.6.;.&.&.,.5.a.{.I.M X                                                 ",
"                                                X B I.'.a.6.*.&.&.&.7.a.'.I.B X                                                 ",
"                                                X M I.'.a.6.&.%.&.;.5.a.'.I.M O                                                 ",
"                                                . M P.{.a.6.&.%.%.&.6.a.'.P.M .                                                 ",
"      %                                         X B I.{.a.6.;.%.&.*.6.a.'.I.M X                                         %       ",
"    7 0 7                                       k h.Q.'.a.6.*.%.&.&.6.a.'.Q.h.k                                       7 0 7     ",
"    7 j e O                                   7 f.P.{.[.a.6.*.%.%.*.6.a.[.{.P.f.7                                   O 0 j 0     ",
"  O 0 h e O                                   7 c.!.[.[.a.6.*.%.&.*.5.a.[.[.!.c.7                                   O e h 0 O   ",
"  O 0 h e O                                   7 x.~.[.[.a.6.*.%.%.*.6.a.[.[.~.c.7                                   O e h 0 O   ",
"  O 0 h e O                                   7 x.~.].E.i.2.&.%.&.*.1.i.E.].~.l.7                                   O 0 h 0 O   ",
"  O 0 h 0 O                                   7 l.~._.i.4.;.&.&.%.&.,.4.i._.~.l.7                                   O e h 0 O   ",
"  O 7 h e O                                   x M./.W.e.<.%.&.&.&.&.%.<.e.W./.M.x                                   O e h 0 O   ",
"  O 0 h e O                                 d c.U.[.W.e.<.%.%.%.&.%.%.<.e.W.[.U.c.d                                 O q h 0 O   ",
"  O 0 h q O                               X k K.`.[.W.r.<.%.&.&.&.&.%.<.r.W.[.`.J.x X                               O q h 0 X   ",
"  X * h e O                             $ X x K.`.[.W.r.<.%.%.&.%.&.%.<.r.W.[.`.K.x X O                             + q h 7 X   ",
"  7 u n e O                             , o l J.`.[.W.r.<.&.&.&.&.&.%.<.r.W.[.`.J.x o ,                             O e n u 9   ",
"% d C Z w O                       $ # > S < x J.`.[.W.r.<.%.%.&.&.&.%.<.r.W.[.`.L.x < S , # $                       X w Z C d % ",
"% c k.s.f &                       > > 4 I = x J.`.[.W.r.<.%.&.&.%.&.%.<.r.W.[.`.J.x = I 4 > >                       & f d.k.c + ",
"% v k.s.n w &                   1 F D H P = k J.`.[.W.r.<.%.%.%.%.&.%.1.r.W.[.`.J.d = R H D : 1                   % w n s.k.c % ",
"O v k.d.C i %                   < K E P I 5 N P.`.[.W.r.1.%.&.&.&.&.%.<.r.W.[.`.K.B 5 K P E K <                   % i C s.s.v % ",
"% c k.s.C s &             $ # < G ! ! I : b b.~.[.[.W.e.<.%.%.&.&.%.%.<.e.W.[.[.!.b.{ 6 I ! ! G < # #             % i C s.s.v + ",
"% c s.d.C s %             > 1 : E ) ^ L 8 g.U.[.[.[.W.t.1.*.%.%.&.&.&.1.t.W.[.[.[.U.@.> L ^ ) E : 8 >             & s C s.k.l % ",
"O v k.s.C s %           , F F L / _ ^ A 8 z.!.[.[.[.).D.w.1.&.%.%.&.1.w.D.].[.[.[.!.h.8 A ^ _ / L F F ,           % s C d.k.c % ",
"% c s.s.C i %         % 5 P R ! _ _ / L , d.P.!.!.`.`.J.u.5.*.*.&.;.5.u.J.`.`.!.!.P.d., K / _ _ ! R P 4 %         % s C s.k.l % ",
"% c k.s.C i %     # # 4 H ! ^ ) _ _ ) E D z o.g.f.B.Y.#.-.:.2.5.5.2.:.-.f.U.N.f.g.o.z D E ) _ _ ) ^ ^ H 4 $ $     % s C s.s.n % ",
"% l k.d.C s %     1 1 D Q ) _ _ _ _ _ ) R 6 8 8 8 { m.p s =.q.8.8.q.=.i a m.{ 8 8 7 6 R ) _ _ _ _ _ ) Q D 1 1     & i C s.k.c % ",
"% n k.s.C s % $ 4 : F I ) _ _ _ _ _ _ _ ^ L ; ; ; t V s l >.y.u.y.y.>.l u V t ; ; ; L ^ _ _ _ _ _ _ _ ) I : : 4 # % i C d.s.c % ",
"% c k.s.C i % + : P P ! _ _ _ _ _ _ _ _ _ Q P P P F 0 g C d.d.>.d.>.d.C g 0 J P P P Q _ _ _ _ _ _ _ _ _ ! P P : o % i C s.k.v % ",
"% c k.s.C s 8 4 L R R Q / _ _ _ _ _ _ _ _ / ^ ^ Q S & h n l l l l l l n l % S Q ! ^ / _ _ _ _ _ _ _ _ _ / R R A 5 8 s C s.k.c % ",
"% x s.d.C i 1 G P W W P Q ) _ _ _ _ _ _ _ _ _ ) Q S * g u 7 7 7 7 7 7 s g * S Q ) _ _ _ _ _ _ _ _ _ _ _ ^ W W E A 1 i C d.s.x % ",
"% y N C g 7 o - T ....' E ^ ^ / _ _ _ _ _ _ _ _ Q S & e f j d d g g j s y & S Q _ _ _ _ _ _ _ _ _ ) ^ ^ ` ..X.T - o * h Z m y % ",
"% % e n y % % 8 f./.^. .R W R ! _ _ _ _ _ _ _ ) Q S % * x d.] d.+.+.d.l & % F Q _ _ _ _ _ _ _ _ _ / E R  .^./.f.1 & * y n e % % ",
"% X * s v B N m B.[.[.A. . .~ E ^ ^ ) _ _ _ _ _ Q S & p x n m m m n m x p & S Q _ _ _ _ _ _ _ ^ ^ `  . .A.[.[.C.m M M v i & X % ",
"      7 f.V.B.B.U.[.[./.^.R.} P R R ^ _ _ _ _ _ Q S 0 V l 7 0 7 9 9 7 l C 9 S Q _ _ _ _ _ _ ) Q E } R.^./.[.[.U.B.B.V.f.7       ",
"      * n.(.!.~.{.[.[.[.[.[.Z.| | W Q ^ ^ _ _ _ Q J u v x s a f f f f h v u J Q _ _ _ _ / ^ ( | | Z.[.[.[.[.[.{.~.!.(.n.*       ",
"      7 N.[.'.`.[.[.[.[.[.[.^.R.T.' R E E / _ _ Q Y g q c +.] ] Z o.d.l e g Y Q _ _ _ _ Q R ' T.R.^.[.[.[.[.[.'.{.{.[.N.7       ",
"      7 j.B.B.B.N.N.N.M.N.V.`.[.[.X.| } W ! / / Q Y s s x N N M N N N x u s Y E / / / ( } | X.[.[.`.B.M.N.N.B.N.C.B.B.h.7       ",
"        a a a a a a a a r k K.[.[.R.R.A.~ R E E R D e V l 0 0 q 0 0 0 l V e D R E E E ~ A.R.R.[.[.P.k a a a a a f a a a         ",
"          . . . . . . . . + x.S.V.S.L.v.U G G G G ; 9 m x y r p u r r x m 9 ; H G G A U v.K.S.S.S.l.% @ . . . . . . .           ",
"                            d k k d k a , , , , , ,   q x Z Z Z Z ] Z c q   > , , , , 3 a k k d d d                             ",
"                              . X X . . $ $ $ $ $     O l V C V V V V d O     $ $ $ $ + . . . . .                               ",
"                                                        0 w w w w w w 0                                                         ",
"                                                        O O O X + + O +                                                         "
};
