/* XPM */
static char *_221_4624e84f12d7000afb02e5e9c3cb1d909dcd6844ed4b4b75ecc6c34f684a451f[] = {
/* columns rows colors chars-per-pixel */
"64 64 231 2 ",
"   c #1A2B37",
".  c #272928",
"X  c #362928",
"o  c #37342D",
"O  c #292D33",
"+  c #292D37",
"@  c #2F343F",
"#  c #2C373A",
"$  c #333A3C",
"%  c #3B3B3B",
"&  c #363735",
"*  c #2F302C",
"=  c #70371B",
"-  c #56392D",
";  c #48352E",
":  c #683A23",
">  c #793A22",
",  c #45433C",
"<  c #594535",
"1  c #5E422F",
"2  c #79462C",
"3  c #6D4836",
"4  c #293543",
"5  c #2C3A43",
"6  c #2B3C4A",
"7  c #243444",
"8  c #353C46",
"9  c #2E3C50",
"0  c #023E66",
"q  c #1F3B4B",
"w  c #423D44",
"e  c #35434C",
"r  c #394448",
"t  c #2D4555",
"y  c #394A58",
"u  c #3A515A",
"i  c #2C414D",
"p  c #044166",
"a  c #044D7D",
"s  c #3D4C64",
"d  c #3C5463",
"f  c #3A5764",
"g  c #224D7E",
"h  c #434343",
"j  c #4B4C4C",
"k  c #494846",
"l  c #534D4B",
"z  c #54524E",
"x  c #53584C",
"c  c #494D52",
"v  c #424B56",
"b  c #4B535A",
"n  c #465257",
"m  c #535254",
"M  c #5C5D5D",
"N  c #575858",
"B  c #514F55",
"V  c #69554F",
"C  c #77685A",
"Z  c #63655D",
"A  c #445563",
"S  c #495B68",
"D  c #565B63",
"F  c #5A6468",
"G  c #596C73",
"H  c #5B7275",
"J  c #636463",
"K  c #6B6C6B",
"L  c #666869",
"P  c #726E6E",
"I  c #666A71",
"U  c #686C77",
"Y  c #697277",
"T  c #79797B",
"R  c #6D726E",
"E  c #933A16",
"W  c #923A11",
"Q  c #B43F0A",
"!  c #A83D15",
"~  c #AF3E0E",
"^  c #863820",
"/  c #CD3E05",
"(  c #93421B",
")  c #BA430A",
"_  c #AB4115",
"`  c #B14A14",
"'  c #8E4D2E",
"]  c #B95C2D",
"[  c #B6683D",
"{  c #A8683E",
"}  c #C7420C",
"|  c #D94608",
" . c #C25517",
".. c #D45110",
"X. c #E44C05",
"o. c #EB4E03",
"O. c #E44807",
"+. c #F14D02",
"@. c #EB5203",
"#. c #E55309",
"$. c #F55B05",
"%. c #F45C0B",
"&. c #F75807",
"*. c #E65217",
"=. c #F5620B",
"-. c #F96206",
";. c #EC6414",
":. c #F46A1A",
">. c #EE6A0D",
",. c #C45A26",
"<. c #DB7537",
"1. c #CF6E35",
"2. c #EB6726",
"3. c #E8742A",
"4. c #F47223",
"5. c #E56C37",
"6. c #E77736",
"7. c #F57735",
"8. c #F76D2F",
"9. c #96664E",
"0. c #B26C4B",
"q. c #87736D",
"w. c #935F4B",
"e. c #CB7D4A",
"r. c #D87946",
"t. c #CA7E53",
"y. c #E57D44",
"u. c #F27B47",
"i. c #7E837D",
"p. c #E5813E",
"a. c #B5825F",
"s. c #84847D",
"d. c #93837A",
"f. c #B88469",
"g. c #B18F7B",
"h. c #DB8857",
"j. c #D28350",
"k. c #E58349",
"l. c #E38B5A",
"z. c #C78666",
"x. c #D78D64",
"c. c #D49269",
"v. c #CC9878",
"b. c #D39776",
"n. c #CF956C",
"m. c #094B88",
"M. c #126591",
"N. c #297892",
"B. c #0F58B9",
"V. c #1257BC",
"C. c #1154A6",
"Z. c #255BA0",
"A. c #116FAD",
"S. c #297BAC",
"D. c #507886",
"F. c #747D84",
"G. c #7D7D82",
"H. c #697789",
"J. c #057ECE",
"K. c #877E89",
"L. c #2886B5",
"P. c #7B8185",
"I. c #718893",
"U. c #038AD9",
"Y. c #128BD1",
"T. c #14A1DB",
"R. c #0588E8",
"E. c #159DE2",
"W. c #048BF4",
"Q. c #019EFB",
"!. c #0692E8",
"~. c #01A2FD",
"^. c #0CA1E3",
"/. c #25BDFC",
"(. c #2ABCF3",
"). c #2CB4EE",
"_. c #1EC1FE",
"`. c #2AC6FD",
"'. c #31C6F8",
"]. c #5CDAEF",
"[. c #67D6ED",
"{. c #5FE8F9",
"}. c #64E3FB",
"|. c #68E4FB",
" X c #858584",
".X c #858A8C",
"XX c #8B8C8B",
"oX c #888888",
"OX c #928F8E",
"+X c #8D928D",
"@X c #97948C",
"#X c #8A8B93",
"$X c #8C9293",
"%X c #8C979A",
"&X c #949394",
"*X c #9A9594",
"=X c #9C9A96",
"-X c #97989A",
";X c #A89283",
":X c #A39D9A",
">X c #AD8F82",
",X c #BEA89B",
"<X c #A2A29E",
"1X c #9A9CA3",
"2X c #A09FA2",
"3X c #99A2A7",
"4X c #A7A7A8",
"5X c #B8ACA6",
"6X c #B7B1AB",
"7X c #A6AAB5",
"8X c #B6B5B5",
"9X c #AFB3B7",
"0X c #CB9C84",
"qX c #C29E92",
"wX c #D29A87",
"eX c #C6A38A",
"rX c #C5A498",
"tX c #D6A085",
"yX c #C2ACA4",
"uX c #B4BAC4",
"iX c #AFC0C1",
"pX c #9DDFEA",
"aX c #A9DEEB",
"sX c #B6E1E8",
"dX c #ACEDF8",
"fX c #BAEEF8",
"gX c #AAF0F9",
"hX c #BAF2FB",
"jX c #A5E0E7",
"kX c #C2EEF8",
"lX c #C1F3F9",
/* pixels */
"@ @ @ @ @ @ @ @ @ 5 @ @ @ @ @ @ @ @ @ @ @ @ @ @ @ @ @ @ @ @ @ @ @ @ @ @ @ @ @ @ @ @ @ @ @ @ @ @ @ @ @ @ @ @ @ @ @ @ @ @ @ @ @ @ ",
"@ @ @ @ @ @ @ @ @ @ @ @ @ @ @ @ @ @ @ @ @ @ @ @ @ @ @ @ @ @ @ @ @ @ @ @ @ @ @ @ @ @ @ @ @ @ @ @ @ @ @ @ @ @ @ @ @ @ @ @ @ @ @ @ ",
"@ @ @ @ @ @ @ @ @ @ @ @ @ @ @ @ @ @ @ @ @ @ @ @ @ @ @ @ @ @ @ @ @ @ @ @ @ @ @ @ @ @ @ @ @ @ @ @ @ @ @ @ @ @ @ @ @ @ @ @ @ @ @ @ ",
"@ @ @ @ @ @ @ @ @ @ @ @ @ @ @ @ @ @ @ @ @ @ @ @ @ @ @ @ @ @ @ @ r e @ @ @ @ @ @ @ @ @ @ @ @ @ @ @ @ @ @ @ @ @ @ @ @ @ @ @ @ @ @ ",
"@ @ @ @ @ @ @ @ @ @ @ @ @ @ @ @ @ @ @ @ @ @ @ @ @ @ @ @ @ @ @ @ m N @ @ @ @ @ @ @ @ I I @ @ @ @ @ @ @ @ @ @ @ @ @ @ @ @ @ @ @ @ ",
"@ @ @ @ @ @ @ @ @ @ @ @ @ @ @ @ @ @ @ @ @ @ @ @ @ @ @ @ @ @ @ e b L r @ @ @ @ @ @ @ I I @ @ @ @ @ @ @ @ @ @ @ @ @ @ @ @ @ @ @ @ ",
"@ @ @ @ @ @ @ @ @ @ @ @ @ @ @ @ @ @ @ @ @ @ @ @ @ @ @ @ @ @ @ j N L D @ @ @ @ @ @ @ @ @ @ @ @ @ @ @ @ @ @ @ @ @ @ @ @ @ @ @ @ @ ",
"@ @ @ @ @ @ @ @ @ @ @ @ @ @ @ @ @ @ @ @ @ @ @ @ @ @ @ @ @ @ r z N Z K i @ @ @ @ @ @ @ @ @ @ @ @ @ @ @ @ @ @ @ @ @ @ @ @ @ @ @ @ ",
"@ @ @ @ @ @ @ @ I K @ @ @ @ @ @ @ @ @ @ @ @ @ @ @ @ @ @ @ @ c A S.S.U M @ @ @ @ @ @ @ @ @ @ @ @ @ @ @ @ @ @ @ @ @ @ @ @ @ @ @ @ ",
"@ @ @ @ @ @ @ @ I I @ @ @ @ @ @ @ @ @ @ @ @ @ @ @ @ @ @ @ @ b Z.!.Q.L.I 4 @ @ @ @ @ @ @ @ @ @ @ @ @ @ @ @ @ @ @ @ @ @ @ @ @ @ @ ",
"@ @ @ @ @ @ @ @ 4 @ @ @ @ @ @ @ @ @ @ @ @ @ @ @ @ @ @ @ @ @ s V.W.~.T.Y + 5 5 @ @ @ @ @ @ @ @ @ @ @ @ @ @ @ @ @ @ @ @ @ @ @ @ @ ",
"@ @ @ @ @ @ @ @ @ @ @ @ @ @ @ @ @ @ @ @ @ @ @ @ @ @ @ @ @ $ y B.W.~.^.I @ @ # @ @ @ @ @ @ @ @ @ @ @ @ @ @ @ @ @ @ @ @ @ @ @ @ @ ",
"@ @ @ @ @ @ @ @ @ @ @ @ @ @ @ @ @ @ @ @ @ @ @ @ @ @ @ @ @ $ s B.W.Q.E.U 4 @ @ @ @ @ @ @ @ @ @ @ @ @ @ @ @ @ @ @ @ @ @ @ @ @ @ @ ",
"@ @ @ @ @ @ @ @ @ @ @ @ @ @ @ @ @ @ @ @ @ @ @ @ @ @ @ @ @ $ s V.W.~.^.H 4 @ @ @ @ @ @ @ @ @ @ @ @ @ @ @ @ @ @ @ @ @ @ @ @ @ @ @ ",
"@ @ @ @ @ @ @ @ @ @ @ @ @ @ @ @ @ @ @ @ @ @ @ @ @ @ 8 e @ @ s B.W.~.T.H 4 @ c 4 @ @ @ @ @ @ @ @ @ @ @ @ @ @ @ @ @ @ @ @ $ @ @ @ ",
"@ @ @ @ @ @ @ @ @ @ @ @ @ @ @ @ @ @ @ @ @ @ @ @ @ @ v b @ 8 s V.W.Q.T.Y @ @ J e @ @ @ @ @ @ @ @ @ @ @ @ @ @ @ @ @ @ @ @ 8 @ @ @ ",
"@ @ @ @ @ @ @ @ @ @ @ @ @ @ @ @ @ @ @ @ @ @ @ @ @ @ 8 h & k s V.W.~.E.U j * l 5 @ @ @ @ @ @ @ @ @ @ @ @ @ @ @ @ @ @ @ @ @ @ @ @ ",
"@ @ @ @ @ @ @ @ @ @ @ @ @ @ @ @ @ @ @ @ @ @ @ @ @ @ & % $ j s B.W.~.E.H j & h # @ @ @ @ @ @ @ @ @ @ @ @ @ @ @ @ @ @ @ @ @ @ @ @ ",
"@ @ @ @ @ @ @ @ @ @ @ @ @ @ @ @ @ @ @ @ @ @ @ @ @ @ 8 k + , A V.W.~.T.I 8 + z 5 @ @ @ 5 @ @ @ @ @ @ @ @ @ @ @ @ @ @ @ @ @ @ @ @ ",
"@ @ @ @ @ @ @ @ @ @ @ @ @ @ @ @ @ @ @ @ @ @ @ @ @ 4 5 4 @ $ s C.R.~.Y.L 4 5 8 + @ @ @ @ @ @ @ @ @ @ @ @ @ @ @ @ @ @ @ @ @ @ @ @ ",
"@ @ @ @ @ @ @ @ 8 @ @ @ @ @ @ @ @ @ @ @ @ @ @ @ @ @ @ @ @ 8 w Z.J.U.L.G 4 @ @ @ @ @ @ @ @ @ @ @ @ @ @ @ @ @ @ @ @ @ @ @ @ @ @ @ ",
"@ @ @ @ @ @ @ @ & @ @ @ @ @ @ @ @ @ @ @ @ @ @ @ @ @ @ @ @ 5 c m.A.U.N.G 4 @ @ @ @ @ @ @ @ @ @ @ @ @ @ @ @ @ @ @ @ @ @ @ @ @ @ @ ",
"@ 8 @ @ @ @ @ @ @ @ @ @ @ @ @ @ @ @ @ @ @ @ @ @ @ @ @ @ @ 8 B A A.S.G F 4 @ @ @ @ @ @ @ @ @ @ @ @ @ @ @ @ @ @ @ @ @ @ @ @ @ @ @ ",
"@ @ @ @ @ @ @ @ @ @ @ @ @ @ @ @ @ @ @ @ @ @ @ @ @ @ @ @ @ 8 B B u S J K 8 @ @ @ @ @ @ @ @ @ @ @ @ @ @ @ @ @ @ @ @ @ @ @ @ @ @ @ ",
"@ @ @ @ @ @ @ @ @ @ @ @ @ @ @ @ @ @ @ @ @ @ @ @ @ @ @ @ + > V l , , M q.^ @ @ @ @ @ @ @ @ @ @ @ @ @ @ @ @ @ @ @ @ @ @ @ @ @ @ @ ",
"@ @ @ @ @ @ @ @ @ @ @ @ @ @ @ @ @ @ @ @ @ @ @ @ @ @ @ @ = *.9.w & , B t.| ; @ @ @ @ @ @ @ @ @ @ @ @ @ @ @ @ @ @ @ @ @ @ @ @ @ @ ",
"@ @ @ @ @ @ @ @ @ @ @ @ @ @ @ @ @ @ @ @ @ @ @ @ @ @ @ ; Q O.r.: % r w.5.O.Q O @ @ @ @ @ @ @ @ @ @ @ @ @ @ @ @ @ @ @ @ @ I I @ @ ",
"@ @ @ @ @ @ @ @ @ @ @ @ @ @ @ @ @ @ @ @ @ @ @ @ @ @ + W O.O.8.e., < r.2.+.O.^ @ @ @ @ @ @ @ @ @ @ @ @ @ @ @ @ @ @ @ @ @ I P @ @ ",
"@ @ @ @ @ @ @ @ @ @ @ @ @ @ @ @ @ @ @ @ @ @ 5 4 5 8 - ) o.O.2.u.{ 0.k.*.O.+.} ; c h 4 @ @ @ @ @ @ @ @ @ @ @ @ @ @ @ @ @ 4 @ @ @ ",
"@ @ @ @ @ @ @ @ @ @ @ @ @ @ @ @ @ @ @ @ @ 8 e c B 8 : | O.| *.7.2.4.7.O./ O.| < M L M b r @ @ @ @ @ @ @ @ @ @ @ @ @ @ @ @ @ @ @ ",
"@ @ @ @ @ @ @ @ @ @ @ @ @ @ @ @ @ 4 4 4 v l l k w O = | O.o.$.;. . .>.$.| X.o.: j D M J J D 4 @ 8 @ @ @ @ @ @ @ @ @ @ @ @ @ @ @ ",
"@ @ @ @ @ @ @ @ @ @ @ @ @ @ @ @ @ @ 8 w k h h & & . W X.+.$.-.` ! W ..=.=.o.@.> w m z M M J k 8 4 @ @ @ @ @ @ @ @ @ @ @ @ @ @ @ ",
"@ @ @ @ @ @ @ @ @ @ @ @ @ @ @ @ 4 # # $ h , % & * X W o.$.=.@.} ~ ! } @.-.&.+.( 8 l l D N M 8 + 4 @ @ @ @ @ @ @ @ @ @ @ @ @ @ @ ",
"@ @ @ @ @ @ @ @ @ @ @ @ @ @ @ @ @ @ @ @ @ @ @ @ 5 + ! +.%.$.X.( ; o ( X.%.&.@.E 8 + # @ @ 8 @ @ @ @ @ @ @ @ @ @ @ @ @ @ @ @ @ @ ",
"@ @ @ @ @ @ @ @ @ @ @ @ @ @ @ @ @ @ @ @ @ @ @ @ @ + E @.=.&.@.1 : - ' #.&.%.+._ @ @ @ @ @ @ @ @ @ @ @ @ @ @ @ @ @ @ @ @ @ @ @ @ ",
"@ @ @ @ @ @ @ @ @ @ @ @ @ @ @ @ @ @ @ @ @ @ @ @ @ O _ o.%.$.X.| } } / | -.@.@._ @ @ @ @ @ @ @ @ @ @ @ @ @ @ @ @ @ @ @ @ @ @ @ @ ",
"@ @ @ @ @ @ @ @ @ @ @ @ @ @ @ @ @ @ @ e 6 @ @ @ @ . ~ +.%.%.O.( ; ; ! O.-.%.+.) 4 @ @ @ 5 5 y @ @ @ @ @ @ @ @ @ @ @ @ @ @ @ @ @ ",
"@ @ @ @ @ @ @ @ @ @ @ @ @ @ @ @ @ 7 F.2XY 5 @ @ @ h ,.o.$.&.*.- - o 2 #.&.=.&.` 6 @ @ @ 4 P.=XP.@ @ @ @ @ @ @ @ @ @ @ @ @ @ @ @ ",
"@ @ I K @ @ @ @ @ @ @ @ @ @ @ @ 5 y 1X:XK.y 4 8 G q.,.o.-.$.#.} / } } #.$.%.+.,.P.G 4 4 b s.:X4X6 4 @ @ @ @ @ @ @ @ @ @ @ @ @ @ ",
"@ 4 I I @ @ @ @ @ @ @ @ @ @ @ @ 4 y -X4XG.8 4 F.7Xq.,.X.$.$.| ! : : ) O.$.%.+.,.K.8XF.5 h oX1X4X4 4 @ @ @ @ @ @ @ @ @ @ @ @ @ @ ",
"@ @ @ @ @ @ @ @ @ @ @ @ @ @ 5 @ @ y 2X:XJ < q.5X9XXX[ O.$.$.#.- O   2 ..%.&.+.{ @X8XuX9.o K 4X4X5 @ @ @ @ @ @ @ @ @ @ @ @ @ @ @ ",
"@ @ @ @ @ @ @ @ @ @ @ @ 7 F.&XJ 4 y .XY J [ l.5X8X<X[ O.%.&.#.` } Q ) @.%.&.O.9.7X8X9X7.1.S R &X7 @ G =XT @ @ @ @ @ @ @ @ @ @ @ ",
"@ @ @ @ @ @ @ @ @ @ @ @ A 7X=XT 8 7 l V >Xh.h.6X6Xk.] ` #.%.X./ ^ W | | &.&.' ..l.uXiX6.l.<X1 N # 7 i.-X4XA @ @ @ @ @ @ @ @ @ @ ",
"@ @ @ @ @ @ @ @ @ @ @ @ S 4X-XT y q q.<.b.h.x.rXp.<.d.C ,.#...1 # # 2 ..=.,.T @X2.p.iX6.k.yX>.P   i K.-X2XD @ @ @ @ @ @ @ @ @ @ ",
"@ @ @ @ @ @ @ @ @ @ 5 @ A 4X:XP # D g.k.b.eXb.y.r.d.m r & , , N N N Z T q.T T  X:X3.7.,Xv.,X4.,Xc   F.1X4XS 4 @ @ @ @ @ @ @ @ @ ",
"@ @ @ @ @ @ @ @ @ @ @ @ f :XF.N ' k.b.y.0XrX3.e.@XG.j % w % j N F M J T P.i.G.K..X1X1.4.5XeX;.yXr.' B s.:Xb 8 4 @ @ @ @ @ @ @ @ ",
"@ @ @ @ @ @ @ @ @ @ @ @ y K l q.c.l.qXn.x.6.t.&X+X Xj . & * h h m k x L T P K OX$X X-Xe.:.tXx.,Xk.h.G.< K 9 @ @ @ @ @ @ @ @ @ @ ",
"@ @ @ @ 8 @ @ @ @ @ @ 4 6 C [ c.c.k.5Xn.7.f.&X.X*XXXk . X . & % j w j J P K J s.-X*XK.%Xz.:.v.8X6.x.eX] J 8 @ @ @ @ @ @ @ @ @ @ ",
"@ @ @ @ @ @ @ @ @ @ @ @ e >Xk.c.0Xx.x.3.f.#X.XXX@XoXk . * . $ % l 8 j J I P L T -X-X#Xd.%Xf.4.c.c.n.0X4.@Xr 5 @ @ @ @ @ @ @ @ @ ",
"@ @ @ @ @ @ @ @ @ @ @ & 0.tXp.c.5Xh.<.g.$XOX&XXXOXT c . * . r , z h x K P R K oXP.+X.X1XoX%Xg.2.x.5Xv.6.yX{ ; + @ @ @ @ @ @ @ @ ",
"@ @ @ @ @ @ @ @ @ 4 s f.6.eXx.b.h.<.>X$XXX=X$XoX.XI 6   O . * o , h N F P L 8 s T .Xs.=X=XXX$X>X6.k.0Xh.rX7.0.f @ 8 @ @ @ @ @ @ ",
"@ @ @ @ @ @ @ @ @ 8 4XtX6.,X0Xy.r.;X$XOX=X-XXXT S @ + 5 t u S L Y Y F.I.I.H.D v 4 G T +X-X-XOX#X;X<.y.eXyXy.v.3X8 4 @ @ @ @ @ @ ",
"@ @ @ @ @ @ @ @ @ s 8X0Xk.0Xr.e.;XXXOX-X*XXXF.y @ @ @ p Y.).[.aXsXsXaX[.(.Y.6 8 @ @ y  XOX&X2XXX#X*Xr.y.v.h.b.7Xb @ @ @ @ @ @ @ ",
"@ @ @ @ @ @ @ @ @ d 9X,Xn.y.t.@X.X&X-X-X.XU i @ @ @ @ p U.`.|.hXhXlXgX}./.R.4 4 @ @ @ 9 Y oX1X=XOX.X&Xj.6.n.5X7Xv @ @ @ @ @ @ @ ",
"@ @ @ @ @ @ @ @ @ u 5Xv.6.z.&X.XXX1X-Xq.F 7 @ @ @ @ @ 0 U.`.].dXfXfXgX}./.R.@ @ 4 @ @ @ @ F  XOX=X.XoX*Xa.r.0X4XA 4 @ @ @ @ @ @ ",
"@ @ @ @ @ @ @ @ 5 y z.<.f.#X.XXX.X.XF.b 4 5 @ @ @ @ @ 0 U.'.|.dXlXhXgX}./.U.@ @ @ @ @ @ @ @ S K.XX#X.XoX$Xt.<.0.c 4 @ @ @ @ @ @ ",
"@ @ @ @ @ @ @ @ @ @ 2 V A v S S b d 6 @ @ @ @ @ @ @ @ 0 U.`.|.dXfXlXgX}./.U.# 4 @ @ @ @ @ @ @ 9 v A b B v B V > + 4 @ @ @ @ @ @ ",
"@ @ @ @ @ @ @ @ @ @ @ @ # @ 4 4 @ @ @ @ @ @ @ @ @ @ @ 0 U.'.|.dXkXkXdX}./.R.@ @ @ @ @ @ @ @ @ @ @ 8 4 @ 4 4 + + @ @ @ @ @ @ @ @ ",
"@ @ @ @ @ @ @ @ @ @ @ @ @ @ @ @ @ @ @ @ @ @ @ @ @ @ @ 0 U.'.}.dXkXkXdX{./.R.@ @ @ @ @ @ @ @ @ @ @ @ @ @ 4 8 + 8 @ @ @ @ @ @ @ @ ",
"@ @ @ @ @ @ @ @ @ @ @ @ @ @ @ @ @ @ @ @ @ @ @ @ @ @ @ 0 U.'.}.dXhXlXdX}./.U.@ @ @ @ @ @ @ 4 @ @ @ @ @ @ @ @ 8 + @ @ @ @ @ @ @ @ ",
"@ @ @ @ @ @ @ @ @ @ @ @ @ @ @ @ @ @ @ @ @ @ @ @ @ @ @ 0 J.(.].jXsXsXpX[.).J.  4 @ @ @ @ @ @ @ @ @ @ @ @ @ @ @ 8 @ @ @ @ K I 4 @ ",
"@ @ @ @ @ @ @ @ @ @ @ @ @ @ @ @ @ @ @ @ @ @ @ @ @ @ 4 + a M.N.D.D.D.D.N.M.a @ 4 @ @ @ @ @ @ @ @ @ @ @ @ @ @ 8 + @ @ @ @ I I @ @ ",
"@ @ @ @ @ @ @ @ 8 @ @ @ @ @ @ @ @ @ @ @ @ @ @ @ @ @ 4 @ @ @ @ @ # @ @ @ @ @ @ @ @ @ @ @ @ @ @ @ @ @ @ @ @ @ @ @ @ @ @ @ @ @ @ @ ",
"@ @ @ @ @ @ @ @ @ @ @ @ @ @ @ @ @ @ @ @ @ @ @ @ @ @ @ @ @ @ @ @ @ @ @ @ @ @ @ @ @ @ @ @ @ @ @ @ @ @ @ @ @ @ @ @ @ @ @ @ @ @ @ @ "
};
