/* XPM */
static char *_708_eff84f6176e2a22228f3b52d1799be31d80bf96d665125bfab88b08a1f55183c[] = {
/* columns rows colors chars-per-pixel */
"64 64 231 2 ",
"   c #1A2B37",
".  c #272928",
"X  c #362928",
"o  c #37342D",
"O  c #292D33",
"+  c #292D37",
"@  c #2F343F",
"#  c #2C373A",
"$  c #333A3C",
"%  c #3B3B3B",
"&  c #363735",
"*  c #2F302C",
"=  c #70371B",
"-  c #56392D",
";  c #48352E",
":  c #683A23",
">  c #793A22",
",  c #45433C",
"<  c #594535",
"1  c #5E422F",
"2  c #79462C",
"3  c #6D4836",
"4  c #293543",
"5  c #2C3A43",
"6  c #2B3C4A",
"7  c #243444",
"8  c #353C46",
"9  c #2E3C50",
"0  c #023E66",
"q  c #1F3B4B",
"w  c #423D44",
"e  c #35434C",
"r  c #394448",
"t  c #2D4555",
"y  c #394A58",
"u  c #3A515A",
"i  c #2C414D",
"p  c #044166",
"a  c #044D7D",
"s  c #3D4C64",
"d  c #3C5463",
"f  c #3A5764",
"g  c #224D7E",
"h  c #434343",
"j  c #4B4C4C",
"k  c #494846",
"l  c #534D4B",
"z  c #54524E",
"x  c #53584C",
"c  c #494D52",
"v  c #424B56",
"b  c #4B535A",
"n  c #465257",
"m  c #535254",
"M  c #5C5D5D",
"N  c #575858",
"B  c #514F55",
"V  c #69554F",
"C  c #77685A",
"Z  c #63655D",
"A  c #445563",
"S  c #495B68",
"D  c #565B63",
"F  c #5A6468",
"G  c #596C73",
"H  c #5B7275",
"J  c #636463",
"K  c #6B6C6B",
"L  c #666869",
"P  c #726E6E",
"I  c #666A71",
"U  c #686C77",
"Y  c #697277",
"T  c #79797B",
"R  c #6D726E",
"E  c #933A16",
"W  c #923A11",
"Q  c #B43F0A",
"!  c #A83D15",
"~  c #AF3E0E",
"^  c #863820",
"/  c #CD3E05",
"(  c #93421B",
")  c #BA430A",
"_  c #AB4115",
"`  c #B14A14",
"'  c #8E4D2E",
"]  c #B95C2D",
"[  c #B6683D",
"{  c #A8683E",
"}  c #C7420C",
"|  c #D94608",
" . c #C25517",
".. c #D45110",
"X. c #E44C05",
"o. c #EB4E03",
"O. c #E44807",
"+. c #F14D02",
"@. c #EB5203",
"#. c #E55309",
"$. c #F55B05",
"%. c #F45C0B",
"&. c #F75807",
"*. c #E65217",
"=. c #F5620B",
"-. c #F96206",
";. c #EC6414",
":. c #F46A1A",
">. c #EE6A0D",
",. c #C45A26",
"<. c #DB7537",
"1. c #CF6E35",
"2. c #EB6726",
"3. c #E8742A",
"4. c #F47223",
"5. c #E56C37",
"6. c #E77736",
"7. c #F57735",
"8. c #F76D2F",
"9. c #96664E",
"0. c #B26C4B",
"q. c #87736D",
"w. c #935F4B",
"e. c #CB7D4A",
"r. c #D87946",
"t. c #CA7E53",
"y. c #E57D44",
"u. c #F27B47",
"i. c #7E837D",
"p. c #E5813E",
"a. c #B5825F",
"s. c #84847D",
"d. c #93837A",
"f. c #B88469",
"g. c #B18F7B",
"h. c #DB8857",
"j. c #D28350",
"k. c #E58349",
"l. c #E38B5A",
"z. c #C78666",
"x. c #D78D64",
"c. c #D49269",
"v. c #CC9878",
"b. c #D39776",
"n. c #CF956C",
"m. c #094B88",
"M. c #126591",
"N. c #297892",
"B. c #0F58B9",
"V. c #1257BC",
"C. c #1154A6",
"Z. c #255BA0",
"A. c #116FAD",
"S. c #297BAC",
"D. c #507886",
"F. c #747D84",
"G. c #7D7D82",
"H. c #697789",
"J. c #057ECE",
"K. c #877E89",
"L. c #2886B5",
"P. c #7B8185",
"I. c #718893",
"U. c #038AD9",
"Y. c #128BD1",
"T. c #14A1DB",
"R. c #0588E8",
"E. c #159DE2",
"W. c #048BF4",
"Q. c #019EFB",
"!. c #0692E8",
"~. c #01A2FD",
"^. c #0CA1E3",
"/. c #25BDFC",
"(. c #2ABCF3",
"). c #2CB4EE",
"_. c #1EC1FE",
"`. c #2AC6FD",
"'. c #31C6F8",
"]. c #5CDAEF",
"[. c #67D6ED",
"{. c #5FE8F9",
"}. c #64E3FB",
"|. c #68E4FB",
" X c #858584",
".X c #858A8C",
"XX c #8B8C8B",
"oX c #888888",
"OX c #928F8E",
"+X c #8D928D",
"@X c #97948C",
"#X c #8A8B93",
"$X c #8C9293",
"%X c #8C979A",
"&X c #949394",
"*X c #9A9594",
"=X c #9C9A96",
"-X c #97989A",
";X c #A89283",
":X c #A39D9A",
">X c #AD8F82",
",X c #BEA89B",
"<X c #A2A29E",
"1X c #9A9CA3",
"2X c #A09FA2",
"3X c #99A2A7",
"4X c #A7A7A8",
"5X c #B8ACA6",
"6X c #B7B1AB",
"7X c #A6AAB5",
"8X c #B6B5B5",
"9X c #AFB3B7",
"0X c #CB9C84",
"qX c #C29E92",
"wX c #D29A87",
"eX c #C6A38A",
"rX c #C5A498",
"tX c #D6A085",
"yX c #C2ACA4",
"uX c #B4BAC4",
"iX c #AFC0C1",
"pX c #9DDFEA",
"aX c #A9DEEB",
"sX c #B6E1E8",
"dX c #ACEDF8",
"fX c #BAEEF8",
"gX c #AAF0F9",
"hX c #BAF2FB",
"jX c #A5E0E7",
"kX c #C2EEF8",
"lX c #C1F3F9",
/* pixels */
"@ @ @ @ @ @ @ @ @ 5 @ @ @ @ @ @ @ @ @ @ @ @ @ @ @ @ @ @ @ @ @ @ @ @ @ @ @ @ @ @ @ @ @ @ @ @ @ @ @ @ @ @ @ @ @ @ @ @ @ @ @ @ @ @ ",
"@ @ @ @ @ @ @ @ @ @ @ @ @ @ @ @ @ @ @ @ @ @ @ @ @ @ @ @ @ @ @ @ @ @ @ @ @ @ @ @ @ @ @ @ @ @ @ @ @ @ @ @ @ @ @ @ @ @ @ @ @ @ @ @ ",
"@ @ @ @ @ @ @ @ @ @ @ @ @ @ @ @ @ @ @ @ @ @ @ @ @ @ @ @ @ @ @ @ @ @ @ @ @ @ @ @ @ @ @ @ @ @ @ @ @ @ @ @ @ @ @ @ @ @ @ @ @ @ @ @ ",
"@ @ @ @ @ @ @ @ @ @ @ @ @ @ @ @ @ @ @ @ @ @ @ @ @ @ @ @ @ @ @ @ @ @ @ @ @ @ @ @ @ @ @ @ @ @ @ @ @ @ @ @ @ @ @ @ @ @ @ @ @ @ @ @ ",
"@ @ @ @ @ @ @ @ @ @ @ @ @ @ @ @ @ @ @ @ @ @ @ @ @ @ @ @ @ @ @ @ @ @ @ @ @ @ @ @ @ @ I I @ @ @ @ @ @ @ @ @ @ @ @ @ @ @ @ @ @ @ @ ",
"@ @ @ @ @ @ @ @ @ @ @ @ @ @ @ @ @ @ @ @ @ @ @ @ @ @ @ @ @ @ @ @ @ @ @ @ @ @ @ @ @ @ I I @ 8 & @ @ @ @ @ @ @ @ @ @ @ @ @ @ @ @ @ ",
"@ @ @ @ @ @ @ @ @ @ @ @ @ @ @ @ @ @ @ @ @ @ @ @ @ @ @ @ @ @ @ @ @ @ @ 8 @ @ @ @ @ @ @ @ @ @ @ @ @ @ @ @ @ @ @ @ @ @ @ @ @ @ @ @ ",
"@ @ @ @ @ @ @ @ @ @ @ @ @ @ @ @ @ @ @ @ @ @ @ @ @ @ @ @ @ @ @ @ @ @ @ @ @ @ @ @ @ @ @ @ @ @ @ @ @ @ @ @ @ @ @ @ @ @ @ @ @ @ @ @ ",
"@ @ @ @ @ @ 5 + v d f d 6 4 @ @ @ @ @ @ @ @ @ @ @ @ @ @ @ @ @ @ @ @ @ @ @ @ @ @ @ @ @ @ @ @ @ @ @ @ @ @ 8 + 8 + @ @ @ @ @ @ @ @ ",
"@ @ @ @ @ @ 5 > z.5X9X9X4Xf @ @ @ @ @ @ @ @ @ @ @ @ @ @ @ @ @ @ @ @ @ @ @ @ @ @ @ @ @ @ @ @ @ @ @ @ @ @ @ 8 + 8 @ @ @ @ @ @ @ @ ",
"@ @ @ @ @ @ 5 V <.v.,Xv.tXf.& @ 5 @ 4 5 @ 4 @ @ @ @ @ @ @ @ @ @ @ @ @ @ @ @ @ @ @ @ @ @ @ @ @ @ @ @ @ @ @ @ 8 + @ @ @ @ @ @ @ @ ",
"@ @ @ @ @ @ 5 S f.6.n.k.6.7.0.r i t A A S A 4 4 @ @ @ @ @ @ @ @ @ @ @ @ @ @ @ @ @ @ @ @ @ @ @ @ @ @ @ @ @ @ + 8 @ @ @ @ @ @ @ @ ",
"@ @ @ @ @ @ @ v #Xt.6.0X,XeXqX>XC P :X4X4X4XG.@ @ @ @ @ @ @ @ @ @ @ @ @ @ @ @ @ @ @ @ @ @ @ @ @ @ @ @ @ 8 + 8 + @ @ @ @ @ @ @ @ ",
"@ @ @ @ @ @ @ S #X%Xt.y.eXh.k.k.[ l F.:X1X*X*X@ @ @ @ @ @ @ @ @ @ @ @ @ @ @ @ @ @ @ @ @ @ @ @ @ @ @ @ @ + 4 + 8 8 @ @ @ @ @ @ @ ",
"@ @ @ @ @ @ 4 S #X.X@Xe.y.c.c.x.b.q.B K T T J @ @ @ @ @ @ @ @ @ @ @ @ @ @ @ @ @ @ @ @ @ @ @ @ @ @ @ @ @ + 8 + 8 + 8 @ @ @ @ @ @ ",
"@ @ @ @ @ @ 4 u .X#XXX@Xr.l.5X0Xc.c.' # y 9 @ @ @ @ @ @ @ @ @ 4 @ @ @ @ @ @ @ @ @ @ @ @ @ @ @ @ @ @ @ @ 8 + 8 + 8 + @ @ @ @ @ @ ",
"@ @ @ @ @ @ @ v .X1X&XXX;X<.h.x.k.y.l.M q 4 y u u u 4 4 5 @ @ # @ 4 @ @ @ @ @ @ @ @ @ @ @ @ @ @ @ @ @ @ @ @ @ @ @ @ @ @ @ @ @ @ ",
"@ @ @ @ @ @ 5 9 T &X=XOX$X;X<.x.5XqXb.g.C x .X3X-X-XF.4 @ @ @ # r 4 @ @ @ @ @ @ @ @ @ @ @ @ @ @ @ @ @ @ @ @ @ @ @ @ @ @ @ @ @ @ ",
"@ @ @ @ @ @ 5 @ b G.&X-XOX$Xg.3.b.b.p.k.6.V Y :X3X:X:Xy @ @ @ @ h # 4 @ @ @ @ @ @ @ @ @ @ @ @ @ @ @ @ @ @ @ @ @ @ @ @ @ @ @ @ @ ",
"@ @ @ @ @ @ @ @ 4 F XX*X=XXX$Xf.5.x.v.v.b.>XJ J G.K.Y 4 @ @ @ k k v # @ @ @ @ @ @ @ @ @ @ @ @ @ @ @ @ @ @ @ @ @ @ @ @ @ @ @ @ @ ",
"@ @ @ @ @ @ @ @ @ 7 Y XX-X-XXX&Xf.6.rXeXh.l.[ < 8 y 6 @ @ 4 5 ; h c 8 @ @ @ @ @ @ @ @ @ @ @ @ @ @ @ @ @ @ @ @ @ @ @ @ @ @ @ @ @ ",
"@ @ @ @ @ @ @ @ @ @ i F.XX&X&X.X&Xt.6.v.h.h.l.q.4 @ @ @ @ 4 5 % h j r @ @ @ @ @ @ @ @ @ @ @ @ @ @ @ @ @ @ @ @ @ @ @ @ @ @ @ @ @ ",
"@ @ @ @ @ @ @ @ @ @ @ y T  XXXXXoXOXj.6.rX8X6X6XF.4 @ @ @ @ # & & k b # @ @ @ @ @ @ @ @ @ @ @ @ @ @ @ @ @ @ @ @ @ @ @ @ @ @ @ @ ",
"@ @ @ @ @ @ @ @ @ @ @ $ S .XOX*X-X+X@Xr.y.6X8X9X7XF @ @ @ @ # * @ h B 6 @ @ @ @ @ @ @ @ @ @ @ @ @ @ @ @ @ @ @ @ @ @ @ @ @ @ @ @ ",
"@ @ @ @ @ @ @ @ @ @ @ @ @ G T  XoX XG.d.p.k.=XXXd.q.w X O + + X . * 8 8 @ @ @ @ @ @ @ @ @ @ @ @ @ 4 @ @ @ @ @ @ @ @ @ @ @ @ @ @ ",
"@ @ @ @ @ @ @ @ @ @ @ @ @ 5 c k k z j B d.] { [ ,.,.,.~ _ ! E ! W = : - + @ @ @ @ @ @ @ 5 8 # r c 8 @ @ @ @ @ @ @ @ @ @ @ @ @ @ ",
"@ @ 4 0 0 0 0 0 0 0 0 p 6   . . . O % 8 C ` O.O.@.+.o.+.o.@.@.X.| | ..} W ; @ @ @ @ @ @ 8 k % , b 9 @ @ @ @ @ @ @ @ @ @ I I @ @ ",
"@ @ a J.U.U.U.U.U.J.Y.Y.t . * * X & w % ,.%.%.=.%.&.%.%.%.=.%.$.+.O.O.o.| Q = O @ @ @ @ @ + $ @ @ @ @ @ @ @ @ @ @ @ @ @ I P @ @ ",
"@ @ M.).'.`.`.`.`.`.`.(.u . . . . . & ; *.%.%.@.$.$.&.%.@.&.%.%.%.o.| O.O.O...' 8 6 5 5 8 , j k % $ 5 $ $ 5 @ 4 8 + 4 4 @ @ @ @ ",
"@ @ N.[.}.}.|.|.|.|.|.[.b O r % & h k k ..X.#.#.X.#.#.X.#.@.o.@.-.%.*.*.8.5.w.V N b c v y A s s s s s s s v B c w 8 4 8 @ @ @ @ ",
"@ @ D.aXdXdXdXdXsXdXhXaXH & , % ; h N N 1 } _ - ~ ) - W } 2 > } ` ;.8.u.e.3 w l N A m.m.C.V.B.V.B.V.V.V.B.V.Z.b w l w 4 @ @ @ @ ",
"@ @ D.sXhXkXkXkXfXfXhXsXY , z j c m J N $ ^ | # : } - ; } : o ~ _  .2.w.; % & % f Z.A.J.R.W.W.W.W.W.W.W.W.W.W.S.D B B B w @ @ @ ",
"@ 4 H aXkXkXkXfXlXhXlXsXR r k % ; k M z   W )   = } o ; } ; & _ _ ` 4.[ < 8 ; j S S.J.!.Q.~.~.~.Q.~.~.Q.~.~.~.S.K P I N 8 @ @ @ ",
"@ 4 D.pXdXdXdXdXdXgXgXjXi.N z c c z Z Z 2 | ` 2 ) } 2 _ | ' ( | ..:.7.u.r.w.M D J G N.L.Y.T.E.E.T.T.E.E.^.T.L.I L M 8 @ 4 4 @ @ ",
"@ @ N.].{.}.|.}.}.}.}.[.I.J K J L L P.T ..| o.#.O.X.#.O.| #.X.@.-.$.O.*.8.5.e.P J L I I L H H H H H G U I H K M 8 @ @ @ @ @ @ @ ",
"@ @ M.)././././././._.(.I.P K K I T P.q.:.%.&.%.$.-.$.-.$.$.-.-.>.#.| | o.o.| ^ 8 4 4 4 # % x k 5 4 4 4 5 + 4 @ @ @ @ @ @ @ @ @ ",
"@ @ a J.U.R.R.J.R.R.R.Y.H.F R R P P s.q.,.%.%.&.$.&.%.%.%.%.&.+.o.X.O.o.O.Q ; + @ @ @ @ 5 + & * @ @ @ @ @ @ @ @ @ @ @ @ @ @ @ @ ",
"@ @ 4 7 @ @ & 4 # # 4 7 F r U L F K G.i.T ' O.+.o.o.+.+.&.+.o.+.@.O.O.} ^ O @ @ @ @ @ @ h z w l J c @ @ + 8 @ @ @ @ @ @ @ @ @ @ ",
"@ @ I I @ @ @ @ @ @ 5 4 s u oXT i.OXK. X;X..9.9.] ,. .Q ~ W E ^ > : - k @ @ @ @ @ @ @ @ + 5 + 4 e # 4 @ @ @ @ @ @ @ @ @ @ @ @ @ ",
"@ @ I I @ @ @ @ @ @ @ @ 5 T  X-X=X$X.X:X:.k.7X$XoXG.6 5 @ @ $ 8 r k N l @ @ @ @ @ @ @ @ @ 4 @ @ 5 4 @ @ @ @ @ @ @ @ @ @ @ @ @ @ ",
"@ @ @ @ @ @ @ @ @ @ @ 5 D #X+X=X*X X1X5.p.uX8X9X8XF @ @ @ @ # z m M J r @ @ @ @ @ @ @ @ @ @ 8 @ @ @ @ @ @ @ @ @ @ @ @ @ @ @ @ @ ",
"@ @ @ @ @ @ @ @ @ @ @ v T K.XXI.G.1X1.7.iX9X9XuXH.@ @ @ @ @ @ l m Z M 5 @ @ @ @ @ @ @ @ @ @ @ @ @ @ @ @ @ @ @ @ @ @ @ @ @ @ @ @ ",
"@ @ @ @ @ @ @ @ @ @ 9 oXOX-X-Xd.%Xe.4.eX6.<.p.9.4 @ @ @ @ @ @ M M J b 4 @ @ @ @ @ @ @ @ @ @ @ @ @ @ @ @ @ @ @ @ @ @ @ @ @ @ @ @ ",
"@ @ @ @ @ @ @ @ 5 4 Y XX=X=XXX%Xz.:.5X0Xk.l.1.; h b 5 4 @ @ @ N M J r @ @ @ @ @ @ @ @ @ @ @ @ @ @ @ @ @ @ @ @ @ @ @ @ @ @ @ @ @ ",
"@ @ @ @ @ @ @ @ @ F XX&X-XXX%Xf.:.0XqXqX6X<XD K oX XG.4 @ @ @ D Z D # 4 @ @ @ @ @ @ @ @ @ @ @ @ @ @ @ @ @ @ @ @ @ @ @ @ @ @ @ @ ",
"@ @ @ @ @ @ @ @ S .X-X2XOX$Xg.4.wXx.:.4.>.1 R <X-X:X:Xy @ @ @ 8 k 4 @ @ @ @ @ @ @ @ @ @ @ @ @ @ @ @ @ @ @ @ @ @ @ @ @ @ @ @ @ @ ",
"@ @ @ @ @ @ @ 9 F.&X=X+X#X>X2.c.8X,XyX5XP N *X7X4X4XG.@ @ @ @ # 8 4 @ @ @ @ @ @ @ @ @ @ @ @ @ @ @ @ @ @ @ @ @ @ @ @ @ @ @ @ @ @ ",
"@ @ @ @ @ @ @ b XX=X&X#X;X3.x.c.6.6.r.b   # 4 5 6 6 5 @ @ @ @ 4 5 5 @ @ @ @ @ @ @ @ @ @ @ @ @ @ @ @ @ @ @ @ @ @ @ @ @ @ @ @ @ @ ",
"@ @ @ @ @ @ @ A #X#X.X*X<.l.,Xv.c.x.' + 6 # @ @ @ @ @ @ @ @ @ @ @ @ @ @ @ @ @ @ @ @ @ @ @ @ @ @ @ @ @ @ @ @ @ @ @ @ @ @ @ @ @ @ ",
"@ @ @ @ @ @ @ A oX XOXr.6.eXv.v.wXF.B H.T s.G @ @ @ @ @ @ @ @ @ @ @ @ @ @ @ @ @ @ @ @ @ @ @ @ @ @ @ @ @ @ @ @ @ @ @ @ @ @ @ @ @ ",
"@ @ @ @ @ @ # N oX*Xt.y.rXk.6.3.,.- K.1X-X-X-X5 @ @ @ @ @ @ @ @ @ @ @ @ @ @ @ @ @ @ @ @ @ @ @ @ @ @ @ @ @ @ @ @ @ @ @ @ @ @ @ @ ",
"@ @ @ @ @ @ 4 v #Xz.6.v.yXrXrX*XJ I *X7X4X4XT # @ @ @ @ @ @ @ @ @ @ @ @ @ @ @ @ @ @ @ @ @ @ @ @ @ @ @ @ @ @ @ @ @ @ @ @ @ @ @ @ ",
"@ @ @ @ @ @ 5 A f.6.n.h.6.k.[ r 8 w A S D B @ @ @ @ @ @ @ @ @ @ @ @ @ @ @ @ @ @ @ @ @ @ @ @ @ @ @ @ @ @ @ @ @ @ @ @ @ @ @ @ @ @ ",
"@ @ @ @ @ @ 8 3 <.0X,Xv.b.0.; 5 @ @ 4 @ 8 @ @ @ @ @ @ @ @ @ @ @ @ @ @ @ @ @ @ @ @ @ @ @ @ @ @ @ @ @ @ @ @ @ @ @ @ @ @ @ @ @ @ @ ",
"@ @ @ @ @ @ @ : a.4X7X7X3Xy + @ I I @ @ @ @ @ @ @ @ @ @ @ @ @ @ @ @ @ @ @ @ @ @ @ @ @ @ @ @ @ @ 8 @ @ @ @ @ @ @ @ @ @ @ @ @ @ @ ",
"@ @ @ @ @ @ @ + y n v A 9 @ @ @ U U @ @ @ @ @ @ @ @ @ @ @ @ @ @ @ @ @ @ @ @ @ @ @ @ @ @ @ @ @ @ @ @ @ @ @ @ @ @ @ @ @ @ @ @ @ @ ",
"@ @ @ @ @ @ @ @ @ @ @ @ @ @ @ @ @ @ @ @ @ @ @ @ @ @ @ @ @ @ @ @ @ @ @ @ @ @ @ @ @ @ @ @ @ @ @ @ @ @ @ @ @ @ @ @ @ @ @ @ @ @ @ @ ",
"@ @ @ @ @ @ @ @ @ @ @ @ @ @ @ @ @ @ @ @ @ @ @ @ @ @ @ @ @ @ @ @ @ @ @ @ @ @ @ @ @ @ @ @ @ @ 8 @ @ @ @ @ @ @ @ @ @ @ @ @ & 8 @ @ ",
"@ @ @ @ @ @ @ @ @ @ @ @ @ @ @ @ @ @ @ @ @ @ @ @ @ @ @ @ @ @ @ @ @ @ @ @ @ @ @ @ @ @ @ @ @ @ @ @ @ @ @ @ @ @ @ @ @ @ @ @ @ @ @ @ ",
"@ @ @ @ @ @ @ @ @ @ @ @ @ @ @ @ @ @ @ @ @ @ @ @ @ @ @ @ @ @ @ @ @ @ @ @ @ @ @ @ @ @ @ @ @ @ @ @ @ @ @ @ @ @ @ @ @ @ @ @ @ @ @ @ ",
"@ @ @ @ @ @ @ @ @ @ @ @ @ @ @ @ @ @ @ @ @ @ @ @ @ @ @ @ @ @ @ @ @ @ @ @ @ @ @ @ @ @ @ @ @ @ @ @ @ + @ @ @ @ @ @ 8 + 8 + I I 4 8 ",
"@ @ @ @ @ @ @ @ @ @ @ @ @ @ @ @ @ @ @ @ @ @ @ @ @ @ @ @ @ @ @ @ @ @ @ @ @ @ @ @ @ @ @ @ @ @ @ @ @ 8 @ @ @ @ @ @ + 8 + 8 L I 8 + ",
"@ @ @ @ @ @ @ @ @ @ @ @ @ @ @ @ @ @ @ @ @ @ @ @ @ @ @ @ @ @ @ @ @ @ @ @ @ @ @ @ @ @ @ @ @ @ @ @ @ @ @ @ @ @ @ @ 8 + 8 + 8 4 + 8 ",
"@ @ @ @ @ @ @ @ @ @ @ @ @ @ @ @ @ @ @ @ @ @ @ @ @ @ @ @ @ @ @ @ @ @ @ @ @ @ @ @ @ @ @ @ @ @ @ @ @ @ @ @ @ @ @ @ @ @ + 8 + + 8 + "
};
