/* XPM */
static char *_6539_0ce903142ff0279b47ae06a57ba46f97bea4ac7e6b382fd27af9291dd96e9096[] = {
/* columns rows colors chars-per-pixel */
"64 64 232 2 ",
"   c #2C2D2B",
".  c #262E2D",
"X  c #2D2F37",
"o  c #2F343F",
"O  c #27343E",
"+  c #343334",
"@  c #32353C",
"#  c #33393E",
"$  c #3B3C3D",
"%  c #3A3537",
"&  c #2E302F",
"*  c #6E361D",
"=  c #48342B",
"-  c #463A39",
";  c #56382D",
":  c #673926",
">  c #783C24",
",  c #603F33",
"<  c #54311E",
"1  c #43413D",
"2  c #56453D",
"3  c #734D3A",
"4  c #193952",
"5  c #2D3541",
"6  c #2E3943",
"7  c #283949",
"8  c #313741",
"9  c #323A44",
"0  c #3B3E43",
"q  c #343E49",
"w  c #19415E",
"e  c #3D4144",
"r  c #35424D",
"t  c #3B424B",
"y  c #354145",
"u  c #364451",
"i  c #3C4652",
"p  c #3E4954",
"a  c #154B71",
"s  c #34506E",
"d  c #454545",
"f  c #42454C",
"g  c #444B4C",
"h  c #494A4A",
"j  c #4A4646",
"k  c #554B47",
"l  c #58514E",
"z  c #454C53",
"x  c #4A4F54",
"c  c #444C58",
"v  c #45525B",
"b  c #4D555C",
"n  c #4C5155",
"m  c #545454",
"M  c #545A5D",
"N  c #5B5C5B",
"B  c #555758",
"V  c #69544A",
"C  c #795A48",
"Z  c #635E5C",
"A  c #5D605F",
"S  c #766359",
"D  c #485967",
"F  c #545C63",
"G  c #5C5D61",
"H  c #5B646B",
"J  c #596367",
"K  c #5B6B76",
"L  c #4E6D7A",
"P  c #62696B",
"I  c #6C6B6B",
"U  c #666667",
"Y  c #746E6D",
"T  c #666B72",
"R  c #686F76",
"E  c #69737B",
"W  c #687278",
"Q  c #747574",
"!  c #787879",
"~  c #79736F",
"^  c #953C17",
"/  c #883B1A",
"(  c #A53E16",
")  c #B43F12",
"_  c #813D21",
"`  c #98411A",
"'  c #8D401B",
"]  c #A84313",
"[  c #BA4A12",
"{  c #B54713",
"}  c #B5410C",
"|  c #935130",
" . c #BA5724",
".. c #AA5D3A",
"X. c #A3633D",
"o. c #CA490B",
"O. c #C7460B",
"+. c #D8480A",
"@. c #DD540B",
"#. c #D65316",
"$. c #C94E14",
"%. c #E44A05",
"&. c #ED5405",
"*. c #ED5509",
"=. c #E8570A",
"-. c #F25405",
";. c #F55C06",
":. c #F25708",
">. c #F45B09",
",. c #F95A08",
"<. c #E75816",
"1. c #F05F15",
"2. c #D8621C",
"3. c #EB641B",
"4. c #CF5A27",
"5. c #C96738",
"6. c #DC6C36",
"7. c #EA6528",
"8. c #E56D36",
"9. c #8C5A43",
"0. c #8D654E",
"q. c #9E6A4A",
"w. c #97735E",
"e. c #926C58",
"r. c #A76849",
"t. c #AA795D",
"y. c #B97857",
"u. c #AC6D4C",
"i. c #927768",
"p. c #AC7D65",
"a. c #CA7746",
"s. c #D87D4B",
"d. c #CB7D51",
"f. c #E37D43",
"g. c #7E807A",
"h. c #BE835A",
"j. c #988478",
"k. c #83837F",
"l. c #B88569",
"z. c #A78A78",
"x. c #B78C72",
"c. c #AF8369",
"v. c #D7814D",
"b. c #C78258",
"n. c #D48354",
"m. c #DA8454",
"M. c #DA8B5C",
"N. c #D9895A",
"B. c #C78967",
"V. c #D58E64",
"C. c #D68D66",
"Z. c #D3926D",
"A. c #D79169",
"S. c #CB997C",
"D. c #CD9675",
"F. c #D19472",
"G. c #D1977A",
"H. c #CE946D",
"J. c #E1844F",
"K. c #1A5E91",
"L. c #105B8B",
"P. c #275190",
"I. c #29528B",
"U. c #1C668E",
"Y. c #03649D",
"T. c #1D6E91",
"R. c #327090",
"E. c #0F70B2",
"W. c #2670A7",
"Q. c #527885",
"!. c #437790",
"~. c #757D84",
"^. c #6A7782",
"/. c #0971D6",
"(. c #0C71D9",
"). c #0B79CD",
"_. c #817D83",
"`. c #3A87AA",
"'. c #328DB9",
"]. c #1185BE",
"[. c #788189",
"{. c #458FB3",
"}. c #5CA9BB",
"|. c #7DAEB7",
" X c #709DA9",
".X c #309CC0",
"XX c #0C9DEA",
"oX c #0396F9",
"OX c #069AF3",
"+X c #0F97E4",
"@X c #09A1ED",
"#X c #17A5EA",
"$X c #15A2F1",
"%X c #128FD3",
"&X c #5DAAC2",
"*X c #46CEF4",
"=X c #43D2FC",
"-X c #48D3FA",
";X c #86898A",
":X c #8B8C8C",
">X c #858686",
",X c #9C8C84",
"<X c #928F8D",
"1X c #998E89",
"2X c #8E908E",
"3X c #94908C",
"4X c #8B8E92",
"5X c #8E9191",
"6X c #939393",
"7X c #9B9A9A",
"8X c #989697",
"9X c #908E90",
"0X c #A18B80",
"qX c #BA9884",
"wX c #9CA09F",
"eX c #BBA499",
"rX c #A1A09F",
"tX c #9D9EA0",
"yX c #9FA1A5",
"uX c #91AAB1",
"iX c #89AAB2",
"pX c #A4A4A6",
"aX c #BDAAA2",
"sX c #B4B5B6",
"dX c #C89D84",
"fX c #C5A28F",
"gX c #88E7F8",
"hX c #B4ECF5",
"jX c #BAECF7",
"kX c #B6F0F9",
"lX c #AFE8F0",
"zX c #C0EFF9",
/* pixels */
"o o o o o o o o o o o o o o o o o o o o o o o o o o o o o o o o o o o o o o o o o o o o o o o o o o o o 5 8 X 8 X 8 8 8 X o o o ",
"o o o o o o o o o o o o o o o o o o o o o o o o o o o o # 9 o o o o # # o o o o o o o o o o o o o o o 5 @ 5 8 5 5 8 X 8 8 8 o o ",
"o o o o o 5 o o o o o o o o o o o o o o o o o o 5 8 o 4 a T.R.Q.Q.Q.R.T.L.a O @ o o o o o o o o o o o o 5 5 @ 5 5 5 5 8 o o o o ",
"o o o o o o o o o o o o o o o o o o o o o o o o 8 8 5 a ].'.}.uXiX|.}..XE.a 7 5 o o o @ o o o o o o o o 8 X 5 @ X 8 8 X o o o o ",
"o o o o o o o o o o o o o o o o o o o o o o o o 5 5 O K.+X*X-XzXjXlXgX-X@XY.4 @ o o T T o o o o o o o o o o 5 5 o o o o o o o o ",
"o o o o o o o 5 o o o 8 o o o o o 8 o o o o o o @ 5 o P.$X*XgXkXzXkXgX-X#XY.4 @ o o T T o o o 8 o o 5 5 o o 8 5 o o o o o o o o ",
"o o o o @ @ 5 @ o o 8 5 5 8 o o 8 8 o o o o o o 5 5 5 K.$X=XgXkXzXjXgX-X#XY.4 @ o o o o o o 5 5 o 8 @ 8 o 8 5 8 o o o o o o o o ",
"o o o o 5 5 o o X - - j q i f q q q 8 o o o o o X 8 5 K.#X=XgXhXjXjXgX-X#XY.4 O o o o o o o 6 q q i i u q j - - o o o o o o o o ",
"o o o o o o o o q V 9.0.Y Q R ^.R H D q @ 8 o o o o O K.#X-X-XkXzXjXgX-X#XY.4 @ @ # o o o 9 v H T R E E Y 0...V 8 o o o o o o o ",
"o o o o o o o o c Y B.d.p.0X9X_.5X2X~.F q o 5 5 o o o U.$X-XlXhXjXkXgX-X#XY.4 + O O @ O t M ! :X4X:X4X8Xp.d.G._.q o o o o o o o ",
"o o o o o o o o v ~.eXD.d.B.0X:X4X8X5X>XP c 5 8 o o o K.$X=XgXkXzXjXgX-X#XY.4 o 5 5 6 i H [.6X8X9X4X1Xy.s.F.aX_.q 8 8 8 o o o o ",
"o o o o o o o o v ~.aXG.C.s.d.z.9X6X8X8X>XR c 9 o o 7 T.#X=XgXhXjXjXgX-X#XY.w O o q p R >X6X8X6X9Xz.d.s.C.G.sX_.q 8 5 8 o o o o ",
"o o o o o o o o c ^.eXC.A.dXs.d.z.:X6X8X6X2XE F r 9 i R.{.&X|.uXuXuX X{.R.a y O r b W :X6X8X6X2Xz.d.N.S.A.s.aX~.q o o o o o o o ",
"o o o o o o o o q D i.s.A.dXA.M.v.x.<X5X8X8X:X! P v v F E E E P B m g y 6 6 O r J ! ;X6X8X3X3Xz.d.m.Z.dXA.d._.T 5 o o o o o o o ",
"o o o o o o o 5 5 7 k ..B.Z.C.dXV.v.l.1X2X8X5X;X>XE F P I I A h d 1 $ & . . + M [.:X2X5X5X3Xc.v.C.F.C.Z.d.u.l 9 8 o o o o o o o ",
"o o o o o o o 5 8 8 @ 2 i.C.J.dXD.N.v.l.3X2X:X5X5X;XQ I Y I N j j j $ & . . $ U >X3X:X2X1Xl.v.N.G.dXN.C.i.2 8 o o o o o o o o o ",
"o o o o o o o o o o o 8 G u.n.G.M.F.A.v.b.,X:X:X8X:XY I I I B d d d $ &     + U <X9X:X1Xl.s.A.Z.V.F.n.t.G 9 5 o o o o o o o o o ",
"o o o o o o o o o o o 9 D C w.x.m.F.fXM.v.b.,X:X6X9XQ I Q I N h j j 1 &     $ I :X9X,Xb.s.V.dXF.N.B.w.S F 7 5 8 o o o o o o o o ",
"o o o o o o o o o o @ q P Q U e.a.A.Z.C.G.v.b.z.4X4X_.! ! ! U B m m h $ + % 1 P >Xz.b.m.A.A.F.A.d.e.S Q T q o o o o o o o o o o ",
"o o o o o o o o o o 8 u ~.8X! l 3 z.V.N.fXF.J.d.z.:X_.! g.! I N N N n 1 - $ h Y z.b.v.F.fXM.M.p.C l ! 8X~.q o o o o o o o o o o ",
"o o o o o o o o o o o c ~.yX;XF O U b.m.S.M.A.N.s.c.>Xi.u.u.9.k d k 3 | | V Z w.b.m.A.Z.G.C.d.U q F >XpX~.u o o o o o o o o o o ",
"o o o o o o o o o o o i ~.tX:XF O g 9.c.S.J.S.eXV.a.q...1.=.O.' ; > [ %.@. .q...N.fXS.N.C.p.9.z 7 F ;XyX~.i o 5 o o o o o o o o ",
"o o o o o o o o o o 8 q T 6X>Xb O b U I c.f.S.sXaXd. .#.;.&.+.} ) ) +.&.:.@.$.y.eXsXdXn.t.Y I c q F _.8XE q 5 5 o o o o o o o o ",
"o o o o o o o o o o 5 8 f J G t 6 T 6XQ V r.qXsXpXi.4.-.,.&.[ > * 3 ] &.;.=.4.p.rXsXqXq.C Q 9X^.q q N G p 5 5 5 o o o o o o o o ",
"o o o o o o o o o o o o o o o o 6 W yX2XN j ~ pXpXw.#.-.,.:.[ : = : { &.;.&.#.t.8XyXi.x G _.tX^.q o o o o o o o o o o o o o o o ",
"o o o o o o o o o o o o o o o o 7 R rX6XI q f E ;Xw.#.-.;.:.+.] ^ ( o.&.;.&.#.u._.^.q q H 9X8X^.q o o o o o o o o o o o o o o o ",
"o o o o o o o o o o o o o o o o 5 H 8X2XJ q @ q D 0.@.-.>.=.$.' / ' } &.;.;.#.| m q 5 8 H 9X8XT 9 5 o o o o o o o o o o T T o o ",
"o o o o o o o o o o o o o o o o o z H T f 5 5 o 5 > +.-.>.=.{ : = : ] =.,.-.+.3 % 5 8 5 i H H i 5 8 o o o o o o o o 5 o T T o o ",
"o o o o o 8 o o o o o o o o o o o o 9 9 5 o o o 5 : +.-.:.&.+.] / ^ O.&.;.:.o.* X 8 5 8 5 8 8 @ 5 5 @ 5 o o o o o o o o o o o o ",
"o o o o o o o o o o o o o o o o o o o o o o o o 8 : O.:.,.*.o.` ^ ` O.&.;.:.O.: X 5 X 8 8 5 5 8 5 @ 5 @ o o o o o o o o o o o o ",
"o o o o o o o o o o o o o o o o o o o o o 5 o o 5 : O.-.,.*.[ : = : { *.:.-.O.: 5 5 5 5 5 5 5 5 @ 5 5 X o o o o o o o o o o o o ",
"o o o o o o o o o o o o o o o o 5 o 5 t f f f e 0 : O.&.,.:.o.' > ' O.:.>.-.) * X X % 0 % % 5 X 5 8 5 5 o o o o o o o o o o o o ",
"o o o o o o o o o o o o o o 5 o 5 5 0 n G N B l g , [ &.>.>.%.[ ( { @.>.>.&.} *   + % 1 d e y o O o o o o o o o o o o o o o o o ",
"o o o o o o o o o o o o o o o o 6 5 9 x G Z N B x , ] *.=.>.=.$.{ $.=.:.=.%.( < + 0 d h h e 9 6 o o o o o o o o o o o o o o o o ",
"o o o o o o o o o o o o o o o o 5 5 5 q z N N G N 2 ] %.%.%.1.3.2.2.3.*.%.+.( = d h h f t 9 O 5 6 o o o o o o o o o o o o o o o ",
"o o o o o o o o o o o o o o o o 5 @ 5 @ 9 q f z b k ' +.%.+.7.8.5.6.7.<.%.+.' ; t t q 9 o o o o o o o o o o o o o o o o o o o o ",
"o o o o o o o o o o o o o o o o o o o o o o o 8 y 0 : O.%.*.8...9...8.<.%.O.* % 5 5 8 5 o o o o o o o o o o o o o o o o o o o o ",
"o o o o o o o o o o o o o o o o o o @ o o o o o @ o - ^ +.7.a.9.- , 5.7.+.( = o o o 5 @ o o o o o o o o o o o o o o o o o o o o ",
"@ 5 I T o o o o o o o o o o o o o o 5 5 o o o o 5 5 o < } 2.r.k 8 - 9.4.) : X o o o o o o o o o o o o o o o o o o o o o o o o o ",
"5 8 T T o o o o o o o o o o o o @ o 5 @ o o o o o 5 5 % > ..S k - d V | > = o o o o o o o o o o o o o o o o o o o o o o o o o o ",
"o o o 5 @ 5 5 8 o o o o o o o o 5 5 o o o o o o o o o o - V U N c j l k - o o o o o o o o o o o @ 5 o o o o o o o o o o o o o o ",
"o o o o 5 X @ 5 o o o o o o o o o o o o o o o o o o o o 5 x P L R.s n f 8 o o o o o o o o o o o 5 o o o o o o o o o o o o o o o ",
"o o o o X 8 5 X o o o o o o o o o o o o o o o o o o o o 5 c L W.E.P.v i 8 o o 5 o o o o o o o o @ 5 o o o o o o o o o o o o o o ",
"o o o o 8 5 8 8 o o o o o o o o o o o o o o o o o o o o 5 v !.].%XY.s t 5 o o @ o o o o o o o o o o o o o o 5 @ o o o o o o o o ",
"o o o o 5 X 8 5 o o o o o o o o o o o o o o o o o o # # o v R.%X+XE.s q 5 5 8 8 o o o o o o o o o o o o o o o o o o o o o o o o ",
"o o o o 8 5 5 5 o o o o o o o o o o o o o o o o @ O y 0 o b `.XXoX/.I.f 8 9 9 8 o o o o o o o o o o o o o o o o o o o o o o 5 @ ",
"o o o o X 8 % 5 o o o o o o o o o o o o o o o o o o e $ $ M `.XXoX/.P.i 0 8 0 8 o o o o o o o o o o o o o o o o o o o o o o o o ",
"o o o 8 8 8 X 5 o o o o o o o o o o o o o o o o o o e $ y J `.$XoX/.P.i 0 - 0 8 o o o o o o o o o o o o o o o o o o o o o o o o ",
"o o o o o o o o o o o o o o o o 8 X 8 5 X 8 o o o 8 f f # D `.@XoX(.P.p 0 0 f 9 o o o o o o o 8 o 5 5 o o o o o o o o o o o o o ",
"o o o o o o o o o o o o o o o o 5 8 8 5 5 5 8 8 o 8 z f O v `.@XoX(.P.i 8 t i 9 o o o o o o o 8 o @ o o o o o o o o o o o o o o ",
"o o o o o o o o o o o o o o o o X 8 8 5 % 5 X X 5 5 8 9 5 v `.XXoX(.P.q 5 8 8 8 o o o o o o 8 X o o o o o o o o o o o o o o o o ",
"o o o o o o o o o o o o o o o o 5 @ 5 5 5 5 8 8 5 8 5 8 O D `.$XoX(.P.t 8 5 o o o o o o o o 8 X o o o o o o o o o o o o o o o o ",
"o o o o o o o o o o o o o o o o @ 5 @ X o o o o 5 8 8 5 5 c W.$XoX(.P.q 8 X 8 o o o o o 8 8 5 8 o o o o o o o o o o o o o o o o ",
"o o o o o o o o o o o o o o o o 5 8 5 5 o o o o 8 X X 8 8 c {.OXoX(.P.q 8 8 8 o o o o o X 8 8 X o o o o o o o o o o o o o o o o ",
"o o o o o o o o o o o o o o o o T T o o o o o o 5 8 8 8 5 c !.$XoX(.I.f 8 X o o o o o o 5 5 5 8 o o o o o o o o o o o o o o o o ",
"o o o o o o o o o o o o o o o o T I o o o o o o X 8 X 8 5 j ^.W.%XW.D f o o o o o o o o 8 X 5 8 o o o o o o o o 5 o o o o o o o ",
"o o o o o o o o o o o o o o o o o o o o o o o o o o o o 8 q F K !.D x 9 o o 8 o o o o @ 5 @ 5 X o o o o o o o o o o o o o o o o ",
"o o o o o o o o o o o o o o o o o o o o o o o o o o o o 8 9 x U G k e 8 o o o o o o o 8 @ 5 @ 5 o o o o o o o o o o o o o o o o ",
"o o o o o o o o o o o o o o o o o o o o o o o o o o o o 5 o q G G z 9 o o o o o o o o o 5 5 5 5 o o o o o o o o o o o o o o o o ",
"o o o o o o o o o o o o o o o o o o o o o o o o 5 o o o o o 9 z G f 8 5 o o o o o o o o 5 X 8 @ o o o o o o o o o o o o o o o o ",
"o o o o o o o o o o o o o o o o o o o o o o o o o o o o o o o y z 0 o o o o o o o o o o o o o o o o o o o o o o o o o o T T 5 5 ",
"o o o o o o o o o o o o o o o o o o o o o o o o o o o o o o o 9 t 0 o o o o o o o o o o o o o o o o o o o o o o o o o o I T o o ",
"o o o o o o o o o o o o o o o o o o o o o o o o o o o o o o o o @ 5 o o o o o o o o o o o o o o o o o o o o o o o o o o o o o o ",
"o o o o o o o o o o o o o o o o o o o o o o o o o o o o o o o o o o o o o o o o o o o o o o o o o o o o o o o o o o o o o o o o "
};
