/* XPM */
static char *_3654_e256be94c606243400be7f9bde6e69c4e9f85da1fffad7af191ba940d35d6b1d[] = {
/* columns rows colors chars-per-pixel */
"64 64 231 2 ",
"   c #1A2B37",
".  c #272928",
"X  c #362928",
"o  c #37342D",
"O  c #292D33",
"+  c #292D37",
"@  c #2F343F",
"#  c #2C373A",
"$  c #333A3C",
"%  c #3B3B3B",
"&  c #363735",
"*  c #2F302C",
"=  c #70371B",
"-  c #56392D",
";  c #48352E",
":  c #683A23",
">  c #793A22",
",  c #45433C",
"<  c #594535",
"1  c #5E422F",
"2  c #79462C",
"3  c #6D4836",
"4  c #293543",
"5  c #2C3A43",
"6  c #2B3C4A",
"7  c #243444",
"8  c #353C46",
"9  c #2E3C50",
"0  c #023E66",
"q  c #1F3B4B",
"w  c #423D44",
"e  c #35434C",
"r  c #394448",
"t  c #2D4555",
"y  c #394A58",
"u  c #3A515A",
"i  c #2C414D",
"p  c #044166",
"a  c #044D7D",
"s  c #3D4C64",
"d  c #3C5463",
"f  c #3A5764",
"g  c #224D7E",
"h  c #434343",
"j  c #4B4C4C",
"k  c #494846",
"l  c #534D4B",
"z  c #54524E",
"x  c #53584C",
"c  c #494D52",
"v  c #424B56",
"b  c #4B535A",
"n  c #465257",
"m  c #535254",
"M  c #5C5D5D",
"N  c #575858",
"B  c #514F55",
"V  c #69554F",
"C  c #77685A",
"Z  c #63655D",
"A  c #445563",
"S  c #495B68",
"D  c #565B63",
"F  c #5A6468",
"G  c #596C73",
"H  c #5B7275",
"J  c #636463",
"K  c #6B6C6B",
"L  c #666869",
"P  c #726E6E",
"I  c #666A71",
"U  c #686C77",
"Y  c #697277",
"T  c #79797B",
"R  c #6D726E",
"E  c #933A16",
"W  c #923A11",
"Q  c #B43F0A",
"!  c #A83D15",
"~  c #AF3E0E",
"^  c #863820",
"/  c #CD3E05",
"(  c #93421B",
")  c #BA430A",
"_  c #AB4115",
"`  c #B14A14",
"'  c #8E4D2E",
"]  c #B95C2D",
"[  c #B6683D",
"{  c #A8683E",
"}  c #C7420C",
"|  c #D94608",
" . c #C25517",
".. c #D45110",
"X. c #E44C05",
"o. c #EB4E03",
"O. c #E44807",
"+. c #F14D02",
"@. c #EB5203",
"#. c #E55309",
"$. c #F55B05",
"%. c #F45C0B",
"&. c #F75807",
"*. c #E65217",
"=. c #F5620B",
"-. c #F96206",
";. c #EC6414",
":. c #F46A1A",
">. c #EE6A0D",
",. c #C45A26",
"<. c #DB7537",
"1. c #CF6E35",
"2. c #EB6726",
"3. c #E8742A",
"4. c #F47223",
"5. c #E56C37",
"6. c #E77736",
"7. c #F57735",
"8. c #F76D2F",
"9. c #96664E",
"0. c #B26C4B",
"q. c #87736D",
"w. c #935F4B",
"e. c #CB7D4A",
"r. c #D87946",
"t. c #CA7E53",
"y. c #E57D44",
"u. c #F27B47",
"i. c #7E837D",
"p. c #E5813E",
"a. c #B5825F",
"s. c #84847D",
"d. c #93837A",
"f. c #B88469",
"g. c #B18F7B",
"h. c #DB8857",
"j. c #D28350",
"k. c #E58349",
"l. c #E38B5A",
"z. c #C78666",
"x. c #D78D64",
"c. c #D49269",
"v. c #CC9878",
"b. c #D39776",
"n. c #CF956C",
"m. c #094B88",
"M. c #126591",
"N. c #297892",
"B. c #0F58B9",
"V. c #1257BC",
"C. c #1154A6",
"Z. c #255BA0",
"A. c #116FAD",
"S. c #297BAC",
"D. c #507886",
"F. c #747D84",
"G. c #7D7D82",
"H. c #697789",
"J. c #057ECE",
"K. c #877E89",
"L. c #2886B5",
"P. c #7B8185",
"I. c #718893",
"U. c #038AD9",
"Y. c #128BD1",
"T. c #14A1DB",
"R. c #0588E8",
"E. c #159DE2",
"W. c #048BF4",
"Q. c #019EFB",
"!. c #0692E8",
"~. c #01A2FD",
"^. c #0CA1E3",
"/. c #25BDFC",
"(. c #2ABCF3",
"). c #2CB4EE",
"_. c #1EC1FE",
"`. c #2AC6FD",
"'. c #31C6F8",
"]. c #5CDAEF",
"[. c #67D6ED",
"{. c #5FE8F9",
"}. c #64E3FB",
"|. c #68E4FB",
" X c #858584",
".X c #858A8C",
"XX c #8B8C8B",
"oX c #888888",
"OX c #928F8E",
"+X c #8D928D",
"@X c #97948C",
"#X c #8A8B93",
"$X c #8C9293",
"%X c #8C979A",
"&X c #949394",
"*X c #9A9594",
"=X c #9C9A96",
"-X c #97989A",
";X c #A89283",
":X c #A39D9A",
">X c #AD8F82",
",X c #BEA89B",
"<X c #A2A29E",
"1X c #9A9CA3",
"2X c #A09FA2",
"3X c #99A2A7",
"4X c #A7A7A8",
"5X c #B8ACA6",
"6X c #B7B1AB",
"7X c #A6AAB5",
"8X c #B6B5B5",
"9X c #AFB3B7",
"0X c #CB9C84",
"qX c #C29E92",
"wX c #D29A87",
"eX c #C6A38A",
"rX c #C5A498",
"tX c #D6A085",
"yX c #C2ACA4",
"uX c #B4BAC4",
"iX c #AFC0C1",
"pX c #9DDFEA",
"aX c #A9DEEB",
"sX c #B6E1E8",
"dX c #ACEDF8",
"fX c #BAEEF8",
"gX c #AAF0F9",
"hX c #BAF2FB",
"jX c #A5E0E7",
"kX c #C2EEF8",
"lX c #C1F3F9",
/* pixels */
"@ @ @ @ @ @ @ @ @ 5 @ @ @ @ @ @ @ @ @ @ @ @ @ @ @ @ @ @ @ @ @ @ @ @ @ @ @ @ @ @ @ @ @ @ @ @ @ @ @ @ @ @ @ @ @ @ @ @ @ @ @ @ @ @ ",
"@ @ @ @ @ @ @ @ @ @ @ @ @ @ @ @ @ @ @ @ @ @ @ @ @ @ @ @ @ @ @ @ @ @ @ @ @ @ @ @ @ @ @ @ @ @ @ @ @ @ @ @ @ @ @ @ @ @ @ @ @ @ @ @ ",
"@ @ @ @ @ @ @ @ @ @ @ @ @ @ @ @ @ @ @ @ @ @ @ @ @ @ @ @ @ @ @ @ @ @ @ @ @ @ @ @ @ @ @ @ @ @ @ @ @ @ @ @ @ @ @ @ @ @ @ @ @ @ @ @ ",
"@ @ @ @ @ @ @ @ @ @ @ @ @ @ @ @ @ @ @ @ @ @ @ @ @ @ @ @ @ @ @ @ @ @ @ @ @ @ @ @ @ @ @ @ @ @ @ @ @ @ @ @ @ @ @ @ @ @ @ @ @ @ @ @ ",
"@ @ @ @ @ @ @ @ @ @ @ @ @ @ @ @ @ @ @ @ @ @ @ @ @ @ @ @ @ @ @ @ @ @ @ @ @ @ @ @ @ @ I I @ @ @ @ @ @ @ @ @ @ @ @ @ @ @ @ @ @ @ @ ",
"@ @ @ @ @ @ @ @ @ @ @ @ @ @ @ @ @ @ @ @ @ @ @ @ @ @ @ @ @ @ 8 $ @ @ @ @ @ @ @ @ @ @ K U @ @ @ @ @ @ @ @ @ @ @ @ @ @ @ @ @ @ @ @ ",
"@ @ @ @ @ @ @ @ @ @ @ @ @ @ @ @ @ @ @ @ @ @ @ @ @ @ @ @ @ @ @ @ @ @ @ @ @ @ @ @ @ @ @ @ @ @ @ @ @ @ @ @ 4 @ @ @ @ @ @ @ @ @ @ @ ",
"@ @ @ @ @ @ @ @ @ @ @ @ @ @ @ @ @ @ @ @ @ @ @ @ @ @ @ @ @ @ @ @ @ @ @ @ @ @ @ @ @ @ @ @ @ @ @ @ @ @ @ @ @ @ @ @ @ @ @ @ @ @ @ @ ",
"@ @ @ @ @ @ @ @ K I @ @ @ @ @ @ @ @ @ @ @ @ @ @ @ @ @ @ @ @ @ @ @ @ @ @ @ @ @ @ @ @ @ @ @ @ @ @ 5 6 e A s A u + @ @ @ @ @ @ @ @ ",
"@ @ @ @ @ @ @ @ I I @ @ @ @ @ @ @ @ @ @ @ @ @ @ @ @ @ @ @ @ @ @ @ @ @ @ @ @ @ @ @ @ @ @ @ @ @ @ 4 t 3X7X7X4Xt.: @ @ @ @ @ @ @ @ ",
"@ @ @ @ @ @ @ @ 4 @ @ @ @ @ @ @ @ @ @ @ @ @ @ @ @ @ @ @ @ @ @ @ @ @ @ @ @ @ @ @ 4 4 @ @ 5 @ @ @ ; 0.b.v.,Xv.1.V @ @ @ @ @ @ @ @ ",
"@ @ @ @ @ @ @ @ @ @ @ @ @ @ @ @ @ @ @ @ @ @ @ @ @ @ @ @ @ @ @ @ @ @ @ @ @ @ @ @ 4 A D D n e 9 r 0.7.6.h.n.6.t.A @ @ @ @ @ @ @ @ ",
"@ @ @ @ @ @ @ @ @ @ @ @ @ @ @ @ @ @ @ @ @ @ @ @ @ @ @ @ @ @ @ @ @ @ @ @ @ @ @ @ q.4X4X4X=XI Z @X,XrXyXv.6.z.#Xu @ @ @ @ @ @ @ @ ",
"@ @ @ @ @ @ @ @ @ @ @ @ @ @ @ @ @ @ @ @ @ @ @ @ @ @ @ @ @ @ @ @ @ @ @ @ @ @ @ @ -X-X-X-Xs., ] 4.3.h.qXy.t.*XoXB @ @ @ @ @ @ @ @ ",
"@ @ @ @ @ @ @ @ @ @ @ @ @ @ @ @ @ @ @ @ @ @ @ @ @ @ @ @ @ @ @ @ @ @ @ @ @ @ @ @ G s.T H.m P.eXwXv.0Xy.r.&X XoXD @ @ @ @ @ @ @ @ ",
"@ @ @ @ @ @ @ @ @ @ @ @ @ @ @ @ @ @ @ @ @ @ @ @ @ @ @ @ @ @ @ @ @ @ @ @ @ @ @ @ 5 5 e + ' h.x.b.5Xk.<.@X X.X#XS @ @ @ @ @ @ @ @ ",
"@ @ @ @ @ @ @ @ @ @ @ @ @ @ @ @ @ @ @ @ @ @ @ @ @ @ @ @ @ 6 5 4 @ @ @ @ @ 7 6 i 4 7   c y.k.6.c.x.3.;X#X&X:XXXn # @ @ @ @ @ @ @ ",
"@ @ @ @ @ @ @ @ @ @ @ @ @ @ @ @ @ @ @ @ @ @ @ @ @ @ @ @ @ @ $ @ @ @ @ @ P.4X4X4X*XN P 5XyX,X8Xc.2.>X#X$X=X$XF.t @ @ @ @ @ @ @ @ ",
"@ @ @ @ @ @ @ @ @ @ @ @ @ @ @ @ @ @ @ @ @ @ @ @ @ @ @ @ @ 7 k 5 @ @ @ y 2X:X2X<XU 1 >.4.;.x.wX:.g.+X$X2X1X XS @ @ @ @ @ @ @ @ @ ",
"@ @ @ @ @ @ @ @ @ @ @ @ @ @ @ @ @ @ @ @ @ @ @ @ @ @ @ @ @ D J F @ @ @ 4 P.s.oXK S :XyXeXrXeX:.f.%XXX-X&XoXL @ @ @ @ @ @ @ @ @ @ ",
"@ @ @ 8 @ @ @ @ @ @ @ @ @ @ @ @ @ @ @ @ @ @ @ @ @ @ @ @ r F M N @ @ @ @ 7 b r o 1.l.k.v.6X:.z.$XoX:X*XXXY 4 @ @ @ @ @ @ @ @ @ @ ",
"@ @ @ @ @ @ @ @ @ @ @ @ @ @ @ @ @ @ @ @ @ @ @ @ @ @ @ @ b C M D @ @ @ @ @ @ @ 9.7.6.3.,X4.e.%XoX1X*XXXK.9 @ @ @ @ @ @ @ @ @ @ @ ",
"@ @ @ @ @ @ @ @ @ @ @ @ @ @ @ @ @ @ @ @ @ @ @ @ @ @ @ 5 M M m l # @ @ @ @ @ F.iX9X9XiX7.1.1XG..X.Xs.T v @ @ @ @ @ @ @ @ @ @ @ @ ",
"@ @ @ @ @ @ @ @ @ @ @ @ @ @ @ @ @ @ @ @ @ @ @ @ @ @ @ r J M m x # @ @ @ @ G 8X9X8XuXp.5.1X X*X=X$X.XG 4 @ @ @ @ @ @ @ @ @ @ @ @ ",
"@ @ @ @ @ @ @ @ @ @ @ @ @ @ @ @ @ @ @ @ @ @ @ @ @ @ @ c N j r 8 @ @ # @ 6 I.oX@X9Xl.:.:XoX$X=X-X XG.4 4 @ @ @ @ @ @ @ @ @ @ @ @ ",
"@ @ @ @ @ @ @ @ @ @ @ @ 4 # e 5 @ @ @ @ @ @ @ @ @ @ @ h < : > ( E W ! ) ` ,.] { 9.| @X XK.OXs.T oXy v 4 @ @ @ @ @ @ 8 4 @ @ @ @ ",
"@ @ @ @ @ @ @ @ @ 8 + @ @ n J j h z % @ @ @ @ @ @ O ^ ) | o.@.+.+.&.+.+.+.+.+.+.O.' T T G.L J J I 8 F q @ @ @ 7 @ @ @ 7 I I @ @ ",
"@ @ @ @ @ @ @ @ @ @ @ @ @ @ @ O & # @ @ @ @ @ 4 ; Q o.o.o.X.@.@.&.&.%.%.%.&.$.&.&.&.[ P.i.T K P R L H.Y.R.R.U.R.R.U.U.J.a I @ @ ",
"@ @ @ @ @ @ 4 8 @ + # 4 5 4 5 c j r # 7 7 7 5 ( | O.+.O.| O.=.=.&.$.-.-.&.$.$.&.&.&.>.q.G.T K K K P I.(./././././././.).M.@ @ @ ",
"@ @ @ @ @ @ 8 M I U U U H H H U H I G G I L Z q.t.8.2.*.O.&.-.#.X.X.X.| #.#.X.#.O.| ..q.F.J L L K J I.[.{.{.}.}.}.{.{.].N.+ @ @ ",
"@ @ @ @ 8 M K U S.T.E.E.^.T.T.E.E.T.Y.L.L.G Z Z B w.r.u.8.=...| ( ' | ! 2 } ) 2 ) | ' Z J z j c x N P.jXdXdXdXdXdXdXdXjXD.@ @ @ ",
"@ @ 8 N I L J S.~.~.~.Q.~.Q.Q.~.~.~.^.R.Y.M.S k w @ < 0.3. .( _ o - } ; o ) :   Q W   N N k w % h h Y sXlXfXfXfXkXkXkXsXD.@ @ @ ",
"@ @ r z b x D S.!.R.W.W.W.W.W.W.W.W.W.J.A.A.f ; & & k ' 2.,._ ~ o = } ; ; } : * } ^ 8 N J m j j m h Y sXhXlXkXkXkXfXlXsXD.@ @ @ ",
"@ @ 5 @ r c z b Z.B.B.B.V.B.B.V.V.V.C.m.m.s B j w V 1.u.8.;.` } = 2 ..E - } ! < ` / 1 N M w % ; ; $ I aXgXdXdXdXdXdXgXjXD.5 @ @ ",
"@ @ @ @ 5 @ 8 c b s s s s s A s s v v v m m B V { r.8.2.*.-.-.@.@.X.#.| #.X.| #.#.X..., k h & % % * S [.}.|.|.}.|.}.|.].N.@ @ @ ",
"@ @ @ @ @ @ @ @ @ 5 $ $ @ @ 8 k j w 8 8 5 8 9 ^ *.O.X.O.| @.=.=.%.&.$.$.$.$.$.$.&.%.#.& % . . . . . u ).`.`.`.'.'.`.'.).M.@ @ @ ",
"@ @ @ @ @ @ @ @ @ @ @ @ 4 @ @ # @ + 5 @ @ @ @ X = Q O.O.| O.+.$.%.=.%.&.%.$.$.-.%.%.,.% w & X * & . t Y.U.U.U.U.U.U.U.J.a @ @ @ ",
"@ @ @ @ @ @ @ @ @ @ @ @ 5 e B h ; v 5 @ @ @ @ @ 4 X E / | | X.@.o.o.o.+.@.o.#.X.| ` C r % O . . .   5 p 0 0 0 0 0 0 0 0 4 @ @ @ ",
"@ @ I I @ @ @ @ @ @ @ @ @ 8 j 8 # r 4 @ @ @ @ @ @ 4 + - : = W W ! E ! ~ ,.,.,.[ [ ] d.B j c k k c 5 @ @ + @ @ @ @ @ @ @ @ @ @ @ ",
"@ @ I I @ @ @ @ @ @ @ @ @ @ @ @ 5 @ @ @ @ @ @ @ @ 4 4 8 h . . X + @ O X l q.q.OX<Xy.<.d.G. XoX Xi.G @ @ @ @ @ @ @ @ @ @ @ @ @ @ ",
"@ @ @ @ @ @ @ @ @ @ @ @ @ @ @ @ @ @ @ @ @ @ @ @ @ @ @ 6 B h & O 4 @ @ @ @ F 7X9X8X6Xy.r.@X+X-X*XOXoXD 4 @ @ @ 4 @ @ @ @ @ @ @ @ ",
"@ @ @ @ @ @ @ @ @ @ @ @ @ @ @ @ @ @ @ @ @ @ @ @ @ @ @ @ n k & & @ @ @ @ @ @ H.6X6X6XrXy.e.&XoXXX$XoXT y @ @ @ @ @ @ @ @ @ @ @ @ ",
"@ @ @ @ @ @ @ @ @ @ @ @ @ @ @ @ @ @ @ @ @ @ @ @ @ @ @ @ r m , % @ @ @ @ 5 @ @ q.x.h.h.v.7.t.&X.XOX&XoXF.i @ @ @ @ @ @ @ @ @ @ @ ",
"@ @ @ @ @ @ @ @ @ @ @ @ @ @ @ @ @ @ @ @ @ @ @ @ @ @ @ @ 8 c h , @ @ @ @ 5 y r < [ l.h.qXrX3.f.&X+X&X-XXXY 4 @ @ @ @ @ @ @ @ @ @ ",
"@ @ @ @ @ @ @ @ @ @ @ @ @ @ @ @ @ @ @ @ @ @ @ @ @ @ @ @ # v k h @ @ @ 4 T G.G.Z Z >Xb.b.v.c.6.f.$X.X=X*X.XF 4 @ @ @ @ @ @ @ @ @ ",
"@ @ @ @ @ @ @ @ @ @ @ @ @ @ @ @ @ @ @ @ @ @ @ @ @ @ @ @ @ @ k @ @ @ @ y 2X:X3X:XY V r.k.p.b.n.3.g.+XOX=X*XP.b @ @ @ @ @ @ @ @ @ ",
"@ @ @ @ @ @ @ @ @ @ @ @ @ @ @ @ @ @ @ @ @ @ @ @ @ @ @ @ @ 7 8 @ @ @ @ @ F.1X-X1XXXz 9.g.b.qX,Xx.<.;X%XOX=X&XT 9 @ @ @ @ @ @ @ @ ",
"@ @ @ @ @ @ @ @ @ @ @ @ @ @ @ @ @ @ @ @ @ @ @ @ @ @ @ @ @ 7 @ + @ @ @ @ 4 y y d y 7 q S k.l.k.x.h.<.;XXX$X1X.Xn @ @ @ @ @ @ @ @ ",
"@ @ @ @ @ @ @ @ @ @ @ @ @ @ @ @ @ @ @ @ @ @ @ @ @ @ @ @ @ @ @ @ @ @ @ @ @ @ @ @ 4 9 t @ ' c.c.0X5Xr.r.;X#XXXoXn 5 @ @ @ @ @ @ @ ",
"@ @ @ @ @ @ @ @ @ @ @ @ @ @ @ @ @ @ @ @ @ @ @ @ @ @ @ @ 8 @ @ @ @ @ @ @ @ @ @ @ J T T P N q.b.z.n.b.y.t.@X.X#XS @ @ @ @ @ @ @ @ ",
"@ @ @ @ @ @ @ @ @ 8 @ @ @ @ @ @ @ @ @ @ @ @ @ @ @ @ @ @ @ @ @ @ @ @ @ @ @ @ @ @ *X=X-X-XP.l [ u.k.x.rXr.t.%X.XS @ @ @ @ @ @ @ @ ",
"@ @ @ @ @ @ @ @ @ @ @ @ @ @ @ @ @ @ @ @ @ @ @ @ @ @ @ @ @ @ @ @ @ @ @ @ @ @ @ @ F.5X4X5X<XK C >XtXeX,Xv.6.z.#Xf @ @ @ @ @ @ @ @ ",
"@ @ @ @ @ @ @ @ @ @ @ @ @ @ @ @ @ @ @ @ @ @ @ @ @ @ @ @ @ @ @ @ @ @ @ @ @ @ @ @ 7 A S f A 9 9 r 0.6.6.k.n.<.0.S @ @ @ @ @ @ @ @ ",
"@ @ @ @ @ @ @ @ @ @ @ @ @ @ @ @ @ @ @ @ @ @ @ @ @ @ @ @ @ @ @ @ @ @ @ @ @ @ @ @ 5 @ 4 4 @ @ 8 @ % f.tX0X,Xv.5.V @ @ @ @ @ @ @ @ ",
"@ @ @ @ @ @ @ @ @ @ @ @ @ @ @ @ I I @ @ @ @ @ @ @ @ @ @ @ @ @ @ @ @ @ @ @ @ @ @ @ @ @ @ @ @ @ @ @ u 4X8X9X6Xz.2 @ @ @ @ 4 @ @ @ ",
"@ @ @ @ @ @ @ @ @ @ @ @ @ @ @ @ I K @ @ @ @ @ @ @ @ @ @ @ @ @ @ @ @ @ @ @ @ @ @ @ @ @ @ @ @ @ @ @ @ i d d u y 4 @ @ @ @ @ @ @ @ ",
"@ @ @ @ @ @ @ @ @ @ @ @ @ @ @ @ @ @ @ @ @ @ @ @ @ @ @ @ @ @ @ @ @ @ @ @ @ @ @ @ @ @ @ @ @ @ @ @ @ 8 @ @ @ @ @ @ @ @ @ @ @ @ @ @ ",
"@ @ @ @ @ @ @ @ @ @ @ @ @ @ @ @ @ @ @ @ @ @ @ @ @ @ @ @ @ @ @ @ @ @ @ @ @ @ @ @ @ @ @ @ @ @ @ @ @ @ @ @ @ @ @ @ @ @ @ @ @ @ @ @ ",
"@ @ @ @ @ @ @ @ @ @ @ @ @ @ @ @ @ @ @ @ @ @ @ @ @ @ @ @ @ @ @ @ @ @ @ @ @ @ @ @ @ @ @ @ @ @ @ @ @ @ @ @ @ @ @ @ @ @ @ @ @ @ @ @ ",
"@ @ @ @ @ @ @ @ @ @ @ @ @ @ @ @ @ @ @ @ @ @ @ @ @ @ @ @ @ @ @ @ @ @ @ @ @ @ @ @ @ @ @ @ @ @ @ @ @ @ @ @ @ @ @ @ @ @ @ @ @ @ @ @ ",
"@ @ @ @ @ @ @ @ @ @ @ @ @ @ @ @ @ @ @ @ @ @ @ @ @ @ @ @ @ @ @ @ @ @ @ @ @ @ @ @ @ @ @ @ @ @ @ @ @ @ @ @ @ @ @ @ @ @ @ @ K I 4 4 ",
"@ @ @ @ @ @ @ @ @ @ @ @ @ @ @ @ @ @ @ @ @ @ @ @ @ @ @ @ @ @ @ @ @ @ @ @ @ @ @ @ @ @ @ @ @ @ @ @ @ @ @ @ @ @ @ @ @ @ @ @ K I @ @ ",
"@ @ @ @ @ @ @ @ @ @ @ @ @ @ @ @ @ @ @ @ @ @ @ @ @ @ @ @ @ @ @ @ @ @ @ @ @ @ @ @ @ @ @ @ @ @ @ @ @ @ @ @ @ @ @ @ @ @ @ @ @ @ @ @ ",
"@ @ @ @ @ @ @ @ @ @ @ @ @ @ @ @ @ @ @ @ @ 8 @ @ @ @ @ @ @ @ @ @ @ @ @ @ @ @ @ @ @ @ @ @ @ @ @ @ @ @ @ @ @ @ @ @ @ @ @ @ @ @ @ @ "
};
