/* XPM */
static char *asteroid_resized[] = {
/* columns rows colors chars-per-pixel */
"64 64 62 1 ",
"  c None",
". c #020202",
"X c #0A0707",
"o c #0B0807",
"O c #0C0908",
"+ c #120D0A",
"@ c #16100E",
"# c #18110E",
"$ c #161311",
"% c #1B1614",
"& c #221712",
"* c #231813",
"= c #251A1B",
"- c #291E1F",
"; c #2C1F20",
": c #2E2122",
"> c #312323",
", c #372825",
"< c #392927",
"1 c #3C2B29",
"2 c #3F302F",
"3 c #412E29",
"4 c #46312D",
"5 c #48332E",
"6 c #403130",
"7 c #493733",
"8 c #4C3935",
"9 c #4D3D3A",
"0 c #523A33",
"q c #553F39",
"w c #56403A",
"e c #58443F",
"r c #594640",
"t c #845A47",
"y c #875D49",
"u c #895E4A",
"i c #8E614E",
"p c #92654F",
"a c #946650",
"s c #976B56",
"d c #9B6B54",
"f c #9C6E59",
"g c #9F705B",
"h c #A47057",
"j c #A67259",
"k c #A9775F",
"l c #AB7A63",
"z c #A1877B",
"x c #A2887D",
"c c #AB8E83",
"v c #AD9184",
"b c #B29485",
"n c #B49789",
"m c #B89788",
"M c #B5988B",
"N c #B9998B",
"B c #BD9E90",
"V c #C39F8E",
"C c #C4A08F",
"Z c #C7A595",
"A c #C8A695",
"S c #CAAA9B",
/* pixels */
"                                                                ",
"                                                                ",
"                                                                ",
"                                                                ",
"                                                                ",
"                                                                ",
"                                                                ",
"                                                                ",
"                        ..........                              ",
"                        $$$$$$$$$$                              ",
"                    ...$znnnnnMMMz$...                          ",
"                    $$@:bZZZSSBVZb:@$$                          ",
"                ...$xmmblkllZBrqglbmmz@.....                    ",
"                .X$:NSBmljjlVmq0hzmVZb;$$$$$                    ",
"              ..%1xMSBrwdjjjkkdgVmewglmMnnMx$...                ",
"              .O19vBZmq8jlddkljlVbw0dkCZZZZb:@$$                ",
"            ..=<cv97flsfVmqqmVlhlkddjjklllllbMnz$.              ",
"            .O19vv87fldgVmqqmVlljjjjjjjjhhhlCASn$.              ",
"        ....=1cc99cBZmq0glddklCVkjhjjjjjhhjjllAn@.              ",
"        $$$%,8nm77nZAmrqpdllllAAlkhdkkddhjjjhlVb:$              ",
"      .$zMMvfdklddklllNvqqmZZSSSAmqqNNq0djhhjjllbz@.            ",
"      .$NSZVljhjklddhkVNrrcBBMMBSCrevvrqahlljhhlZb:$            ",
"      .@nZlkhjjlVmq0djllNc92226qBSVvqrbvqqmVlhjjklbx$.          ",
"      $:NAlhlkshVmw0djllMc2;;;;1cBZmqqvveevmlldshkCv$.          ",
"    .@zMSZlkCNq0gkddglVmq2:;::;>18gldi7qvv99Nm74dkkd+.          ",
"    @:bAZCkkmcq0gkdhllmc1;::::>;;<yajs,2cc21cc97idjp&+          ",
"  .$xblklkjs77pjVNqqNMq1>:::::::;;@*ad1;63::29cc73djat+.        ",
"  .$mAljjhdi,,ifmcqwBM2=;;::;::::;.+ad1;::>:;2cc97idka*+        ",
"  .$nZkjjd5<:><137pgZn%X;:;:::::1>.+ad1:<<<<;>29cb73djpt+.      ",
"  .$vVkhdi<::::>;1dlZn%.;:-;:::><>#*ui1:<3751<;1cc75dhja+.      ",
"  .+skkd4<::<11<:1dlZn$.,,oo,11,X+yu05>::<iddi1>17idjjkp+...    ",
"  .+pjdi<::>111127ugVb=+>:.X:,,>@*ii4<::<5issa3<><djddjp*O..    ",
"  .+dd41::1111>1cc74dkdt+....XX+yu03,:;1ii4<<4ii<<dd44djat+.    ",
"  .+yu<;>:111129NN73addu*++++++*ua5<:::1ai,;;>ss<<ip44idja*+    ",
"  ..,<>:11>::1cnllda0315upppppau3<>:::<373O..#as3:<4pi45djdt+.  ",
"  ..-;;><1>:2qnZgsda04><pddddddi<:::>:<<1,O..#ua<;;<ii<<idja+.  ",
"  ..-;::::17cNlh0750au3<11111<1<>:::1<::;;>,,<55:::>451150dp+.  ",
"  .X-::::><9NNfy3><5pa07>-;:::::::::1<:>220811<<>:::<313<4py+.  ",
"  ..-:;>1115hf&+XX<350ap<:::<1113<:::;:6cBBc6;:><<>><31<>><>..  ",
"  ..=-:>1114py+..X:,<3ui<;:><31111::6669cBBc93::<<>:<11<>:-=X.  ",
"    .o-><11111;=..X.XO<<:::>133111:1cBBc9229vc6;>:::>:>::-X.    ",
"    ..=;<111>;:-X....X->::::,11<112qcNNc2;;2vv7<:::;;::::-..    ",
"      .o-,11>;;;------<111::>::>;2ccq266>;;;7qau1;<1>::;:-..    ",
"      .X=-<1>>>>>>;:;>1111>::>::;6mn6;;:;>;>>3dd1:11>;::-=X.    ",
"        .O;>11111<>::>1111111<>:;1fg5<::>><,X#sd1;>>:::-o.      ",
"        ..=-<11111>::><<111311>;:1dd3,::;>,>@&ui<;>;:;-=..      ",
"          .X->1111:;;>>>>>1111::;1da#O<<2<o$tu04>;;>:-o.        ",
"          .X=>1111>>:;>;->1111>><4ut+.:<,;.+ad5<>>;;-=X.        ",
"          ..-::>111<>:<<::>>11:<iy&+..X.X..+ad1:;;:;o.          ",
"          .X=---<1<<:>1<>:::<1:<pi&O......O*ui1:;;;;..          ",
"            X..O->>:::>><1:::::>40ytO....Oti04>-o...            ",
"            ....=-----::<1>>:::>,4pi&++++&yp4<;=....            ",
"                .X...X-::>1<>:<1>>40uppppy5<>;X.                ",
"                ......=--->,::<1>>,4pddddi>-==..                ",
"                      .X..Xo->:><1>>55111<O..X                  ",
"                      ......=--->,-;,>-=-=....                  ",
"                            ..X.X..X..X..X                      ",
"                            ..............                      ",
"                                                                ",
"                                                                ",
"                                                                ",
"                                                                ",
"                                                                ",
"                                                                "
};
