/* XPM */
static char *_cec95d148e14a18848f39fba6a9f32dpTi42gVmBeEp6mdF[] = {
/* columns rows colors chars-per-pixel */
"64 64 238 2 ",
"   c #0D090A",
".  c #140F0D",
"X  c #16100E",
"o  c #1C1513",
"O  c #1D1817",
"+  c #1C1B1B",
"@  c #201714",
"#  c #221916",
"$  c #241C1A",
"%  c #2A1D1A",
"&  c #2C211D",
"*  c #32231D",
"=  c #1B3230",
"-  c #222324",
";  c #2C2521",
":  c #23252A",
">  c #2C2A2A",
",  c #352620",
"<  c #342924",
"1  c #3B2B24",
"2  c #392B27",
"3  c #3F3027",
"4  c #3C312C",
"5  c #2A2A31",
"6  c #293038",
"7  c #393736",
"8  c #71261F",
"9  c #412D26",
"0  c #402F28",
"q  c #403027",
"w  c #44332B",
"e  c #4B342D",
"r  c #54352E",
"t  c #453B37",
"y  c #4B3B33",
"u  c #523C33",
"i  c #5C3D36",
"p  c #49423F",
"a  c #58423A",
"s  c #63443C",
"d  c #6A463E",
"f  c #79443E",
"g  c #3C3C59",
"h  c #165047",
"j  c #186455",
"k  c #2C7351",
"l  c #0F7273",
"z  c #494746",
"x  c #584943",
"c  c #5D5857",
"v  c #694B42",
"b  c #724D44",
"n  c #7B4A44",
"m  c #6A524A",
"M  c #77544A",
"N  c #7A554A",
"B  c #6F5851",
"V  c #775C54",
"C  c #424360",
"Z  c #726E73",
"A  c #8B2013",
"S  c red",
"D  c #C03D2A",
"F  c #976304",
"G  c #9A6717",
"H  c #89433E",
"J  c #9B6D26",
"K  c #CD4C38",
"L  c #825A4F",
"P  c #895C4D",
"I  c #914F50",
"U  c #895D52",
"Y  c #985859",
"T  c #A6585A",
"R  c #997148",
"E  c #876259",
"W  c #8E655A",
"Q  c #966759",
"!  c #A07340",
"~  c #A66D5D",
"^  c #AC745C",
"/  c #A55E63",
"(  c #8D6C65",
")  c #936C62",
"_  c #9B6D60",
"`  c #9A7166",
"'  c #9E756A",
"]  c #9E7A72",
"[  c #A66266",
"{  c #B6676C",
"}  c #A27364",
"|  c #A87868",
" . c #AC7B6D",
".. c #B77C6A",
"X. c #B96D74",
"o. c #A87D73",
"O. c #B87777",
"+. c #DA6551",
"@. c #C2797E",
"#. c #3C845A",
"$. c #52956A",
"%. c #9A933C",
"&. c #D6B90C",
"*. c #D2B513",
"=. c #C9A82B",
"-. c #E7C915",
";. c #F0DA2E",
":. c #A59455",
">. c #B6846E",
",. c #A88279",
"<. c #AD857C",
"1. c #B28274",
"2. c #B9847D",
"3. c #B78878",
"4. c #BB8C7A",
"5. c #BA9773",
"6. c #BE927B",
"7. c #DB916D",
"8. c #C08D7E",
"9. c #C1967D",
"0. c #C2997F",
"q. c #CDAA79",
"w. c #CFC64B",
"e. c #FBEF47",
"r. c #FCF34D",
"t. c #F5E57B",
"y. c #6F748E",
"u. c #C47D83",
"i. c #0A8D8F",
"p. c #03A9AB",
"a. c #01B6B8",
"s. c #01BABC",
"d. c #2DB4B7",
"f. c #798886",
"g. c #6BA9A0",
"h. c #32EE87",
"j. c #44FF9C",
"k. c #56F7A2",
"l. c #6DEFAB",
"z. c #5AC9C6",
"x. c #899092",
"c. c #AE8A82",
"v. c #BC8682",
"b. c #B38C84",
"n. c #BA8C83",
"m. c #BA9184",
"M. c #B49189",
"N. c #BB958C",
"B. c #BC998E",
"V. c #AD9793",
"C. c #BD9C94",
"Z. c #BA9F99",
"A. c #ADA29E",
"S. c #BCA29A",
"D. c #929AAE",
"F. c #93A3B0",
"G. c #A1AEB7",
"H. c #C78189",
"J. c #C48688",
"K. c #CA858D",
"L. c #CC898F",
"P. c #C29484",
"I. c #C49C83",
"U. c #C59B8C",
"Y. c #C69A8C",
"T. c #CE8C92",
"R. c #C49790",
"E. c #CE9196",
"W. c #C29E94",
"Q. c #C99E93",
"!. c #CF9498",
"~. c #CC9D99",
"^. c #D19596",
"/. c #D1959A",
"(. c #D49A9D",
"). c #D89F9E",
"_. c #C9A186",
"`. c #C7A48D",
"'. c #CAA58C",
"]. c #D0B58E",
"[. c #C4A395",
"{. c #C9A293",
"}. c #CCAB94",
"|. c #C3A49B",
" X c #CAA59B",
".X c #C6AA9C",
"XX c #CAAD9D",
"oX c #D9A19E",
"OX c #D2AB98",
"+X c #D2B29A",
"@X c #D8B89B",
"#X c #E6A492",
"$X c #C5AAA3",
"%X c #C6ACA6",
"&X c #C9ABA3",
"*X c #C9AFA9",
"=X c #D0AEAB",
"-X c #CCB2A4",
";X c #CAB3A9",
":X c #D7B7A3",
">X c #D0B4A5",
",X c #D1B6A9",
"<X c #D2B9AB",
"1X c #92D1B7",
"2X c #AEC5BB",
"3X c #E1D09D",
"4X c #D9CBB5",
"5X c #A6B1C2",
"6X c #A9B6C6",
"7X c #AEB8C7",
"8X c #B7CCC9",
"9X c #BAC7D5",
"0X c #B0F6D7",
"qX c #DBD4C7",
"wX c #CBCFD3",
"eX c #E1DACE",
"rX c #E4DED3",
"tX c #E8E4D9",
"yX c #F3EED5",
"uX c #C9D6E3",
"iX c #D4DDE4",
"pX c #D1DEE9",
"aX c #C9EDE5",
"sX c #D5E1EB",
"dX c #DAE5ED",
"fX c #D4EDEA",
"gX c #DEE9F1",
"hX c #EFECE4",
"jX c #EFEFEE",
"kX c #F5F3EE",
"lX c #E2EEF4",
"zX c #E4F1F6",
"xX c #E8F4F7",
"cX c #EAF6FA",
"vX c #EFF9FC",
"bX c #F8F7F3",
"nX c #F4FDFD",
"mX c #FAFFFE",
/* pixels */
"- - - - - - - - - - - - = h j l i.i.p.a.a.a.a.a.s.s.s.s.s.s.s.s.s.s.s.s.a.a.a.a.a.p.i.i.l j h = - - - - - - - - - - - - - - - - ",
"s.s.s.p.i.j = : C wXzXvXvXnXnXvXvXnXnXmXmXmXmXmXmXmXnXvXvXvXvXvXvXvXlXuXG.F.F.F.F.F.wXzXmXmXmXmXmXmXmXcXsX9Xz.z.d.s.s.s.s.s.s.a.",
"- - - - - : : : C uXcXmXmXmXmXmXmXmXmXmXmXmXmXmXmXmXmXmXmXmXmXmXmXmXvXsX6X5X5X5X5X6XuXcXmXmXmXmXmXmXnXxXuX5X5X5X5X5XG.5X6X6X7XuX",
"- : : : : : : : C uXcXmXmXmXmXmXmXmXmXmXmXmXmXmXmXmXvXgXsXsXsXsXsXsXlXcXvXvXvXnXnXvXcXlXdXsXsXsXpXpXsXlXcXvXvXnXvXvXvXvXvXvXvXxX",
": - : : : : : : g uXcXmXmXmXmXmXmXmXmXmXmXmXmXmXmXmXcXuX5X5X5X5X6X6XdXnXmXmXmXmXmXmXnXgX9X5X5X5X5X5X9XlXnXmXmXmXmXmXmXvXlXuXwXpX",
": : : : : : : : 6 D.9XpXpXpXpXpXpXpXpXpXpXpXpXpXpXsXgXxXcXcXcXcXcXcXxXlXgXgXgXgXgXgXgXxXcXcXcX9XdXzXcXxXgXgXdXgXfXgXgXaX1Xh.h.k.",
": : : : - - : : : : : : : : : : : : : : 5 : 7 z 5 y.dXnXmXmXmXmXmXmXnXsX7X6X5X5X5X5XwXxXnXnXvXiXpXmXnXcXuX5X5X5X5X5X5X1Xk.j.j.j.",
": : : : : - : ; : : 7 5 : : 5 5 : : 5 : 5 7 z 7 7 y.9XdXlXgXlXgXdXsXuX7XD.F.uXiXsXpXpXlXgXdXgXZ pXlXgXlXlXxXxXxXxXxXxXfX0Xk.j.j.",
": : : 5 : : 5 5 7 t ; - 4 t p z z z 5 4 4 t p c x x t z t t t t t z Z G.y.V Z x.G.F.Z c x x y p x c V x.5XdXlXcXmXmXmXcX0Xk.j.j.",
"g G.uXsX7Xf.7 > ; > 7 < 4 7 & 4 y , % # O & O + - # o ; & % ; % & w u y w $ + $ o % + 2 2 ; ; < 4 2 w y a c f.9XpXfXaXaX0Xl.l.l.",
"uXx.z ; O 7 < 4 & % ; ; # & ; $ < w w & ; & $ o # # % < w 4 4 w w y q e w 3 2 ; # < * t a y a 4 w 4 & * & < 2 e u u u u y x c f.",
"2 2 , o $ o O $ O $ X o $ > 2 y y w y w 3 * ; , < < 2 w q 2 < w w 0 w w y w w 9 w y y w e w y y y w w w < & < 2 4 2 w q y y w y ",
"2 y w O o ; 4 a a x a y y w 4 # < * 2 2 2 2 2 < * < 2 * , 2 * * o o o O O . o o o o & , 2 q 9 , 2 2 2 ; $ o & ; o O O O % $ % 2 ",
"t y y w , o .   < < $ . % 2 w , % o # & , 2 , * < , & . X X o   < # .   X + o < , * % % $ * * 2 2 , 2 y w 9 2 q w # % $ O X + & ",
"w 3 2 y y w 2 % # # & 2 * % * * * % & * % % o % # # % & @ o # o # ; o # - 2 # % % $ # o o   o o X o # & 9 q w w w y w w w q w , ",
"9 , 2 * , 2 2 2 9 2 9 e w y u s v v s s s s i u e w e w 9 2 2 , , * * 2 2 * * % * 4 % % % % & & # ; O . # * , 2 3 e e e y y q q ",
"2 w r i d b L U W R ! | ' } | | | | _ } Q Q _ ) W ) W E U V V V M L V V N V V M b b d i u r u u e e e 9 2 2 * % # # o o X o o O ",
"M E W } | | | |  ...>.3.3.6.5.6.6.4.4.6.3.4.3.3.1. .>.1.1.1.<.o. . . .| | } ` ) ) _ Q W U E L M b M d b m d r 9 e 9 2 w , 2 , & ",
"' >.3.6.9.I.I.I._._._.'.q.'.q._.q._._.I.I.I.I.I.9.I.9.9.9.6.4.6.6.n.6.6.4.<.1.1.3.1. .| | | } _ } _ } | _ _ W M s i M v v a 2 2 ",
"0.I.I._.'.}.'.}.}.}.}.}.}.}.}.'.}.}.'.'._._._.I.I.I.I.I.I.I.I._.I.I.P.9.6.4.6.6.6.6.4.4.4.3.3.3.3.3.2.4.O.1.| _ Q Q Q L ` _ b s ",
"[.[.}.}.}.XX+X}.+X+X+X+X+X+X+X+X+X+X}.'.'.'.'._._._._._._.I._._._._.I.I.I.I.I.I.0.9.6.6.9.0.9.I.P.9.P.9.P.P.4.P.b.| 1.| 1.Q ) o.",
"}.}.}.}.}.OX+X:X@X+X@X+X>X@X:X+X+X+X+X}.}.}.'.'.'._.'.'.'._.'.'.'.'.'.}.'.'.'._.I.I.P.P.U._.`.U.Y.U.U.U.U.U.U.U.P.P.P.P.m.m.4.4.",
".X}.}.'.}.[.}.}.}.XX}.[.[.U.C.[.[.[.U.Q.`.W.`.{.Y.P.U.Y.Y.Q.{.{.Q.U.I.I.I.9.9.4.b.b.n.3.2.1.E ) ,.& u v B m m M V V ( V W ) ] E ",
"S S S S S S S S S S S S S S S S S S S S S S S S S S S S S S S S S S S S S S S S S S S S S S S S S S S S S S S S S S S S S S S S ",
"S S ` C.B.' S S ] 1. .e S S S S S S S S S S S S S S S S S S S S S S S S S S S S S b.2.,.S S S W E L S S S S S S S S S S S S S S ",
"S S S S S S ' ) S S S S S S S S S S S S S S S S S S S S S S S S d _ ~ }  .Q S S S S S S W b s S S S s S S S S S S S S S S S S S ",
"S S S S S S b v S S S S S S S S S S S S S S S S S S S S S S S S ,.:X:X:Xq.U.S S S S S S | Q W S S S b b b S S S S S S S S S S S ",
"XX|.S S S S S S o. .| S S S S ~ ~ ~ S S S S S S S S S S S S +X+X@X@X@X@X+X}._.U.m.S S S S S S S S S S S S S S S S S S S S S m.m.",
"m {.{.Q.[.V S S S S S S S S S S S S S S S S S S S S b Q I.+X+X+X4X:X:X+X+X+XOX{.U.Y.I.m. .3.P._ i  .3.......1.2.J.R.R.N.R.R.W.N.",
",X,X,XN.B [.-X.XU.{.U.I._._._._.I.9.I.) i 4.....^ | >.OX:X<X4X4X,X}.OX{.OX>X,X X{.}.{.E.P.W.&XQ.Y.R.P.P.P.P.Y.U.Y.U.{.Y.U.Q.W.[.",
"-X-X&X;X,X;X<X<X,X-X X{.'.{._.I.P.4.....| ^ ^ ^ 2.,X X{.n.o.` ,.N.m.n.2.2.2.M.P.o.| v.R. X XQ.R.8.8.W.R.R.Q. X X}.{.Q.~.~.W. X X",
"-X&X,X<X<X<X,X,X<X,X,X>X.X[.[.U.P.3.4...^ ~ ^ ..^ 4.2.2.Y d [ 1.n.N.N.n.v.N.E.T.v.2.Y / O.H.P.R.Y.P.4.4.E.Y. X=X&X&X X X X XQ.Q.",
",X,X,X,X;X,X,X<X,X,X>X}. X X`.m.8...| >.>.6.P.P.^._.'.I.U.P Q P Q W _ |  ./ Q Q _ } P 1.4.3.P.P.Q.U.{.Q.Y.P.U.Q. X X&X&X X[. XQ.",
"&X,X-X-X-X,X,X+X-X-X}.}.{.U.I.4.4.9.I.9.3.6.6.0.^ ^ } W L L G P L G P L b b H d b f n H b P P | | 1.3.3.P.P. X[.W. X&X X X X X X",
"XXXX,X,X-XXX-XXX&X-XXX X{.{.>.3.| ^ ^ | >.^ ^ | ..1.O.X.{ X.{ / / X.{ { mX{ X.O.{ [ { X.X.O.v.v.| | Q Q ~ W ~ |  .4.{. X.X{.{. X",
"-X-X-X&XXX@X-XXXXXXX[.`.jXmXjXjX$XQ P v b f L I Y [ [ Y I Y T { { / T 1X$.I T [ [ [ / Y Y [ [ [ / / Y [ ) W W Q U W Q 1.[.W.[.[.",
".XXXXX|.C.|..X-X.X[.XXjXmXjXmXmXmXjXmXo. .4.8.O.O.@.J.J.L.L.X.u.jXk $.2X$.g.{ @.{ { X.@.O.X.X.{ { { O.P.U.n. .| Q ) | ) N.W.{.N.",
".XM..X.XC.B.[.U.m.N.mXjXtX;.hXmXmXmXjXmXjX<X{.[.}.[.[.U.tXmXjX$.;.;.= #.$.O.O.@.X.@.u.n.n.R.R.[. X|. X{. X X XW.M.1._ ` B.N.M.b.",
"C.c.<.b.N.M.m.`.B.3.jXbX4XhXhXkXbXmXmXmXjXmXjX;XB.m.m.mXmX$.$.r.$.e.h x.8XN M M N W ) o.<.n.P.R.R.W. X[. X[.[.Q.W. . .1.c.c.' <.",
"XX-XS.V.,.b.] ,.| <.3.qXtXtXdXrXtXt.;.;.e.lXmXjXjXjXmX$.$.r.$.e.j %.f.iXP W W W | m.R.n.C. XW.|.C.W.W.[. X[.[.C.m.1.} ' L L ) ,.",
";X-X-X;XXXS.( o.' o.b #XtXeXw.rXbX-.kXbXmX+.+.kXmX$.e.r.$.r.k ;.%.G.tX1.| | | ' _ _ )  . .<.3.3.>.| N.3.>. .|  .| P M N U E V Z ",
";X,X,X-X;X;XXX;X[.) B bXtX&.tXqXqXqXqXtXhXhX*.3XK K k r.$.-.j 5.2XhX_ _ ' ' _ ' W W Q } ' W E U E P Q W Q W L W P b N v M m ] C.",
"<X,X<X<X;X,X,X-X;XXXXXmXkX-.eXkXqXqXqX3XqX@X%.A K +.4Xw.%.;.].qX` U W E E L N L W U L W M N b s i i L b M E b s v m E b.C.$X|. X",
",X<X,X<X<X<X<X<X;X;X&X&XjXmXeX4XqX4X&.qXjX5.G 8 7.7.D k k ].eXs N M r e s a s a r s b a v r i i r m b r i d L N.C.b.|.$X.X.X X X",
",X,X,X,X<X,X,X,X,X;X&X-XXXjXyXD rX=.=.eX4XF F :.K D D &.x.tXV ) E W ) W W E ( ) ( ) ( E ( N ) ] ,.b.,.c.M.C.C.C.|.&X&X&X&X&X&X.X",
",X,X<X<X,X,X,X,X>X-X;X-X[.mXjX+.tX&.&.eXw.F F :.D D A -XtXM.b.<.o.,.,.c.c.c.c.b.b.b.M.M.N.N.N.C.C.W.W.|.W.[.[.&X&X&X&X&X&X&X&X&X",
",X,X,X<X,X,X,X-X-X-X+XXXXXXXjXmX#X;.-.tXF J G @XD H -XqXM.M.c.M.b.b.c.M.b.M.M.C.b.C.N.C.W.[.C.[.|..X[.|.$X&X&X&X&X*X&X&X$X&X&X&X",
",X@X<X<X,X,X-X-X&X+XXX}.}.}.[.rXmX3X&.>XF F :.-.I <X<XC.N.M.N.B.C.C.B.M.N.V.C.|.C.S.[.|.|.R.W..X.X|.&X$X$X%X&X&X*X&X&X&X&X&X$X&X",
",X,X<X<X,X,X;X-X&XXXXX|.[..X.X.X.XkXmX,X&.].yX[.qX[.[.[.W.C.N.B.b.M.N.m.b.b.R.C.C.[.[.|.$X$X.X$X$X&X*X&X*X=X*X*X;X&X*X&X$X&X&X.X",
",X,X,X,X;X;X-X-X&XXX.X-X-XXXXXXXXXXXXXrX4X0.M.4X$X|.[.[.[.W.C.[.C.C.C.C.C.C.[.[.[.|..X|.$X|.&X$X$X&X*X&X*X*X*X&X;X*X&X&X&X&X&X$X",
",X,X-X,X-X;X-XXXXXXX&X-X&XXXXX.X.XXXXXXXXXXX.X.X.X|.[.[.[.[.[.[.C.C.C.[.[.W.|.|.|.|.|.$X|.&X%X&X&X=X*X*X*X*X*X*X%X;X&X&X&X&X&X&X",
"^.2.W.XXXX.X.XXXXX&X-XXX-XXX.XXX.X.X.X.X.X.X.X|.S.[.[.[.[.[.[.C.C.W.S.W.[.[.|..X.X.X$X.X|.|.%X&X*X&X&X%X*X*X%X*X*X*X&X*X*X*X*X&X",
"E.T.T.T.L.T.T.u.2.[..XXX$X.X.X.X.X.X.X[.[.[.[.[.[.[.[.[.[.[.C.W.C.C.C.C.Z.Z.[.S.|.W..X|..X$X&X&X&X%X&X*X*X%X%X$X%X&X&X&X&X*X*X&X",
"T.T.T.T.T.T.T.L.L.L.L.L.T.E.E.L.2.M.U.[.[.[.[.[.[.C.W.W.W.W.[.[.[.W.W.W.W.C.C.~.W.[.[.|..X$X&X.X.X&X*X*X&X%X.X%X&X%X&X*X*X;X*X>X",
"T.T.T.T.E.^.T.T.T.T.T.L.T.T.L.J.L.H.K.L.L.H.L.K.T.T.T.T.T.T.K.n.v.2.v.b.M.R.C.B.N.C.W.W.[.[.|.|..X%X$X|.[.C.N.<.{ Y  .u.L.L.L.T.",
"/././.(./.(.T.u.u.H.L.T.T.T.T.T.T.T.L.E.T.E.T.L.L.L.T.K.H.L.L.H.L.H.H.H.H.u.H.H.H.u.L.K.H.H.H.u.H.L.L.L.T.L.L.L.L.T.L.L.H.L.T.T.",
"oX X).(.(.(.(.(.(.(.(.(.(.(.(.(./.T.u.H.H.L.L.L.L.T.L.T.T.T.L.L.T.T.L.T.L.L.L.T.L.L.T.H.L.T.L.T.L.T.T.L.L.L.L.L.L.L.L.L.H.L.L.L.",
"oXoXoX).oXoXoXoX).oX(.(.(.(.(.(./.!.E.E././././.!.(.(.(.(./././.!././././.(././.!././.^./.(.(.(.(.(./.^.^.E.E.E.T./.E.T.T./.E.E.",
"oXoX).).oXoXoXoX).(.(.(.(.(.(.(./.!./.!./.!./.!.E.E.!.T.E.!.!./.E.E.E.E.!.T.E.T.E.E.E.E.!.T.E.E.^.^./.^.E.^.E.E.E.^.!.T.E.L.E.E.",
").).oX).(.).(.oXoX(.oX).(.(.(.(.(././.(./././.E././././.!././././.(./././.^./././.(.E./././.!.E.^.E./.!.(.!.^./.!.(./././.^././.",
"(.(.(.(.(.(.(./.(.(.(.(.(.(.(.(././.^././././.(.(.!./.!./.E././.^.E.E.E.^.E././.!.!././././.!./.(.(./././././.^.!./././.E.E.E./.",
").).(.(.(.(.oX(.(.(.(.(./././.(.(./.!.(./.T.!.E.!././.!.!././.(././.!././././././.^.E./././.!./././.!././././.(.(.R.!.!./.(././.",
"p.a.s.s.s.s.s.s.s.s.d.d.g.F.A.!.!.!.!.!.!.!.^./.!././.!.!././.(.!.^.E./././.!.!.E.E.E.!.!.V.F.g.d.d.s.s.s.s.s.s.s.s.a.p.l h : O ",
"+ + + + + + + + + + O O + O + + O O + + O O O O O O + O + O O O O + + O O O O O O + O O + O O + O O + + + + + + + + + + - + + - "
};
