/* XPM */
static char *result[] = {
/* columns rows colors chars-per-pixel */
"64 64 239 2 ",
"   c #010102",
".  c #090708",
"X  c #0C090A",
"o  c #130F0D",
"O  c #16100E",
"+  c #1C1512",
"@  c #1D1817",
"#  c #1C1B1B",
"$  c #201714",
"%  c #221916",
"&  c #231C1A",
"*  c #2A1D1A",
"=  c #2C211D",
"-  c #32231D",
";  c #1B3230",
":  c #222324",
">  c #2C2521",
",  c #23252A",
"<  c #2C2A2A",
"1  c #352620",
"2  c #342924",
"3  c #3B2B24",
"4  c #392B27",
"5  c #3F3027",
"6  c #3C312C",
"7  c #2A2A31",
"8  c #293038",
"9  c #393736",
"0  c #71261F",
"q  c #412D26",
"w  c #422F28",
"e  c #403027",
"r  c #44332B",
"t  c #4B342D",
"y  c #54352E",
"u  c #453B37",
"i  c #4B3B33",
"p  c #523C33",
"a  c #5C3D36",
"s  c #49423F",
"d  c #58423A",
"f  c #63443C",
"g  c #6A463E",
"h  c #79443E",
"j  c #3C3C59",
"k  c #165047",
"l  c #186455",
"z  c #2C7351",
"x  c #0F7273",
"c  c #494746",
"v  c #584943",
"b  c #5D5857",
"n  c #694B42",
"m  c #724D44",
"M  c #7B4A44",
"N  c #6B524B",
"B  c #78544A",
"V  c #6F5851",
"C  c #775C54",
"Z  c #61705B",
"A  c #424360",
"S  c #726E73",
"D  c #8B2013",
"F  c #C03D2A",
"G  c #976304",
"H  c #9A6717",
"J  c #89433E",
"K  c #CD4C38",
"L  c #835A4F",
"P  c #895C4D",
"I  c #914F50",
"U  c #895D52",
"Y  c #985859",
"T  c #A6585A",
"R  c #997148",
"E  c #886258",
"W  c #8E655A",
"Q  c #966759",
"!  c #A07340",
"~  c #A66D5D",
"^  c #AC745C",
"/  c #A55E63",
"(  c #8D6C65",
")  c #936C62",
"_  c #9B6D60",
"`  c #9A7166",
"'  c #9E756B",
"]  c #9E7A72",
"[  c #A66266",
"{  c #B6676C",
"}  c #A27364",
"|  c #A87868",
" . c #AC7B6D",
".. c #B77C6A",
"X. c #B96D74",
"o. c #A87D73",
"O. c #B87777",
"+. c #DA6551",
"@. c #C2797E",
"#. c #3C845A",
"$. c #52956A",
"%. c #9A933C",
"&. c #D6B90C",
"*. c #D2B513",
"=. c #C9A82B",
"-. c #E7C915",
";. c #F0DA2E",
":. c #A59455",
">. c #B6846E",
",. c #A88279",
"<. c #AD857C",
"1. c #B28274",
"2. c #B9847D",
"3. c #B78878",
"4. c #BB8C7A",
"5. c #BA9773",
"6. c #BE927B",
"7. c #DB916D",
"8. c #C08D7E",
"9. c #C1967D",
"0. c #C2997F",
"q. c #CDAA79",
"w. c #CFC64B",
"e. c #FBEF47",
"r. c #FCF34D",
"t. c #F5E57B",
"y. c #6F748E",
"u. c #C47D83",
"i. c #0A8D8F",
"p. c #03A9AB",
"a. c #01B6B8",
"s. c #01BABC",
"d. c #2DB4B7",
"f. c #798886",
"g. c #6BA9A0",
"h. c #32EE87",
"j. c #44FF9C",
"k. c #56F7A2",
"l. c #6DEFAB",
"z. c #5AC9C6",
"x. c #899092",
"c. c #AE8A82",
"v. c #BC8682",
"b. c #B38C84",
"n. c #BA8C83",
"m. c #BA9184",
"M. c #B49189",
"N. c #BB958C",
"B. c #BC998E",
"V. c #AD9793",
"C. c #BD9C94",
"Z. c #BA9F99",
"A. c #ADA29E",
"S. c #BCA29A",
"D. c #929AAE",
"F. c #93A3B0",
"G. c #A1AEB7",
"H. c #C78189",
"J. c #C48688",
"K. c #CA858D",
"L. c #CC898F",
"P. c #C29484",
"I. c #C49C83",
"U. c #C59B8C",
"Y. c #C69A8C",
"T. c #CE8C92",
"R. c #C49790",
"E. c #CE9196",
"W. c #C29E94",
"Q. c #C99E93",
"!. c #CF9498",
"~. c #CC9D99",
"^. c #D19596",
"/. c #D1959A",
"(. c #D49A9D",
"). c #D89F9E",
"_. c #C9A186",
"`. c #C7A48D",
"'. c #CAA58C",
"]. c #D0B58E",
"[. c #C4A395",
"{. c #C9A293",
"}. c #CCAB94",
"|. c #C3A49B",
" X c #CAA59B",
".X c #C6AA9C",
"XX c #CAAD9D",
"oX c #D9A19E",
"OX c #D2AB98",
"+X c #D2B29A",
"@X c #D8B89B",
"#X c #E6A492",
"$X c #C5AAA3",
"%X c #C6ACA6",
"&X c #C9ABA3",
"*X c #C9AFA9",
"=X c #D0AEAB",
"-X c #CCB2A4",
";X c #CAB3A9",
":X c #D7B7A3",
">X c #D0B4A5",
",X c #D1B6A9",
"<X c #D2B9AB",
"1X c #92D1B7",
"2X c #AEC5BB",
"3X c #E1D09D",
"4X c #D9CBB5",
"5X c #A6B1C2",
"6X c #A9B6C6",
"7X c #AEB8C7",
"8X c #B7CCC9",
"9X c #BAC7D5",
"0X c #B0F6D7",
"qX c #DBD4C7",
"wX c #CBCFD3",
"eX c #E1DACE",
"rX c #E4DED3",
"tX c #E8E4D9",
"yX c #F3EED5",
"uX c #C9D6E3",
"iX c #D4DDE4",
"pX c #D1DEE9",
"aX c #C9EDE5",
"sX c #D5E1EB",
"dX c #DAE5ED",
"fX c #D4EDEA",
"gX c #DEE9F1",
"hX c #DBF8FF",
"jX c #EFECE4",
"kX c #EFEFEE",
"lX c #F5F3EE",
"zX c #E2EEF4",
"xX c #E4F1F6",
"cX c #E8F4F7",
"vX c #EAF6FA",
"bX c #EFF9FC",
"nX c #F8F7F3",
"mX c #F4FDFD",
"MX c #FAFFFE",
/* pixels */
": a.uXcXpXk.j.j.j.l.f.i 3 = 1 e @ = 3 f o.2.E       + b.R.W.&XQ.Q. X X[.N.b.<.,.S C.&X X.X&X&X X X&X&X&X*X=XE.T.K.!.E./././.% : ",
": s.6XmXuXh.j.j.j.l.b 5 * # r e + 1 q m ) 4.'       + M.W.W.~.Q. X XQ.[. XN.` ( C ] |.&X&X X&X$X&X$X&X%X*X*XK.T.K.E.E.E.E./., # ",
", s.5XbXuXh.j.k.k.l.s i & O e i + 3 a _ Q N.)           R.{.Q.{.Q. X XR.W.B.b.hXhXhXhX&X$X&X&X$X&X&X&X%X*X*XT.K.K./.T./.!.(.k # ",
": s.5XbXxX1Xk.0XaX0Xi t = @ e i O 2 n ` o.P.E           R.R.~. X X X|. XN.B.<.hXhXhXhX|.&X&X X&X$X&X%X*X*X=XK.u.u.!.E./.!.(.x # ",
": s.5XvXbXaX1XaXvXaXd 5 @ & t i + w m L o.P.C         . N.Y.(. X&X X X1.) ' 1.hXhXhXhX|.&X&X&X&X&X&X%X%X%X*Xu.K.K.E.E././.!.p.# ",
": s.5XbXmXsX5XcXmXaXi r @ & t t + 3 M W 2.U.(         . R.W.Q. X&X X XQ | `  .hXhXhXhX|.&X&X%X*X%X&X*X*X%X&Xo.K.K.E./.!.!.!.s.# ",
": s.5XbXMXgX5XxXmXfXd 4 @ % i t % q a Q | P.C           R.U.{. X X X4.E Q 1.o.O.P M N b.&X&X*X&X&X*X;X*X&X%XY K.L./.!./.!.!.s.: ",
": d.5XbXmXdX5XxXmXpXp e + 6 t 5 $ t f ) b.P.C           J.U.}.&X{.W.>.E W M.C.m.| Y n C.|.&X&X*X*X;X%X*X*X&X{ K.K.T.E.!.!.(.s.# ",
": z.5XbXMXgX5XxXcX8Xt 4 2 e e 4 - q B Q I.U.N           8.Y. X=XQ.[.o.Q | C.Q.C. .E f N.Z.&X&X*X*X%X*X*XS.$Xv.T.T.E.E./.!.(.s.# ",
": z.5XbXMXdX5XcXcXy.4 2 = 4 w 3 - y Q  .4.{.N           ..Y.&X XY. X~ W  . X[.[. .P m L Z.W.%X%X*X*X*X%X*X$XN.T.K.E.E./././.s.# ",
": 9X5XbXMXdX5XxXdXb 6 - + e e - q g ` 1.m.U.N           ..P.U.Y.P.P.Q U n. X|.W. .E U n B.W.$X$X=X*X*X=X*X*XZ.u.T.!./.!././.s.& ",
": sXuXbXmXgXuXzXG.d > 2 & e q % - N _ O.9.'.V     2 M   O.P.Y.T.Y.P.~ Q Y. X X X>._ B a M.R.$X$X*X*X*X*X*X*X|.T.u./.T.(././.s.# ",
": vXvXxXgXxXvXxXx.s - r = i = O 3 m | 4.6.U.n     3 M   ..P.R.8.Q.3.Q [ P.{. X[.4.W m y c.|.$X$X*X%X%X%X*X*X|.T.u././.!././.s.# ",
": mXmXdX9XvXmXgXV 6 = r 5 4 % # t g } <.m.U.i     f B   >.P.~.8.{.3.Q Y O. X|.~.N.Q P B ,.W.W.$X*X*X*X*X%X*X%Xu.T././././.!.s.# ",
": mXMXsX5XxXmXxXb 3 6 r 5 - + = t B _ 3.0.'.=   L .     o.E.P.P.U.>.| / { |.W.W.| U a N b.W.$X$X%X%X=X%X%X%X=XE./.(./.E.(./.d.# ",
": MXmXpX5XdXsXsXv 5 r t 4 3 O & y m } 4.P.U.,.  U .     a P.8.U.Q.|  ./ { |.W.B.>.U f y o.C.$XW.$X%X%X*X*X(.%Xu.u./.!.!.(./.d.# ",
"; MXMXsX5X9XiXS s 2 5 i 3 2 $ = y B ` 4.P.U.)   W . .   ~ W.R.R.P.| v.[ { ~.R.|.2.U n a ] C.Z.$X$X$X=X&X%X|.|.u.T.(.T./././.g.# ",
"k MXmXpX5XvXvXzXi > d u 3 - O = p P } 3.9.`.E     f U   P.&XR.P.P.U u.[ X.W.P.R.3.U m f ( N.Z.~.~.%X$X%X&X$X|.u.u.(.E./././.D.# ",
"k mXMXsX5XvXmXdXs 1 i i e - o * y E | 3.9.`.1.    B _   >.W. Xu.2.U O.[ X.N.n. Xc.U B y L N.W.R.|.|.$X~.%X$X$Xu././.T./././.V.# ",
"x MXmXdX9XcXmXzXv 6 s t 4 & + * p L | 4.9.I.2.  o W } . O.P. XO.4.m X.Y O.n.<.B. .' B n ( N.Z.|.%X$X|.$X|.$XZ.K.T././././.!.!.# ",
"i.hXvXxXzXvXzXzXb 4 u t 1 * O * a W | 4.6.P.4.  o.X .   m.E.R./ 1.J X.Y @.J.| n.o.} E f U V.C.|.|.|.$X|.|.$X~.u.u.E.!.!.!./.!.# ",
"i.wXuXvXmXgXwXpXS @ - i * * % * g W o.4.9.P.n.  2.X     I.Q.v.Y U M { [ @.@.W R.) Q L m W M.N.|.Z.$X|.%X|.Z.|.K.T.!.!.!./.!.!.# ",
"p.F.5XbXmXgX6XpXF.* 2 i + - % 6 m _ 1.6.9.I.b.  b.. . . I. X| c._ h [ [ { @.E N.~ W L f ( b.Z.Z.W.|.|.|.|.Z.C.u.K.(.!./.!.!.!.# ",
"a.F.5XbXmXdX5XsXG.+ % t $ - * - m ) 3.6.9.`.4.      + 6.Y. Xo.v._ M { [ { @.B | Q W W y ( b.b.C.Z.W.|.$X|.~.N.u.K./.R.!.!.!.!.# ",
"s.D.5XbXMXgX5XiXx.& > w + 2 = * B Q 2.6.I.U.8.      + U.Q.{.P.T.Q g @.T @.@.h U } } L a _ b.B.$XB.~.|.$XS./.W.u.T.(.E./././.E.# ",
"s.F.5XbXMXgX5XuXS # 4 r + @ & = C ` 1.9.I.'.9.      & '.OX,XN.E.Q J X.T { @.B Q | _ C n ( c.M.W.R.Z.|.|.S.W.C.u.u./.E./././.E.# ",
"s.D.5XbXMXzXG.F.C : 6 t o # 5 - C ' <.6.I.'.9.    Q U.OX}.,Xv.N.[ m { Y g.@.L Q | ' L a C c.M.V.c.Z.W.|.S.Z.R.u.T.(.E.!.E././.# ",
"s.G.6XbXMXzX7XF.y.t r i @ o = 3 B | n.6.I.'.I.    >.q.OXOX Xv.v.o.m MX$.$.$.8XP | ] U f ( c.b.M.b.W.Z.|.Z.W.C.u.T./.!./.E.!./.# ",
"s.uXsXvXmXxXsX7XG.p r r @ X & - C o.m.9.I.}.P.    ^ @X@X@X{.v.n. .P / 1X2X#.x.rXo._ U t E c.M.M.M.R.Z.W.R.Z.b.u.u./././.E.!./.# ",
"s.xXbXgXdXxXbXuXS p r r + o @ - V | 6.P.0.'.I.    _ :X@X@XoXn.P.} I { T #.; k $.jX_ W y ( o.c.C.N.C.Z.Z.Z.W.v.u.E./.!./.E.!.T.# ",
"s.bXmXdX6XvXmXsXc r d 5 @ @ - - L o.n.I._.'.I.    _ :X@X4X}.m.N.W H { / l e.r.:.1XjXU B ( o.b.B.b.Z.W.W.Z.Z.K.u.E./.E./.E././.# ",
"s.bXmXsX6XvXMXdX9 = r 5 + 2 & - B | 9.I._.'.Q.    g ,.@X@X,XN.n.Y B ~ { kX;.$.l %.8X( C E ] b.N.b.W.C.C.C.|.K.u.u./.!./././.E.# ",
"s.vXMXsX6XvXMXgXu = r r - X $ - C ,.6._._.'.'.        @X+X4X<. .U U [ { @.$.r.r.;.5.eXd ( 5.M.B.B.[.[.Z.W.[.n.K.K.!./././.(./.# ",
"s.mXmXsX5XvXMXzXi > 5 3 - + % q L <.4.I._.'.{.      . +X+X4X` / Q H [ T O.kX$.$.z l ].eXC V.b.M.M.S.W.[.C.[.K.K.K.!.E././././.# ",
"s.mXmXsX5XvXmXgXr = e 3 q + + - C 1.6.I.I.'.Q.        @ XX,XO.g Y L { Y K.MX$.r.r.-.;.].tXV.M.M.R.Z.|.Z.Z.W.T.K.T././././././.# ",
"s.vXmXsX6XvXmXxXs = r e - O $ q U 1.9.I._.'.U.          I.:Xn.Q Y.P { Y L.tXMX$.$.#.%.Z f.yXN.B.[.W.|.[.[.Z.T.H.T././.!./.!.!.# ",
"s.bXmXzXuXvXbXgXs = 2 e - O = e E 1.9.I._.'.U.          Q OXQ.O.0.Q X.Y J.Y.MX$.r.r.w.z &.:XqXm.[.Z.|.|.[.C.T.K.T.(.E./.!.!.!.# ",
"s.mXmXbXvXgXdX9X9 @ = 5 3 - = r E >.6.I._.'.U.          m 3.OX2.'.} O./ J.`.b.MXe.z qXF F D XX4X[.[.[.[.[.W.T.T.T.(.!././././.# ",
"s.mXMXmXmXpXy.y.v @ @ 2 3 - % r )  ._.I._._.P.             .+X8._.^ 1.[ @.{.m.kX$.K +.7.F F J @X[.|.|.|.[.C.T.H.T.(.E./.!.!./.# ",
"s.MXMXmXbXuX; s v = % 2 - - % t W 1.9.I._.'.U.            ^ 2.^ ^.^ >.Y O.'.B.kXMXK +.7.K F F I qX.X.XS.[.[.L.K.u.!.!.!.(.!.!.# ",
"s.mXMXMXmXsXc 9 b @ + = - - * p ) 3.I.I._.`.{.            ..{ ..I.9.^ I O. X-XkXlX4XD 0 :.:.#X-.|.4X.X|.[.|.K.K.T./.!.!./.!./.# ",
"s.mXmXMXmXpX9 c s @ = = 5 - + f _ >.I._.'.].U.            ..^ ^ I.6.^ B P.}.kXMX+.*.%.G G G H 7.yXM..X.X|.[.H.T.K././././.!.T.# ",
"s.MXmXmXmXpX7 9 u = = - 5 5 = d Q 3._.`.'.}.B.            4.^ ~ 6.6.^ h 4.<XMXjX+.yX@X7.G G %.G ].0.XX.X[.S.H.E.K./././.(.T.!.# ",
"s.MXMXmXmXpX7 9 6 # = 3 2 - = d _ 4.0._.].}.`.            y ^ ^ >.5.>.m  .kXkXe.MXjXqXyX4Xw.G G &.3X-X.X[.[.K.E.u./.!././.!.!.# ",
"s.MXMXMXMXpX, 7 6 = = 5 3 = - f _ 6._.'.'.}.Q.            Q ....>.9.^ g ,.MXMX;.MXtX3XqXeXqXtX-X,XrXXX}.[.[.K.T.u.T.!.(./.(./.# ",
"p.mXmXmXMXpX, 7 8 = 5 s - = = d Q 6._.'.}.+XU.            9...8.^ 0.^ P MXkXMX;.lXqXqX*.=.*.-.-.MX-X$X.X$XR.K.L.u.!././.!.!./.# ",
"i.mXMXmXmXpX, , s - e e - & = g | 5.`.}.+X+X|.      . ~   0.8.3.>.9.^ _ kXMXMXt.-.qX4X4X=.&.;.3XlX-XXX.X|.M.u.T.!.!.!././.!.!.# ",
"i.bXmXmXmXpX, 7 v s - s 2 = - f } 8.q.'.+X+X[.        ~   I.9.P.8.8.^ .XMXMXnXtXlXeXqXqXeXtX#XMX.XXX.X.X$Xv.T.T./././.(./.(.!.# ",
"x bXmXmXMXpX, 7 c 6 % i % 1 - d | 6.'.'.+X+X[.      . Q   _.I.U.9.8.3.kXMXMXkXrXtXqXkX4XF +.MXeX.X-X.X.X.XK.J.T.(.(./.).(.(.!.# ",
"k mXMXmXmXpX, 7 s > > 6 6 r - p | 5.q.].}.>XC.    # t X   _._.[.`.I.>.lXMXjXjXdXw.yXqXqXyXkXkX.X.X.XXX.X.X!.T.T.(./.(.(.(.!.A.# ",
"k vXmXMXmXpX, , u 9 * < r 3 * i | 6.'.}.+X@XW.    # w     _.{.|. XU.{.MXkX;.yXtXqX&.-.MXjXMX.X}..X.X-X.X.XT.T.T.(.(.(.(.(.!.F.# ",
"; mXmXMXmXpX, , 6 7 & & i * - t ` 5.q.}.+X+X[.  . = d     _.'.}. X{.U.kXMXyX4XtXtXyXlXkX.X[.-X}.[.-XXX-X$XL.T.L.(.(.(.).(.~.g.# ",
"= vXmXmXmXpX, 8 : > > + p O 4 r ^ 3._.}.+X+X[.  t @ u p   I.{.>XXX}.}.U.kXkXnXqX#XnXMX&X-X-XXX}..XXX-XXXXXJ.T.T.).(.(.).).(.d.# ",
": gXcXcXbX9X7 9 = 9 > + d & - 3 ! >._.].+X+X}.  | . X |   U. X,X:XXXXX XXXMXkX3.n V XX&XXX-X+XXXXXXX.X-X.XT.T.K.~.).(.).(.(.d.# ",
": uXuXuXuXD., , u 7 * & v 4 & 3 R >._.}.}.+XXX  1.. X 1.  {.>X,X>X>X-X}.}.B.<.<.o.( XX>X;X-X-X+XXX.X-X-XS.K.T.K.(.).(.(.(.(.s.# ",
": A A A j 8 , , 9 : * # p 2 $ q W  ._.}.}.:X}.  ] O o o.  U.>X,X,X-X&XXX[.m.B.| ' [.;X>X,X-XXX-X-XXX.XXX3.T.T.u.(.).).).(.(.s.# ",
", 8 , , , : , : 9 < 6 # d . & 4 E ^ 0.[.}.@X}.    ( n .   .X<X<X<X+XXXXX+XU.`.,.,.;X;X<X>X>X-X-XXX-XXX&Xu.L.E.u.(.).).)./.(.s.: ",
", ; , , , , , , 8 9 1 @ 6 o 2 3 L ] 0.].+X+X}.    ' m     *X<X<X,X>X-X&X.X[.m.] ( XX,X<X>X>X-X-X-X-X-X.XT.T.T.T.(.).).).(.).s.# ",
": l , , , , : : , f.9 + > + w 3 m | 9.}..X+X[.  ' @ O   C [.>X<X,X,XXX+X[.B.M.M.S.;X-X4X<X<X>X-X,X;X>X.XE.T././.).oXoXoX(.(.s.: ",
": i.# , , , : , , 9X$ & @ 1 i 3 g | 6.`.}.+X}.  B..     {.V =X<X>X-X-XXXS.S.M.,..X;X+X<X<X>X<X<X,X;X-X XT.T.^./.(.oXoX).(.(.s.# ",
", p.# , , , , , 7 sX> $ @ r u - a _ 9.`.}.OX'.  Z.X   . Q.N.>X<X-X-X>X-X[..XM.M.;X-X<X<X<X,X<X<X,X,X>XXXT.T.T.(.).).).).oX(.s.# ",
": s., , , , , , , uXc 2 w i q 3 t Q 3.I.[.XX}.  ( X . > {.,X&X>X:X-X-X>X.X.X<.S.;X>X<X<X<X<X,X<X<X,X-X[.L.T.T./.).oX).oXoX).s.# ",
", s.: , # , , , , 5Xx.6 i t 6 1 r E >.0.`.}.}.      @ [.{.:X;XXX>X<XXX-X-XM.c.;X;X>X<X,X>X<X,X@X,X,X>X3.T.T.T.^. X).oX).(.).s.: ",
": s., # : , , , , j uX6 6 u r q 3 B ' 0.[.XX.X      & &XN ,X-XXX>XXX.X-X.XS.S.XX;X;X<X<X-X<X-X<X,X,X,X^.^.T.T.^.).).oX).(.).p.# "
};
