/* XPM */
static char *result[] = {
/* columns rows colors chars-per-pixel */
"64 64 240 2 ",
"   c #010102",
".  c #090708",
"X  c #0C090A",
"o  c #130F0D",
"O  c #16100E",
"+  c #1C1512",
"@  c #1D1817",
"#  c #1C1B1B",
"$  c #201714",
"%  c #221916",
"&  c #231C1A",
"*  c #2A1D1A",
"=  c #2C211D",
"-  c #32231D",
";  c #1B3230",
":  c #222324",
">  c #2C2521",
",  c #23252A",
"<  c #2C2A2A",
"1  c #352620",
"2  c #342924",
"3  c #3B2B24",
"4  c #392B27",
"5  c #3F3027",
"6  c #3C312C",
"7  c #2A2A31",
"8  c #293038",
"9  c #393736",
"0  c #71261F",
"q  c #412D26",
"w  c #422F28",
"e  c #403027",
"r  c #44332B",
"t  c #4B342D",
"y  c #54352E",
"u  c #453B37",
"i  c #4B3B33",
"p  c #523C33",
"a  c #5C3D36",
"s  c #49423F",
"d  c #58423A",
"f  c #63443C",
"g  c #6A463E",
"h  c #79443E",
"j  c #3C3C59",
"k  c #165047",
"l  c #186455",
"z  c #2C7351",
"x  c #0F7273",
"c  c #494746",
"v  c #584943",
"b  c #5D5857",
"n  c #694B42",
"m  c #724D44",
"M  c #7B4A44",
"N  c #6A524A",
"B  c #77544A",
"V  c #7A554A",
"C  c #6F5851",
"Z  c #775C54",
"A  c #61705B",
"S  c #424360",
"D  c #726E73",
"F  c #8B2013",
"G  c #C03D2A",
"H  c #976304",
"J  c #9A6717",
"K  c #89433E",
"L  c #9B6D26",
"P  c #CD4C38",
"I  c #825A4F",
"U  c #895C4D",
"Y  c #914F50",
"T  c #895D52",
"R  c #985859",
"E  c #A6585A",
"W  c #997148",
"Q  c #876259",
"!  c #8E655A",
"~  c #966759",
"^  c #A07340",
"/  c #A66D5D",
"(  c #AC745C",
")  c #A55E63",
"_  c #8D6C65",
"`  c #936C62",
"'  c #9B6D60",
"]  c #9A7166",
"[  c #9E756A",
"{  c #9E7A72",
"}  c #A66266",
"|  c #B6676C",
" . c #A27364",
".. c #A87868",
"X. c #AC7B6D",
"o. c #B77C6A",
"O. c #B96D74",
"+. c #A87D73",
"@. c #B87777",
"#. c #DA6551",
"$. c #C2797E",
"%. c #3C845A",
"&. c #52956A",
"*. c #9A933C",
"=. c #D6B90C",
"-. c #D2B513",
";. c #C9A82B",
":. c #E7C915",
">. c #F0DA2E",
",. c #A59455",
"<. c #B6846E",
"1. c #A88279",
"2. c #AD857C",
"3. c #B28274",
"4. c #B9847D",
"5. c #B78878",
"6. c #BB8C7A",
"7. c #BA9773",
"8. c #BE927B",
"9. c #DB916D",
"0. c #C08D7E",
"q. c #C1967D",
"w. c #C2997F",
"e. c #CDAA79",
"r. c #CFC64B",
"t. c #FBEF47",
"y. c #FCF34D",
"u. c #F5E57B",
"i. c #6F748E",
"p. c #C47D83",
"a. c #0A8D8F",
"s. c #03A9AB",
"d. c #01B6B8",
"f. c #01BABC",
"g. c #2DB4B7",
"h. c #798886",
"j. c #6BA9A0",
"k. c #32EE87",
"l. c #44FF9C",
"z. c #56F7A2",
"x. c #6DEFAB",
"c. c #5AC9C6",
"v. c #899092",
"b. c #AE8A82",
"n. c #BC8682",
"m. c #B38C84",
"M. c #BA8C83",
"N. c #BA9184",
"B. c #B49189",
"V. c #BB958C",
"C. c #BC998E",
"Z. c #AD9793",
"A. c #BD9C94",
"S. c #BA9F99",
"D. c #ADA29E",
"F. c #BCA29A",
"G. c #929AAE",
"H. c #93A3B0",
"J. c #A1AEB7",
"K. c #C78189",
"L. c #C48688",
"P. c #CA858D",
"I. c #CC898F",
"U. c #C29484",
"Y. c #C49C83",
"T. c #C59B8C",
"R. c #C69A8C",
"E. c #CE8C92",
"W. c #C49790",
"Q. c #CE9196",
"!. c #C29E94",
"~. c #C99E93",
"^. c #CF9498",
"/. c #CC9D99",
"(. c #D19596",
"). c #D1959A",
"_. c #D49A9D",
"`. c #D89F9E",
"'. c #C9A186",
"]. c #C7A48D",
"[. c #CAA58C",
"{. c #D0B58E",
"}. c #C4A395",
"|. c #C9A293",
" X c #CCAB94",
".X c #C3A49B",
"XX c #CAA59B",
"oX c #C6AA9C",
"OX c #CAAD9D",
"+X c #D9A19E",
"@X c #D2AB98",
"#X c #D2B29A",
"$X c #D8B89B",
"%X c #E6A492",
"&X c #C5AAA3",
"*X c #C6ACA6",
"=X c #C9ABA3",
"-X c #C9AFA9",
";X c #D0AEAB",
":X c #CCB2A4",
">X c #CAB3A9",
",X c #D7B7A3",
"<X c #D0B4A5",
"1X c #D1B6A9",
"2X c #D2B9AB",
"3X c #92D1B7",
"4X c #AEC5BB",
"5X c #E1D09D",
"6X c #D9CBB5",
"7X c #A6B1C2",
"8X c #A9B6C6",
"9X c #AEB8C7",
"0X c #B7CCC9",
"qX c #BAC7D5",
"wX c #B0F6D7",
"eX c #DBD4C7",
"rX c #CBCFD3",
"tX c #E1DACE",
"yX c #E4DED3",
"uX c #E8E4D9",
"iX c #F3EED5",
"pX c #C9D6E3",
"aX c #D4DDE4",
"sX c #D1DEE9",
"dX c #C9EDE5",
"fX c #D5E1EB",
"gX c #DAE5ED",
"hX c #D4EDEA",
"jX c #DEE9F1",
"kX c #EFECE4",
"lX c #EFEFEE",
"zX c #F5F3EE",
"xX c #E2EEF4",
"cX c #E4F1F6",
"vX c #E8F4F7",
"bX c #EAF6FA",
"nX c #EFF9FC",
"mX c #F8F7F3",
"MX c #F4FDFD",
"NX c #FAFFFE",
/* pixels */
": : : : : : : , : : : : ; k k x a.a.s.f.f.f.f.f.f.f.f.f.f.f.f.f.f.f.f.f.f.f.f.f.d.s.a.a.x k k 7 : : : : : : : : : : : : : : : : ",
"f.f.d.s.a.l ; ; S qXxXnXnXMXnXnXnXMXMXMXMXNXNXMXNXMXMXnXnXMXnXnXnXnXcXpXJ.G.H.G.H.H.pXcXMXMXMXMXMXMXMXnXsXqXc.c.g.f.f.f.f.f.f.d.",
": , : : , , , , S pXbXNXMXNXMXMXMXNXNXMXNXMXNXMXMXNXMXNXMXMXMXNXMXMXnXfX8X7X7X7X7X7XpXbXMXNXMXNXMXNXMXvXpX7X7X7X7X7X7X7X7X7X9XpX",
", : , , , , , , S pXbXMXNXMXMXNXMXMXMXNXMXNXMXNXNXMXnXjXfXfXfXsXfXgXjXbXnXnXnXbXnXMXbXxXgXfXfXfXfXsXgXcXbXMXbXnXbXnXbXnXnXnXnXvX",
", # , , , , , , j pXbXMXNXNXMXNXMXMXNXMXMXMXNXMXMXMXbXpX8X7X7X8X8X8XgXnXMXMXMXNXMXMXMXxXqX7X8XJ.7X7X9XxXMXNXNXNXMXMXMXbXjXsXpXsX",
", , , , , , , : 8 G.qXsXsXsXsXsXsXsXaXsXfXsXaXhXfXfXjXcXbXbXnXbXbXbXcXcXjXjXjXjXjXjXjXcXbXnXnXqXgXcXbXcXjXjXgXjXhXjXjXdX3Xk.k.z.",
", , , , # , , , , , , , , , , , , , , 7 7 , 9 c 7 i.fXbXMXMXNXNXMXNXmXgX9X7X7X8X7X7XpXcXMXMXnXaXfXMXMXbXpX7X7X7X7X7X7X3Xz.l.l.l.",
", , , , , : , : , 7 u 7 , , 7 7 7 , 7 , 9 9 s 9 9 i.qXjXxXjXcXjXgXfXpX9XG.H.pXaXsXaXaXxXjXgXjXD aXcXjXcXcXcXbXcXxXcXbXhXwXl.l.l.",
", , , 7 7 , 7 7 9 j = : 6 u s c s s 9 2 6 u s b v d s s s u u r u c D J.i.Q D v.J.H.D b v v u s v b C v.J.jXxXbXMXNXMXvXwXz.l.l.",
"j 7XpXsX0Xh.u 7 > > 8 2 6 9 : 6 s - = = @ = # # , @ + = = = = = = r i i u # # = @ = # 2 6 = = < r 4 5 i d b i.0XsXhXdXdXwXx.x.x.",
"pXv.c > # 9 2 6 = * > > & = > & - e 5 = = = = @ % = = 2 5 4 5 r t i 5 t r 5 4 = & - = u d i d 5 r 6 = - - 3 4 i p d s d i v C i.",
"6 6 1 @ & O @ # # & O + = < 4 i s r s 5 6 = = = 2 - 4 r 5 3 3 r 6 e r r p r r w r p s r i r u d s r r t 2 > 2 5 5 3 w e i p e p ",
"4 i r + $ - 6 d d v d i u r 6 @ - - 3 3 5 e - - - 4 4 - - q - - @ @ + + @ o + + + + = 1 3 5 3 - 3 5 3 > * + = > + @ @ @ * & * 3 ",
"u u u r - $ o . 2 2 & o * 3 r - = @ = = - e - - 2 - = O O + $ X 2 % o X o # + 2 - - = * * - - 3 3 - 6 i e q 4 e r @ = = @ O # = ",
"t w 3 u i r 3 * @ & - 3 - * - - - = = - = = + * % % = = $ O $ @ % 1 + % : 3 % * = * $ O + X O $ O + @ = q e r e r i r r 5 5 r 2 ",
"3 1 3 - 3 3 - 3 w - q r t i p d f f f f f d a d t r r 5 q 3 3 - - - - 3 3 - - * - 4 * * * * = = & > @ o * - - 2 5 t y t i i w e ",
"3 t y a f g I Q ! W ^ ( [ ....<. .( ~  .' ~ ~ ] ! ! ! Q Q Z I Z V V V C V Z Z B m m f a p y p p t i r q - q - * $ % + O O + + @ ",
"B T ! [ ....1.( ..o.<.5.6.7.q.7.5.7.6.7.6.6.5.3.3.X.<.3.3.3.2.1.X.X.+.X... .[ ~ ' ~ ! ! T T I V m V g h N g y t t q 3 t 1 3 - - ",
"[ <.5.6.8.w.7.Y.'.'.'.'.e.[.e.[.e.].'.'.'.w.'.Y.8.'.8.w.8.8.8.8.N.M.6.N.M.2.3.4.5.2.3...X... .' ..'  ...] [ ! V f a M n n f q 3 ",
"U.Y.Y.].]. X X X X X X{. X X X[. X]. X'.'.].'.Y.Y.'.Y.'.Y.Y.w.'.'.Y.q.q.q.N.8.8.8.8.6.6.6.2.5.6.5.5.2.5.@.X.X.' ~ ~ ~ I ' ~ m f ",
"}.].}. X#XOX#X X#X#X#X#X#XOX#X#X#X#X X[.[.[.[.'.'.'.'.'.'.Y.'.'.'.T.w.'.Y.Y.Y.Y.w.w.q.q.q.q.q.U.U.w.w.8.Y.N.6.Y.m.X.4.X.1.~ [ +.",
"#X XOX X#X X#X#X#X#X#XOX<X$X#X#X#X#X#X X X X[.[.[.'.[.[.[.[.[.[.[.].[.[.[.].[.'.T.Y.U.U.Y.].].R.T.T.T.C.T.].].C.U.U.N.R.N.N.6.5.",
"}.#X X[. X}. XOX XOX X}.}.T.A.}.}.}.].}.].A.].}.W.U.R.R.R.~.|.|.|.Y.Y.Y.Y.q.q.0.m.m.6.6.4.3.Q ~ 1.= p n C N N B Z Z _ Z Q ` { Q ",
"                                                                                                                                ",
"    ] F.C.[   . [ 1.X.t                                                           m.4.+.o     ! Q I                             ",
"    . . X + [ _ O . . + * # #                                   m ~ / / X.~       . . X ! B f . . . f 3 2                       ",
"@ # .     O M n O X . u v w t .                             . . 1.,X,X,Xe.T.& + + .   .  .~ ~ .     M m m                 . O O ",
"OX}.> .         +.3...p     . / / /                       $  X#X$X$X$X$X#X@X].].N..     .                         .   .     N.N.",
"N |.|.~.}.Z                                       . m ~ Y.@XOX#X6X,X,X#X#X X@X[.~.R.U.N.X.5.U.' a X.5.o.o.o.@.6.L.W.W.V.W.!.W.V.",
";X2X1XV.C }.<XoXR.].~.Y.'.'.'.'.Y.w.w.~ a 6.o.o.( ..5.#X,X2X6X6X<X@X@X X+X<X<XXX|.|.|.Q.U.W.=X~.R.R.U.U.U.U.R.U.W.T.~.R.W.~.W..X",
"<X<X=X:X;X1X2X2X<X<XXX|.[.|.'.Y.U.6.o.o.( ( ( ( 4.<XXX XM.X.] 1.N.N.n.4.4.6.V.L.+.X.4.W.XX/.R.W.0.0.Q.W.W.~.XX@X X|.~._./.~.XX=X",
":X=X<X1X2X2X2X1X2X<X;X,XoX}.}.'.U.5.0.o.( / ( | ( 6.4.@.R h ' @.M.V.V.M.M.V.Q.I.m.4.R ) @.K.U.W.R.U.0.0.Q.~.XX;X=XXXXXXXXXXX~.~.",
"1X<X<X<X:X1X1X2X1X<X<X X=XXX].q.0.o.( o.<.6.Y.Y.(.'.[.w.R.U ~ Q ~ ~ / ..X.) ` ~ ~  .T X.0.5.R.U.(.T.|.|.R.U.R.~.|.XX=XXXXX|.XX/.",
"OX1X:X:X:X1X1X#X:X:X@X X[.T.Y.0.0.q.Y.q.5.8.8.w.( (  .~ U I J U V J U I m m K g M M M K m U U ..( 3.5.5.U.U.XX}.~.XX=XXXXXXXXX|.",
"OXOX<X1X<XoX:XOX=X<XOXXX~.].<.5.( ( ,.o.<.( ( ( <.3.@.O.| | | } ) O.| | mX$.O.O.| } | O.O.@.L.4.X...~ ~ / ~ ~ +.X.6.!.XXoXXX.XXX",
"OX:X:X:XOX#X:X X XOX|.|.lXNXlXzXOX~ U g g h I Y R } } R Y R E | ) ) ) J.&.Y E ) } ) ) R R } } } ) ) R / ~ Q ~ ~ T ! ~ 4.~.W.}.~.",
"OXOXOXoXC.}.oX:XoX}.OXlXNXlXNXNXNXlXNX+.X.M.U.@.@.$.L.L.I.L.O.$.lXz %.4X&.v.O.$.O.| O.p.$.O.| O.| | @.W.U.n.X...~ ' ..` V.!.|.C.",
"F.V.oXoXF.C.].A.m.R.NXlXiX>.kXmXNXNXlXNXlX2X|.}.[. X}.Y.uXNXzX&.>.>.; %.&.p.@.$.O.p.p.n.n.V.W..X.X&XXX~.XXXXXX!.B.+.] ' C.C.V.m.",
"F.b.2.b.C.B.N.].C.5.lXmX6XkXlXlXmXNXNXNXlXNXlX:XC.M.m.NXNX&.&.y.&.y.k v.4XI V V V ! ` +.2.M.U.W.W.!.|..XXX}.}.~.A.+.X.2.b.b.[ b.",
"oX:XF.Z.1.B.{ 1. .2.5.eXyXtXxXyXuXu.>.>.t.lXNXlXlXlXNX&.&.y.&.y.l ,.h.rXW ! ! ! ..M.W.M.C.XXA..XC.S.!.XXXX.X!.A.N.@. .[ I I _ +.",
":X1X:X>XOXD.] 1.[ 1.m %XuXtXr.tXmX:.lXmXNX#.#.NXNX&.t.y.&.y.z >.&.3XiX<.......[ ~ ' ` X.X.b.5.5.<.X.V.5.<.+.X.X...U V V Q Z Z D ",
">X<X1X:X>X<XoX*X}._ C mXiX=.uXeXeXtXeXyXkXkX-.5XP #.z t.&.:.l 7.6XkX' ' ..[ ' [ ~ ! ~  . .! Q T T U ~ ! ~ ~ U ! ~ m I n B N 1.A.",
"6X2X2X2X<X>X2X<X>XOXOXNXzX:.tXlX6XeXeX5XeX{.*.F P #.6Xr.*.>.e.eX` Q ! Q T I V I ! T I ! B V m n a a I m V T m f g N Q B.A.&XF.=X",
">X:X1X2X6X2X2X2X:X:X:X&XlXmXtX6XeX6X-.eXkX9.H 0 E.9.G A z {.uXf B V y t f d n a y f m a n y a a y C M a a n Z V.A.m..XoX.X.X=XXX",
"<X1X1X1X:X1X:X1X<X:XOX:XOXlXiXG tX;.;.tXeXH H ,.G G G =.v.uXZ ` Q _ _ ! _ Z _ ` _ _ _ Z _ I ` { 1.m.1.b.B.A.A.A..X=X=X=X=X=X=X.X",
"1X1X1X:X1X1X1X:X<X:X:X:X}.NXkX#.uX=.=.tXr.H H ;.G G F ,XuXB.B.2.1.1.1.2.b.m.b.m.m.m.m.B.V.V.V.A.W.S.!..XA./.!.=X=X=X*X=X=X=XOX=X",
"<X1X1X6X1X<X<X<X:X:XOXOXOXOXlXNX%X>.:.uXH L J ,XG Y :XeXB.B.b.m.2.2.2.B.m.B.B.A.m.A.V.A.!.!.S..X.X.X.X&X&X&X*X=X*X=X=X=X.X=X=X=X",
">X$X1X1X1X<X:X:XOXOX#XOX X X|.iXNX5X=.$XH H <.:.T 2X2XC.C.B.V.C.Z.C.}.B.V.Z.F.F.A.F..X.X&XW.!.&X.X.X&X&X&X*X*X*X-X;X=X=X=X=X=XXX",
"1X:X1X1X2X:X:X:XOXOXOXoX}.oXoXoXoXvXNX<X=.e.iX}.eX}..X}.!.A.V.C.b.B.V.B.n.b.W.A.S.!.!..XF./.&X/.&X=X-X=X-X-X-X-X-X=X-X=X&X=X&X&X",
"1X6X1X1X:X:X:X:X:XOXoX:XOXOXOXOXoXOXOXuX6Xw.V.6XoX.XF.}.S.}.!..XA.A.W.S.A.S.!..X!.!.&XS.*X&X&X&X*X=X-X-X-X-X-X=X>X-X*X-X&X=X=XXX",
"1X1X<X<X:X:X:X=XOXOXOX:X:XOX:XF.oXOXOXOX#XOXOXoX.X.X}..X.XA.!..X!.W.S.!.!.S.F..X&X&X&X&X&X=X=X;X;X;X-X*X-X-X-X-X*X>X-X*X*X=X&X=X",
"(.5.F.oXOXoXOXOXOX*X:XOXOXOXOXOXoXoXOXoX&XOXoX.X.XF.}.}..XA.}.A.A.S.F.!.!..X&X&X&X.X&X!.&X.X&X*X*X*X-X*X-X-X-X-X-X-X-X-X-X-X=X=X",
"Q.I.I.E.E.E.E.p.2.XXoXOX*XoXoXOXOXOX&XXX.X.XS..X}.}.}.}..XA.!.!.A.S.!.A.F.S.F.F.!.S.&X&X.X*X=X&X*X*X-X-X-X-X=X*X*X*X*X*X*X-X-X-X",
"E.Q.I.E.E.E.E.E.I.P.P.P.W.Q.(.K.@.B.C.}..XS./.&X}.F.A.}.A.!..X!.!.S.!.!.!.A.!./.S./..X!.&X&X&X&X/.;X=X*X*X*X&X&X*X*X=X-X-X-X-X;X",
"I.E.E.Q.Q.Q.E.E.E.I.E.I.E.E.I.L.I.P.P.P.P.p.p.E.I.E.E.E.E.I.K.V.n.n.n.m.V.W.V.A.V.A.S.!..X.X/.&X&X-X&X&X!.S.V.b.| R @.p.P.I.I.E.",
").).)._._._.E.p.p.P.I.E.E.E.E.E.E.E.P.Q.E.).^.p.P.P.I.P.P.K.I.K.P.p.P.p.p.p.p.P.p.p.P.P.P.p.p.p.p.P.P.P.E.I.P.P.P.P.P.E.p.P.E.E.",
"+XXX`._.`.`._._._._.XX_.`.)._.).).E.K.p.p.p.p.E.p.E.E.E.E.E.E.p.E.I.I.I.I.P.P.E.P.I.I.p.E.Q.P.E.p.Q.E.E.P.I.P.I.P.I.P.P.p.E.E.p.",
"+X+X+X+X`.+X+X`.`.`._._._._._._.).).^.^.)._.).).)._.)._._._.).).^.^.).).)._.)._.^.).).^.).)._.)._._.^.^.^.E.^.Q.E.).^.Q.^.^.).).",
"+X+X`.`.`.+X`.`.`._._._._._.)._.).).).^.).).).^.).).^.E.^.^.).).^.Q.Q.Q.Q.Q.Q.E.Q.^.Q.^.^.E.^.Q.).).).^.^.^.Q.Q.^.^.^.E.Q.I.E.).",
"`.`.`.`.`.`.`.`.`.`.+X+X`.`.).`._.).)._.).).).^.).).).).^.).).).)._.)._.).).).).).).^.).).).^.^.).).).^.).^.).^.^._.).).).Q.Q.).",
"_._.`.`._.`._.^._._._.`._._._.).).).^.).).).).).).^.).).).^.^.).^.Q.Q.Q.Q.Q.).).^.^.^.^.).).).).)._.).).).^.).^.^.^.).).Q.).Q.).",
"+X`.`._.`.`.`._._._._.^.)._.)._.).^.^.).).E.).Q.).).).^.).).).).).).^.).).).).).^.^.^.^.).).^.^.).).).).^.)._._._.^.^.^.).).).).",
"s.d.f.f.f.f.f.f.f.f.g.g.j.H.D.^.^.^.).).).^.^.).^.^.).).).).).).^.Q.E.).).^.^.^.E.^.Q.Q.^.D.G.j.g.g.d.f.f.f.f.f.f.f.d.s.x k , % ",
"# : # # # # # # : # # # # # # # # # # # # # # # # # # # # # # # # # # # # # # # # # # # # # # # # # # & # # # # # : # # , # & : "
};
