/* XPM */
static char *result[] = {
/* columns rows colors chars-per-pixel */
"64 64 237 2 ",
"   c #010102",
".  c #090708",
"X  c #0C090A",
"o  c #130F0D",
"O  c #16100E",
"+  c #1C1512",
"@  c #1D1817",
"#  c #1C1B1B",
"$  c #201714",
"%  c #221916",
"&  c #231C1A",
"*  c #2A1D1A",
"=  c #2C211D",
"-  c #32231D",
";  c #1B3230",
":  c #222324",
">  c #2C2521",
",  c #23252A",
"<  c #2C2A2A",
"1  c #352620",
"2  c #342924",
"3  c #3B2B24",
"4  c #392B27",
"5  c #3F3027",
"6  c #3C312C",
"7  c #2A2A31",
"8  c #293038",
"9  c #393736",
"0  c #412D26",
"q  c #422F28",
"w  c #403027",
"e  c #44332B",
"r  c #4B342D",
"t  c #54352E",
"y  c #453B37",
"u  c #4B3B33",
"i  c #523C33",
"p  c #5C3D36",
"a  c #49423F",
"s  c #58423A",
"d  c #63443C",
"f  c #6A463E",
"g  c #79443E",
"h  c #3C3C59",
"j  c #165047",
"k  c #186455",
"l  c #2C7351",
"z  c #0F7273",
"x  c #494746",
"c  c #584943",
"v  c #5D5857",
"b  c #694B42",
"n  c #724D44",
"m  c #7B4A44",
"M  c #6A524A",
"N  c #77544A",
"B  c #7A554A",
"V  c #6F5851",
"C  c #775C54",
"Z  c #424360",
"A  c #726E73",
"S  c #8B2013",
"D  c #C03D2A",
"F  c #976304",
"G  c #9A6717",
"H  c #89433E",
"J  c #CD4C38",
"K  c #825A4F",
"L  c #895C4D",
"P  c #914F50",
"I  c #895D52",
"U  c #985859",
"Y  c #A6585A",
"T  c #997148",
"R  c #876259",
"E  c #8E655A",
"W  c #966759",
"Q  c #A07340",
"!  c #A66D5D",
"~  c #AC745C",
"^  c #A55E63",
"/  c #8D6C65",
"(  c #936C62",
")  c #9B6D60",
"_  c #9A7166",
"`  c #9E756A",
"'  c #9E7A72",
"]  c #A66266",
"[  c #B6676C",
"{  c #A27364",
"}  c #A87868",
"|  c #AC7B6D",
" . c #B77C6A",
".. c #B96D74",
"X. c #A87D73",
"o. c #B87777",
"O. c #DA6551",
"+. c #C2797E",
"@. c #3C845A",
"#. c #52956A",
"$. c #9A933C",
"%. c #D6B90C",
"&. c #D2B513",
"*. c #C9A82B",
"=. c #E7C915",
"-. c #F0DA2E",
";. c #A59455",
":. c #B6846E",
">. c #A88279",
",. c #AD857C",
"<. c #B28274",
"1. c #B9847D",
"2. c #B78878",
"3. c #BB8C7A",
"4. c #BA9773",
"5. c #BE927B",
"6. c #DB916D",
"7. c #C08D7E",
"8. c #C1967D",
"9. c #C2997F",
"0. c #CDAA79",
"q. c #CFC64B",
"w. c #FBEF47",
"e. c #FCF34D",
"r. c #F5E57B",
"t. c #6F748E",
"y. c #C47D83",
"u. c #0A8D8F",
"i. c #03A9AB",
"p. c #01B6B8",
"a. c #01BABC",
"s. c #2DB4B7",
"d. c #798886",
"f. c #6BA9A0",
"g. c #32EE87",
"h. c #44FF9C",
"j. c #56F7A2",
"k. c #6DEFAB",
"l. c #5AC9C6",
"z. c #899092",
"x. c #AE8A82",
"c. c #BC8682",
"v. c #B38C84",
"b. c #BA8C83",
"n. c #BA9184",
"m. c #B49189",
"M. c #BB958C",
"N. c #BC998E",
"B. c #AD9793",
"V. c #BD9C94",
"C. c #BA9F99",
"Z. c #ADA29E",
"A. c #BCA29A",
"S. c #929AAE",
"D. c #93A3B0",
"F. c #A1AEB7",
"G. c #C78189",
"H. c #C48688",
"J. c #CA858D",
"K. c #CC898F",
"L. c #C29484",
"P. c #C49C83",
"I. c #C59B8C",
"U. c #C69A8C",
"Y. c #CE8C92",
"T. c #C49790",
"R. c #CE9196",
"E. c #C29E94",
"W. c #C99E93",
"Q. c #CF9498",
"!. c #CC9D99",
"~. c #D19596",
"^. c #D1959A",
"/. c #D49A9D",
"(. c #D89F9E",
"). c #C9A186",
"_. c #C7A48D",
"`. c #CAA58C",
"'. c #D0B58E",
"]. c #C4A395",
"[. c #C9A293",
"{. c #CCAB94",
"}. c #C3A49B",
"|. c #CAA59B",
" X c #C6AA9C",
".X c #CAAD9D",
"XX c #D9A19E",
"oX c #D2AB98",
"OX c #D2B29A",
"+X c #D8B89B",
"@X c #E6A492",
"#X c #C5AAA3",
"$X c #C6ACA6",
"%X c #C9ABA3",
"&X c #C9AFA9",
"*X c #D0AEAB",
"=X c #CCB2A4",
"-X c #CAB3A9",
";X c #D7B7A3",
":X c #D0B4A5",
">X c #D1B6A9",
",X c #D2B9AB",
"<X c #92D1B7",
"1X c #AEC5BB",
"2X c #E1D09D",
"3X c #D9CBB5",
"4X c #A6B1C2",
"5X c #A9B6C6",
"6X c #AEB8C7",
"7X c #B7CCC9",
"8X c #BAC7D5",
"9X c #B0F6D7",
"0X c #DBD4C7",
"qX c #CBCFD3",
"wX c #E1DACE",
"eX c #E4DED3",
"rX c #E8E4D9",
"tX c #F3EED5",
"yX c #C9D6E3",
"uX c #D4DDE4",
"iX c #D1DEE9",
"pX c #C9EDE5",
"aX c #D5E1EB",
"sX c #DAE5ED",
"dX c #D4EDEA",
"fX c #DEE9F1",
"gX c #EFECE4",
"hX c #EFEFEE",
"jX c #F5F3EE",
"kX c #E2EEF4",
"lX c #E4F1F6",
"zX c #E8F4F7",
"xX c #EAF6FA",
"cX c #EFF9FC",
"vX c #F8F7F3",
"bX c #F4FDFD",
"nX c #FAFFFE",
/* pixels */
": # # # # # : # # # # # : # # # # # # # # # # # # # # # # # # # # # # # # # # # # # # # # # # # # # # # # # # # # # # # : # : # ",
"@ , j z i.p.a.a.a.a.a.a.a.a.s.s.f.S.B.Q.Q.Q.Q.Q.Q.Q.Q.Q.^.Y.Q.Q.^.^.^.^.Q.^.Q.Q.^.Q.R.Q.^.^.Q.Q.Q.Z.D.f.s.s.a.a.a.a.a.a.a.a.a.i.",
"/.Q.(.^.R.R.R././.^.^.^.^.^.^.^.^.^.^.^.Q.Q.Q.Q.Q.Q.Q.Q.^.Q./.^.^.^./.Q.^.^.Q.Q.R.Q.R.^.^.R.^.^./.^.!.Q./././././.(.(.(./././.(.",
"Q.Q.Q.Q.^.^.^.^.^.^.^.^.^.^.^./.^.^.^.^.Q.Q.Q.Q.^.Q.Q.Q.Q.Y.Q.^.^.^.^.^.^.^.^.^.^./.^.^.^.^.^.^././././.(././.^././././.(.(././.",
"^.^.^.~.^.^./.^.^.Q.^.^.R.^.R.Q.R.^.^.^.R.Q./.^.Q.^.^.^./.^.^.^.^.^.^.^.^.Q.^.^.R.^.^.^./.^.^././././.(.(.(.(.(.XXXXXX(.(.(.(.(.",
"Y.R.Y.R.Y.R.R.R.R.R.^.Y.^.^.^.Q.R.^.R.R.R.Q.Q.R.Y.Q.Y.^.Y.Q.R.Q.^.^.^.^.R.Q.R.Q.R.^.^.R.Q.Q.Q.^./.^././.|./.(.(.(.(.XXXX(.(.(.(.",
"Q.R.^.R.R.R.^.Y.R.R.^.^.^././.^././.^.^.R.^.^.^./.^./.^.^.^./.^.^.^./././.(.^.^.^.^.^.^.R.R.^.^././././././.(.(.XX(.XXXXXXXXXXXX",
"J.K.K.y.J.K.K.J.Y.y.Y.y.J.Y.Y.J.R.y.Y.Y.y.Y.J.Y.J.J.J.Y.Y.J.J.Y.y.y.y.Y.^.y.R.y.K.J.K.y.G.y.Y.^.^./././././././././././.(.(.(.XX",
"Y.Y.K.G.K.G.K.J.Y.Y.y.Y.Y.y.Y.y.y.y.y.y.J.J.y.y.J.G.y.y.y.G.G.G.Y.Y.y.y.H.Y.J.J.J.K.R.Y.Y.K.Y.Y.Y.Y.Y.K.K.K.G.G.G.Y./.^././.Q.^.",
"Y.K.K.K.+.o.U [ c.M.C.}.#X#X*X%X}.}.|.}.}.}.V.M.N.N.T.M.v.c.1.c.Y.y.Q.^.R.K.Y.K.J.J.J.J.J.H.J.J.J.K.Y.K.K.Y.K.K.Y.Y.R.R.Y.Y.Y.Y.",
"*X&X&X&X&X$X$X$X#X#X#X$X$X*X$X#X#X#X}.#X}.C.!.E.!.C.V.C.E.A.V.}.C.!.C.C.V.].V.}.].].A.].].E.m.2.K.R.~.Y.J.K.K.K.Y.K.Y.Y.Y.Y.Y.Y.",
"&X&X&X$X$X$X$X$X$X$X$X$X$X$X$X$X#X$X#X}.#X}.C.#XA.E.C.C.E.V.V.V.E.C.C.!.].].|.].].}.].].]. X X X X X X#X.X X X,.y.R.Y.Y.Y.Y.Y.Q.",
"$X&X$X&X&X$X&X&X&X$X*X&X$X$X$X*X%X$X|.#XE.#X#X}.#X#XC.E.E.C.E.V.E.}.E.}.E.}.E.A.}. X X#X X X X.X X X.X=X.X=X#X.X.X X X.X X[.1.~.",
"%X%X$X$X$X&X&X$X&X&X&X&X*X$X*X$X%X#X$X!.#X#XE.#X#XE.E.E.}.C.V.E.}.V.C.#X].}.}. X X X.X%X.X.X.X#X X%X.X.X=X.X.X.X.X=X-X=X-X=X=X>X",
"|.#X%X%X&X&X&X-X$X&X*X&X$X*X*X#X#X%X}.#X#X}.#XV.#XE.C.E.C.T.V.V.E.C.E.E.C.}.}. X3XM.9.2XrX.X.X X.X.X.X=X=X X.X=X=X=X=X-X=X,X,X,X",
"#X%X#X#X&X$X$X-X&X&X*X$X$X$X$X#X#X}.#X#X}.C.E.V.M.T.x.v.v.M.m.x.V.M.V.T.].].].0X}.tX'.%.=XnXjX X X]. X X X.X.X.X.X=X>X>X,X,X>X>X",
"|.%X%X%X%X$X$X&X$X$X$X#X X%X#X!.#XE.T.#X}.A.C.C.A.A.B.M.m.V.V.N.N.M.m.N.T.,X,XY =.;.F F OX=.2XnXrX].{.{..X.XOX.X=X=X:X>X,X,X+X=X",
"%X%X%X#X%X$X&X%X%X$X%X|.#XE.E.#X}.C.E.C.V.M.C.b.V.m.m.v.m.,.x.x.v.x.m.n.0X*XH D 2XG Q F rX=.-.@XnXhX.X.X.XOX=X=X:X=X:X>X,X>X,X>X",
"|.%X%X%X$X%X%X%X#X}.}.V.}.C.E.V.V.M.M.T.m.v.v.v.v.x.,.,.,.X.>.X.,.m.m.gX=XS D D ;.F F q.0X%.%.tXO.gXnX].=X=X.X:X:X>X>X>X,X,X>X:X",
"|.%X|.%X%X%X%X}.V.V.V.m.x.X.v.>.' / B / I / ( / ( / R R / ( / C ( C rXz.%.D J J *.F F 0X0X*.*.wXD tXhX X=X.X-X>X>X:X,X,X>X,X,X=X",
"|.#X#X#X|.A.m.V.N.K f p t N V t p p t b p n b t s d d d e s B V b wX'.l l D 6.O.S G 6.rX0X&.3X0X3X0XbXhX X#X-X=X>X,X:X3X,X:X,X,X",
"|.E.#XC.v.R M b d n R N m K p p b n B B E B I I R B K R R R R ` 0X'.-.$.q.0XO.O.S Q '.0X2X0X3XqXvX0X=.vXnX.X%X=X=X>X>X=X,X,X,X,X",
"V.X.M V n K m I E L W W E W L E I / E { { E E E ` ) ` ` ) ) vX1X4.k =.#.e.l O.J 2X=.gXgXrX0X0XwX0XrX%.tXvXV ( ].-X.X=X>X:X=X:X-X",
"A C I I B B L } | | | :.2.M.} <.<.<.x.| | ( ) ) ` ~ } } <.tX<X$.-.l e.#.e.w.@.nXxXO.O.nXvXjX=.vXeXq.wXrX@Xn X.` >./ Z..X-X-X:X-X",
">./ K B { { X.n.T.E.}.|.].E.E.V. XV.|.V.b.T.b.} E E E I qXd.$.k w.#.e.#.#.nXhXhXhXnXhXw.-.-.r.rXeXsXrXrX0X,.>.} >.' v.>.B.A.:X.X",
"x._ v.x.,.| | E.[.].].|.|.}.E.T.T.L.b.X.X.W E B N N L 7Xz.j e.#.e.#.#.nXvXv.n.N.=XhXnXhXnXnXnXvXhXgXtX3XvXhX2.N.A.4.m.N.x.,.x.A.",
"v.M.M.V._ ) <.m.E.|.|.%XW.|.|.|.!.T.T.b.1.+.+.+.+.+.+.#.@.; -.-.#.jXnXrXU._.[.{.|.|.3XhXnXhXnXnXnXtX-.tXhXnXI.n._._.V.N..XA.m.A.",
"M.|.E.M./ } ( W } | b.L.M.o.[ [ ......o.+.+.[ [ [ +.f.#.5X#.k hX7.o.K.K.H.H.+.o.o.3.2. .X.nXhXnXnXnXhXnXhX.X].]..X X].A. X.X=X.X",
"E.[.E.[.<.W E I E E I ) ] U ^ ^ ^ ^ ] U U ] ] ] Y Y P #.F.^ ^ ] ] Y U P U ] ] U L K g f f L W #XhXhXnXhX_.[. X.X.X=XOX.X.X=X=X=X",
"|.!.|.|.|.W.3.| | ! L ! W W } | c.c.o.....[ [ [ o.O.[ nX[ [ ..^ ] [ ..[ ..o.<. .~ ~ ~ :.:.~ ~ ~ 3.:.`.[.|.=X=X.X.X=X.X=X>X:X.X.X",
"|.|.|.|.%X%X!.W.].|.U.L.3.2.<.~ { L I n H g g f b H n n L W G K R G L L E { ~ ~ 9.5.8.5.4.9.8.3.3.P.U.[.{.{.=X=XOX:X>X=X=X=X,X.X",
"E.|.E.|.|.%X|.|.W.U.L.U.[.[.I.W.H.U.3.7.>.L { ) W ( ^ | } W I W L W L ).9.`.).~.L.8.5.:.:.~  .7.n.[.|.oXoX:X:X,X,X>X>X:X:X=X:X=X",
"E.W.|.|.|.|.|.%X*X|.U.R.7.3.L.U.T.L.y.o.^ ^ ,.c.Y.R.M.c.b.M.N.c.o.W g U 1.1.3.~  .~ ! ~ +.7.:.L.U.|.]. X:X>X;X,X,X;X,X,X,X:X.X=X",
"%X|.T.!.(.W.[.{.|.|.W.R.T.W.7.3.T.W.|.|.T.c.} X.n.M.1.1.c.b.b.M.,._ X.b.W.|.;X1.~ ~ ! ~ +.~ 7.9.P.).`.`.[.|.&X:X,X,X=X>X*X&X%X=X",
"E.W.W.I.U.W.I.T.U.U.L.L.L.L.R.U.T.%XW.L.R.[.|.[.|.:X:XoX[.oX|.,X3X3X,X;XoX:.} }  . .2.i T 9.8.P.).).).).P.U.[.I. X=XE.C M.,X;X*X",
"M.!.T.T.N.T.I.H.7. . . . .2.| p W L.3.| n.n.P.I.W.oXoXoX+X;X2X,XOXOX.XP.W n .                                       C ].W.W.[.V ",
"v.v..   .                                 .   n.W.).oXoX+X+X+X+X+XOX$                       ! ! ! .     i } <.X.          = |. X",
"+ + .                 n n N     . W W }     . @ + % W.0.;X;X;XX..                                 r e c u X X o b N O     . % # ",
"                      1 3 d .   . f N E . . .       W :.~ ) ) f                                   # # = +   . + ( ` @ . X X     ",
"                            K R E     o >.1.b.                                                          r | <.' .   _ N.A._     ",
"                                                                                                                                ",
"R ` ( E C _ C C M M M V c t = >.( I <.1.2.b.m.b.7.9.8.P.P.L.P.W.[._.W.U.I.U.P.T.[.I.N._.E._.].].].].I.]. X{..X{..X{.].`.`.{..X X",
"2.b.n.n.L.L.M.U.I.I.W.U.I.I.I.U.W._._.P.P.L.P.).).`.`.`.`.`._.`.`.`.)._.`.`.`.`.`.{.{.{.oXOXOXOXOXOXOX=XOXOXOXOXOXOXOXOX{..X{.{.",
"' _ W <.| ,.} v.P.5.n.P.8.P.8.P.8.8.8.8.5.5.8.8.P.P.P.9.).P.).).`.).P.).).).).).).`.`.`._.{.OXOXOXOXOX'.OXOXOX{.oXOX X{.{.{._.].",
"d n ) ) K E W ( ] | <.<.3.1.2.3.3.2.2.2.3.3.5.5.3.5.3.8.8.L.P.).).P.P.P.P.P.P.P.).).).).`.{.{.`.`.{.'.{.'.{.{.{.{.{.{.{._.P.5.).",
"3 3 d n b N p d B W ) ) } { ) { ) ` } | } | ,.2.1.<.,.n.5.5.n.5.3.8.5.8.8.8.P.8.P.P.).9.).)._.0.`.0.`.0._.).).).5.).5.5.3.2.:.` ",
"= 1 - - r 1 0 r 0 t f N b b N n N K I I E E ) ( ( _ ` | X.` <.} X.2.| <.<.:.| | :.2.3.3.4.8.5.5.5.4.5.2.:.:.:.:.:.` ~ { { E R N ",
"+ $ + O + $ % $ * 1 1 1 0 q r t i i t i p f n n N C C B N C K B C C C E R E ( E ( _ W W ) W ~ { | } { ` ! Q T E R B n f s t r - ",
"0 0 u u u u r 5 3 - - $ o @ > % = - * * * * 6 - * - - 1 - - - - - 3 - 0 w q r r i p d d d s b d d i u e e w - 5 - 3 3 2 - 0 - q ",
"1 e q q e 6 u r e q w w - $ @ O + O X + + $ * * * % 4 = @ + 2 & $ % $ $ = = % % * + = = - = = - = - * - - = = % = 3 w u a - 5 r ",
"> # O @ = = @ 5 q 5 5 w y 3 - 3 3 = - & * * - - 2 + # o X o % > X + + + o - - 4 - - 3 - = & @ * 1 5 - - O = 2 2 . o + - e u u y ",
"3 * & * @ @ + + - = + & > 3 5 3 3 w 5 4 - - + + + @ o @ @ + @ + - - q - - - 3 - 2 3 5 3 w - - 2 % 6 w s a s s a s 6 - @ + w a 3 ",
"u q u u 5 w 2 5 5 > = 4 e e r u u u r u r u u e 0 e r u r e 5 5 e 3 3 w 5 6 2 2 - - - 6 6 u e y a 3 < & + O = @ & @ @ & @ 2 4 4 ",
"d.v s 9 s s s s r 5 4 = - = 6 e 5 a u s y - 1 % > 4 w e r 5 s e e w 5 e > = % @ + & = > = 6 e 2 & = = & > = = - 6 2 9 # - x z.iX",
"k.k.k.9X9XpXdXiX7Xd.v s u 9 6 5 2 > > 6 4 # * $ & : : u u u r = = = = = = @ @ = # @ = # # = 3 u 6 = 9 7 < 9 < < < 9 d.6XiXyX4Xh ",
"h.h.k.pXcXnXnXbXlXkXsXF.z.C v c a y c c v A D.D.z.A C t.F.A x 9 e u 9 a a y c c v a y 6 6 6 x x x a y 6 : - 9 9 9 8 , , 8 , , , ",
"h.h.j.9XdXzXlXlXlXxXkXkXkXkXkXiXA kXsXfXkXiXiXaXuXyXD.S.6XyXaXsXkXlXfXkXsX8Xt.9 9 x y 7 7 8 , , 7 7 , , 8 9 , , : : : , , , , : ",
"h.h.h.j.<X4X4X4X4X4X4XyXxXbXbXiXuXxXbXbXlXqX5X4X5X5XF.6XaXbXbXnXnXbXnXbXcXsXt., x 9 7 7 , , , , , , , , , , , , , , : : , , , , ",
"j.g.g.<XpXsXfXdXfXsXfXkXzXbXkXsX8XxXcXxXlXfXfXfXkXsXfXfXlXzXxXxXxXcXxXxXxXfXaXaXaXiXiXaXiXiXiXiXiXiXiXiXiX8XS.8 , , , , , , , , ",
"iXyXyXfXcXbXnXbXbXbXnXbXkX6X4X4X4X4X4X8XfXbXbXnXnXnXnXbXbXaX5X5X5XF.5X5XyXxXcXbXbXbXnXbXnXnXbXnXnXnXnXnXbXcXyXh , , , : , , # , ",
"lXcXcXcXcXcXcXcXcXbXbXxXlXaXiXiXaXaXaXsXkXxXcXbXbXxXbXcXxXfXsXaXaXaXaXaXfXcXbXbXnXnXbXbXnXbXbXbXbXbXbXnXbXxXyXZ , , , : , , , # ",
"yX5X4X4X4XF.4X4X4X4XF.yXxXbXnXnXbXbXbXbXxXyX4X4X4X4X4X5XaXcXbXbXnXbXbXbXbXbXbXnXbXnXnXbXbXnXbXbXbXnXnXbXbXxXyXZ , , , : , , , , ",
"p.p.a.a.a.a.a.s.l.l.8XaXxXbXbXnXbXbXbXbXlXyXD.D.D.D.S.F.yXlXcXcXcXcXcXcXcXbXnXnXbXbXnXbXnXbXbXcXcXbXbXcXcXlX8XZ 7 ; k u.i.p.p.a.",
", : : , : : : : : : : : , : : : 7 j j z u.u.i.p.a.a.p.p.a.a.a.a.a.a.a.a.a.a.a.a.a.a.a.a.a.i.u.u.z j j ; : : , : , , : : : : : , "
};
