/* XPM */
static char *result[] = {
/* columns rows colors chars-per-pixel */
"64 64 239 2 ",
"   c #010102",
".  c #090708",
"X  c #0C090A",
"o  c #130F0D",
"O  c #16100E",
"+  c #1C1512",
"@  c #1D1817",
"#  c #1C1B1B",
"$  c #201714",
"%  c #221916",
"&  c #231C1A",
"*  c #2A1D1A",
"=  c #2C211D",
"-  c #32231D",
";  c #1B3230",
":  c #222324",
">  c #2C2521",
",  c #23252A",
"<  c #2C2A2A",
"1  c #352620",
"2  c #342924",
"3  c #3B2B24",
"4  c #392B27",
"5  c #3F3027",
"6  c #3C312C",
"7  c #2A2A31",
"8  c #293038",
"9  c #393736",
"0  c #71261F",
"q  c #412D26",
"w  c #422F28",
"e  c #403027",
"r  c #44332B",
"t  c #4B342D",
"y  c #54352E",
"u  c #453B37",
"i  c #4B3B33",
"p  c #523C33",
"a  c #5C3D36",
"s  c #49423F",
"d  c #58423A",
"f  c #63443C",
"g  c #6A463E",
"h  c #79443E",
"j  c #3C3C59",
"k  c #165047",
"l  c #186455",
"z  c #2C7351",
"x  c #0F7273",
"c  c #494746",
"v  c #584943",
"b  c #5D5857",
"n  c #694B42",
"m  c #724D44",
"M  c #7B4A44",
"N  c #6A524A",
"B  c #77544A",
"V  c #7A554A",
"C  c #6F5851",
"Z  c #775C54",
"A  c #424360",
"S  c #726E73",
"D  c #8B2013",
"F  c #C03D2A",
"G  c #976304",
"H  c #9A6717",
"J  c #89433E",
"K  c #9B6D26",
"L  c #CD4C38",
"P  c #825A4F",
"I  c #895C4D",
"U  c #914F50",
"Y  c #895D52",
"T  c #985859",
"R  c #A6585A",
"E  c #997148",
"W  c #876259",
"Q  c #8E655A",
"!  c #966759",
"~  c #A07340",
"^  c #A66D5D",
"/  c #AC745C",
"(  c #A55E63",
")  c #8D6C65",
"_  c #936C62",
"`  c #9B6D60",
"'  c #9A7166",
"]  c #9E756A",
"[  c #9E7A72",
"{  c #A66266",
"}  c #B6676C",
"|  c #A27364",
" . c #A87868",
".. c #AC7B6D",
"X. c #B77C6A",
"o. c #B96D74",
"O. c #A87D73",
"+. c #B87777",
"@. c #DA6551",
"#. c #C2797E",
"$. c #3C845A",
"%. c #52956A",
"&. c #9A933C",
"*. c #D6B90C",
"=. c #D2B513",
"-. c #C9A82B",
";. c #E7C915",
":. c #F0DA2E",
">. c #A59455",
",. c #B6846E",
"<. c #A88279",
"1. c #AD857C",
"2. c #B28274",
"3. c #B9847D",
"4. c #B78878",
"5. c #BB8C7A",
"6. c #BA9773",
"7. c #BE927B",
"8. c #DB916D",
"9. c #C08D7E",
"0. c #C1967D",
"q. c #C2997F",
"w. c #CDAA79",
"e. c #CFC64B",
"r. c #FBEF47",
"t. c #FCF34D",
"y. c #F5E57B",
"u. c #6F748E",
"i. c #C47D83",
"p. c #0A8D8F",
"a. c #03A9AB",
"s. c #01B6B8",
"d. c #01BABC",
"f. c #2DB4B7",
"g. c #798886",
"h. c #6BA9A0",
"j. c #32EE87",
"k. c #44FF9C",
"l. c #56F7A2",
"z. c #6DEFAB",
"x. c #5AC9C6",
"c. c #899092",
"v. c #AE8A82",
"b. c #BC8682",
"n. c #B38C84",
"m. c #BA8C83",
"M. c #BA9184",
"N. c #B49189",
"B. c #BB958C",
"V. c #BC998E",
"C. c #AD9793",
"Z. c #BD9C94",
"A. c #BA9F99",
"S. c #ADA29E",
"D. c #BCA29A",
"F. c #929AAE",
"G. c #93A3B0",
"H. c #A1AEB7",
"J. c #C78189",
"K. c #C48688",
"L. c #CA858D",
"P. c #CC898F",
"I. c #C29484",
"U. c #C49C83",
"Y. c #C59B8C",
"T. c #C69A8C",
"R. c #CE8C92",
"E. c #C49790",
"W. c #CE9196",
"Q. c #C29E94",
"!. c #C99E93",
"~. c #CF9498",
"^. c #CC9D99",
"/. c #D19596",
"(. c #D1959A",
"). c #D49A9D",
"_. c #D89F9E",
"`. c #C9A186",
"'. c #C7A48D",
"]. c #CAA58C",
"[. c #D0B58E",
"{. c #C4A395",
"}. c #C9A293",
"|. c #CCAB94",
" X c #C3A49B",
".X c #CAA59B",
"XX c #C6AA9C",
"oX c #CAAD9D",
"OX c #D9A19E",
"+X c #D2AB98",
"@X c #D2B29A",
"#X c #D8B89B",
"$X c #E6A492",
"%X c #C5AAA3",
"&X c #C6ACA6",
"*X c #C9ABA3",
"=X c #C9AFA9",
"-X c #D0AEAB",
";X c #CCB2A4",
":X c #CAB3A9",
">X c #D7B7A3",
",X c #D0B4A5",
"<X c #D1B6A9",
"1X c #D2B9AB",
"2X c #92D1B7",
"3X c #AEC5BB",
"4X c #E1D09D",
"5X c #D9CBB5",
"6X c #A6B1C2",
"7X c #A9B6C6",
"8X c #AEB8C7",
"9X c #B7CCC9",
"0X c #BAC7D5",
"qX c #B0F6D7",
"wX c #DBD4C7",
"eX c #CBCFD3",
"rX c #E1DACE",
"tX c #E4DED3",
"yX c #E8E4D9",
"uX c #F3EED5",
"iX c #C9D6E3",
"pX c #D4DDE4",
"aX c #D1DEE9",
"sX c #C9EDE5",
"dX c #D5E1EB",
"fX c #DAE5ED",
"gX c #D4EDEA",
"hX c #DEE9F1",
"jX c #EFECE4",
"kX c #EFEFEE",
"lX c #F5F3EE",
"zX c #E2EEF4",
"xX c #E4F1F6",
"cX c #E8F4F7",
"vX c #EAF6FA",
"bX c #EFF9FC",
"nX c #F8F7F3",
"mX c #F4FDFD",
"MX c #FAFFFE",
/* pixels */
"# a._.)._.OXOX_.~.P.R.W./.<X<X<X<X,X,X<X1X1X:X;X%XD.D.XX;XoXoX<X;X;X>XN *X%       XX|.{.q.] B - q t u 4 6 iXj , , , , , , # d., ",
": s._._._.OXOX.X(.R.R.R.3.<X<X<X#X1X1X<X1X<X1X:X;Xv.N.;X;XoX,X,XoX;X<X}..X#       @X|.{.q.,.W t - e i i 6 c.6X, , , , # , , d., ",
"# d.)._.OX_.OXOX(.R.R.R.{.:X<X1X<X<X1X<X1X1X,X;XD.1.XXoX,X,X;X,X:X*X1X{.> . X '   |.oX'.U.4.Q y 3 3 i r 1 c iX, , , , , , : d.: ",
"# d.)._._.OXOXOX).R.R.R.oX<X<X<X1X<X1X<X1X1X;X;XC.n.oXD.oX,X;X,X1X;XB.Y.    X A.  ].|.|.`.7.] p - s 6 @ $ > fX7 , , : , , : a.: ",
"# d._.)._._._.).(.W.R.R.oX:X;X,X1X,X1X<X1X,X:X;X<.V.Z.Z.oX,X;X,X1X<XC {.    X V.  ].|.@X|.6. .g 3 t 2 + & # 8X7 , : , , , # p.: ",
"# d._._._._.OX_.)./.R.R.XX;X:X,X,X,X,X<X5X1X:XD.N.N.V.XX#XoX,X:X1X;XQ.W   O + [   XX@XoX|.q. .m 3 r + > + 9 g., : : , , , , l : ",
"# d.OX)._._._.).R.W.R.R.oXoX;X:X;X,X1X;X;X;XoX) <.6.Z.XXoX;X,X;X<X1X;X    m '     |.@X@X|.q.[ V 3 1 o 6 + < 9 7 , , , , , , ; , ",
"# d._.(._._.OX).i.R.L.9.oXoX;X;X,X:X@X1X1X;X:X[ <.V.Z.@XoXoX@X5X1X1XXX    n ) .   oX@X|.|.q./ W 3 * . d & 6 < 9 : , , , 7 , , , ",
"# d.).).OX_.OX).i.R.P.3.*XoX%XoXoX;X;X,X:X:X{.]  .V.M.XX.XoX;X<X1X,XT.  O.o O [   |.@X@X|.`. .Q 3 = 2 d # = , 9 , , 8 j A A A , ",
"# d.).).)._._.).i.R.L.{.;XoXoXoXoX;X;X;X;X;X_ <.1.1.I.{.oX,X,X,X<X*X}.  ,.X . 2.  oX@X@X].`.,.E - # 4 d % = < s , , F.iXiXiX0X, ",
"# f.)._._.).).).R.R.L..X;X;XoXoX;X@X;X%XoXoXC h 4.kXMXoX}.oX|.,X<X.X!.   .X .  .  ].;X@X|.`.,.~ e = % d O = 9 = 9 , 0XvXvXbXzX, ",
"# f.)._._.^._.).R.R.L.*XoX;X%XXX|.oX;X;X%XMXnX$XwXnXkXkX'..X|.+X,X'.U.  p u + t   XX@X|.[.].5./ t 3 O s + > 2 , 7 , aXmXmXmXbX: ",
"# h.).)._.(._.).R.P.P.oX;XoX;X{.|.oX{.oXkXnXyXyXyX5XuXMXkX}.].oX.X].`.    d & .   {.;X@X|.w.4.] r - * i = # 4 < , , aXMXMXmXmX; ",
"# F.~.)._.).).(.R.P.~.XXXXoXoXXX|.oXMXkXMX;.*.wXyXyX:.kXMX}.!..X.X}.`.    r #     Y.@X@X[.`.7. .i = - r < = 9 u , , aXmXmXmXbXk ",
"# S.).).).(.(.).R.L.W.XXXXoXoXXX{.kXjXuXrXrXyXe.jXjXjXMXkX,.U.'.{.`.`.  X t #     Z.#X@X|.w.0. .d - r 6 6 = = c 7 , aXmXmXmXbXk ",
"# ^.(.).).).).).W.K.E.XXoXXXoXXXrXmX@.F 5XlXwXtXrXlXMXMXkX4.5.7.Y.U.`.  ^ .       {.@X@X].].6. .f - - % i % 6 c 7 , aXMXMXMXmXx ",
"# ~.).(.).(.(.(.R.P.+.XXXXoXoXXXMX$XyXtXwXwXwXnXyXnXMXMXXX .7.5.I.I.`.  ! .       {.@X@X|.w.6. .d - % 2 s - i c 7 , aXmXmXmXmXp.",
"# ~.(.~.(.~.~.R.R.J.N.oXXXoX*XlX4X:.*.-.5XwXwX;.y.MXMXlX! / 7.X.5.,.0.  ^         {.@X@X|.`.5. .n = % - r r - s , , aXMXmXMXmXp.",
"# ~.~.~.).(.~.i.P.J.V.oXoXoXoXMX;.;.*.-.=.wXwXlX:.MXkXMXI / 6.X.5.X.U.            '.@X|.].`.7.! f - % 3 i 6 = 7 8 , dXmXmXMXmXa.",
"# ^.(.~.).~.~.i.~.P.{.{.XXoXtX:X@XyXwXrX5X4XyXmX:.MXMX<.h ,.6.,.X.X.!             Q.@X].].U.7.| d - = 5 5 = = 6 < , aXmXMXmXmXd.",
"# ~.(.(.~.(.(.i.W.J. XXX%XoX4X*.G G e.wXkXrXuXmXr.kXkX..M ,.4.,./ / a             '.|.].`.U.4.! f = - 5 6 = # 6 7 7 aXmXmXMXmXd.",
"# ~.~.(.~.~.(.L.W.J. X{.XXoXU.[.G ~ G G 6.[.uX@.kXMX1Xn.M ~ 0.5.^ / 9.            V.|.].`.U.7.! f * 3 5 = = = u u 7 aXmXmXMXMXd.",
"# ~.~.(.(.~.(.L.R.J.{. XXXXXB.uX@.H G G H &.=.8.MXkX}.9.V / 7.U./ / X.            '.].].`.U.2.` a + - 3 > = @ c c 9 aXmXMXmXmXd.",
"# ~.~.(.~.~.(.R.P.K.Q.{. XXX5X{.;.4X-.~ 0 D #XlXkX;X|.#.U  .q.q.X./ X.            ].].].`.U.2.' p * - - 2 + # v 9 c dXmXMXMXmXd.",
"# ~.~.(.~.~.~.i.i.R.^.Q.D.XX%XwXU F F L 8.@.L nXkXI.|.+.T X. ././ +. .            E.].`.U.0.2.Q t % 4 - 2 @ > v s 7 dXmXmXMXMXd.",
"@ ~.(.(.(.~.(.R.R.W.Z.%X X X X{.1XJ F F 8.@.@.%.kXK.}.#.( ,./ `.9.<X ..           I.`.`.U.U...Q t % - 1 3 % & s u.u.dXbXmXmXmXd.",
"# (.(.(.(.~.).R.R.R.Q.Q.{.{. X{.1XoXD F F 5Xz r.MXM.{.K.( +.| ].3.+X,.m           T.].`.U.0.,.Q t * = 3 5 & + s 8XhXhXvXbXMXmXd.",
"# ~.(.(.(.~.(.R.L.W.Q.Q. XQ.D.{.V.rX>X*.$.e.t.t.%.MXU.K.T o.! q.+.}.@X!           T.|.`.`.0.2.W e = O - r 2 = s hXvXxXiXhXmXbXd.",
"# ~.(.(.~.~.).R.J.R.Q. XZ. X{.Z.V.N.yXc.z &.%.%.%.MXyXP.T } I T.T M.>XU.          T.].`.q.0.2.W q % + - e r = u zXMXvX6XdXmXmXd.",
"# (.(.~.(.~.(.R.J.R.Q.Z.Q. XZ.Z.N.M.N.yX[.:.;.t.r.%.MXL.T } I I h O.1X|.$         !.`.U.q.0.2.Z - + O q 4 6 * u hXMXvX7XdXmXbXd.",
"# (.(.(.(.(.(.R.L.J.Q.Z.Z.Z.Q.B.B.v.n.Z tX[.l z %.%.lXo.R { K ! T ' wX@X@X.       '.].`.U.0.2.Z 3 % $ - 2 6 > r zXmXvX6XdXmXbXd.",
"# (.(.(.(.(.(.i.J.B.%XQ. X X XV.V.N.v.) d wX6.:.t.t.%.i.} ( I Y 2.1.1X#X@X        '.].`.`.9.<.Z - + X - r r = i zXMXvX7XdXmXbXd.",
"# ~.(.(.(.~.~.R.P.b.^.B.A.A.V.n.V.n.<.Z C <.9X&.l %.:.lX( ( I ! m.V.<X5X#XO.g     }.`.`.U.7...V 1 % < + r r = s gXmXvX7XdXmXbXd.",
"# (.(.R.).R.~.R.i.b.Z.A.Q.E.A.N.V.n.<.W g Z jXH.>.t.:.l ( o.H Y V.m.+X>X#X#X!     Y.}.`.U.M.O.V - 1 $ @ e i r s dXMXvX7XdXmXbXd.",
"# R.~.~.(.~.(.R.i.b.A.A.A.A.V.B.D.1.<.) d Q ` yXh.k ; %.( } Y | B.m.+X>X#X>X|     U.].q.U.7.O.B - + o O r r p S iXmXxXfXhXbXxXd.",
"# (.~.~.).R.(.R.J.n.Q.Q.Q.Q.Q.N.N.N.4.Q t W ` 4.9X<.z 3XH.} Y  .m.3.}.#X#X>X/     U.].`.0.5.O.C 3 @ o @ r t t H.8XdXzXmXvXdXiXd.",
"# (.~.~.(.~.(.R.i.N.Q.D.Q.A.Q.n.N.N.1.Q f Y [  .W 9X%.%.%.MXM  .b.3.+X+X+Xw.,.    U.`.U.0.M. .V 3 * O @ i e t u.F.8XhXmXmX7XH.d.",
"# ~.(.R.(.R.(.L.i.E.A.A.Q.A.Z.n.C.N.n.Z a P '  .Q Z 9.h.U } m ( B.3.,X+X|.T.!     0.}.U.5.1.] Z - 4 # O t w & S G.7XhXMXbX6XF.d.",
"# ~.(.(.(.~.(.P.i.V.Q. XQ.%XA.E.D.N.n.) n V _ ..Q V 9.@.R #.J _ ~.N.<X+X'.%       I.'.U.0...| Z - % + + r 4 # S iXH.hXmXvX6XG.d.",
"# (.(.(.~.W.(.R.L.V.^.D.%X%X^.B.D.Z.n._ a Y | | Q B +.} R #.g ! R.I.}.}.!.@       5.`.U.7.3._ B * * 2 + q > = c.pX8XhXmXvX6XG.d.",
"# R.~.~.(.R.~.R.i.V. X%X X X^.A.Z.n.m.) y Q Q !  .V o.} } } m ! b.O..X!.M.+ .     5.`.U.7.1.! m - * 1 + r % + H.dXH.fXMXbX6XG.s.",
"# ~.~.~.).W.(.L.i.Z. X^.%XD. XD.D.Z.N.) d Y Q | m.Q i.} ( { h ` 1. .}.I.  . . n.  n.`.7.7.2.` m 4 & - + i 2 & G.aX8XhXmXbX6XG.a.",
"# ~.~.~.~.W.(.R.L.Q.Q.%X%X X XD. XB.n.) m P ! _ E._ i.o.( } M I T b.}.U.    . 3.  m.I.7.5.2.Q g * $ * = i - # S aXeXhXmXbXiXiXp.",
"# ~.(.~.(.W.W.L.i.A.%XQ. X%X X X XZ.N.Z a Q | O.b.O.b.i.T o.U ..( E.W.I.  . . <.  4.T.7.5. .Q a * + & 2 t i 2 b zXxXvXhXzXvXzXp.",
"# ~.(.(.(.W.(.R.L. X%X%X%X X%X%X%X XE.) n V  ...Z.<.m.+.T o.m 9.+.XXK...   .Q O   3.T.7.5. .P p * $ % 3 i s 6 v hXmXvX0XdXmXmXx ",
"# C.(.(.(.R.(.R.i.^.%X%XQ.*X X XE.Z.B.V y V Q 1..Xm.E.o.{ +.I 4.J..X!.4.  ` M     2.`.U.5. .W y * X 1 w t i = v fXmXvX6XaXMXMXk ",
"# F.W.(.W.W.).L.i.%X*X&X&X&X*X%XQ.Z.V._ d m W 4.Z.I.E.o.{ 9.I T.I.T.%XI.  ! f     W `.7.1.| P p - O - q i d > i hXmXvX6XdXMXmXk ",
"# h.(.).W.W.).R.i.Q.%X*X*X&X%X X%X XQ.[ a f Y 4. XE.^.o.{ +. .I.E.E.!.`     . Q   _ Y.U.5.| V y * $ 4 1 i 6 2 s S pX0X6XdXmXmX7 ",
"# f._.).(.(.(.i.i.-X%X&X-X&X&X%XQ.%XV.O.y f W ,.Z.Q..X} {  ./ !.T.9.T.a     . Y   <.T.U.5.| m y & O 3 4 i r 6 v dXdXfX6XaXmXmX: ",
"# d.(.(.~.(.(.R.i.-X&X&X&X-X&X&X X%XQ.n.C a I ..Z.Q. X} {  .2.Y.I.9.W...    . P   = Y.7.3.` B y = + 1 3 t 4 4 b xXmXxX6XdXMXMX: ",
"* s.(.(.(.(.).(.R.-X=X=X&X&X-X-X*XQ.Z.<.m Y ! V.Q.^. X+.T ! 4.}.9.!.I.,.  B f     p Y.q.1.| g w # % 3 3 r > 6 C hXmXvX0XfXmXmX: ",
"& s./.(.(.(.(.i.i.-X=X=X&X&X&X&X X%X%Xv.y m T 1.{.{.!.E.{ ! 4.!.9.E.I.X.  m 3     v T.0.3. .m q o - i > r 1 i c.xXvXxXhXxXvXvX: ",
"# d.~.(.(.~.~.i.R.D.=X&X-X=X=X=X%X%XQ.N.a B ! ,..X.XoXT.! ^ I.T.W.E.I.X.  m 3     C Y.U.O.| N 1 % 3 e & 4 = d 6XxXiXhXmXvXiXaX: ",
"& d.(.(.~.~.~.R.i.Z.&X&X-X&X=X-X&X*XQ.Z.g W Q ..{.{..Xm.Q T I.I.T.Y.I.X.          N Y.M.+.| n 3 - e 3 + = 4 b fXxX6XhXmXmX6X0X: ",
"# d.).(.~.W.W.R.R.Z.%X&X&X=X=X=X*X&X XZ.P m I .. X{..XO.Q ! .XY..X.XT.+.          N '.5. .Y y - 1 w 3 = 2 5 g.zXxX6XhXmXvX6Xx.= ",
"# d.).(.~.~.W.i.i.b.&X&X=X=X&X=X*X*X%XZ.V.f ! ..V.!.Q.| ! ..|.!.-X.XT.5.          C Y.U.^ P t * 3 r r 1 3 t 0XxXxX6XhXmXbX6Xx.> ",
"& d.).(.(.W.(.i.R.} &X&X=X&X:X:X=X=X%X XQ.n Y  .I.Q.N.! Y ..!..XOX|.E.K.          Z B.n.! f w % 5 r 5 + 3 d aXmXxX6XgXMXbX6Xf.: ",
": d.R.W.(.(.(.L.L.T &X&X=X=X=X&X*X=X*X*Xn.N m T O...O._ Q 5..X^.*X}.T.V..       . Z I. .` a q % i r = + 2 d gXmXxX6XhXMXbX6Xd.: ",
"# s.(.(.(.(.W.R.L.o.D.=X=X=X&X=X*X=X%X*X XW P V | ..'  .! }.*X*X.X}.!.E.          ) M.3.Q B 3 $ t r = O r d sXmXvX6XgXmXbXH.d.: ",
"# a.W.(.(.W.W.R.R.i.=X=X=X&X&X&X*X*X*X.X%Xn.n V | 2.' _ 2..X.X*X.X^.T.E..       . Z U...P n w + i t = + 5 s sXcXgX2XsXvXbX6Xd.: ",
": x (.~.(.W.R.i.i.R.=X*X=X=X%X%X*X.X%X*X%XZ.Z W P v.V.B.!. X.X.X.X^.!.E.          Q M.2.' g - O i e @ = i i qXsXqXl.2XfXbX6Xd., ",
"# k (.~.W.R.(.L.L.R.=X=X&X&X*X%X*X*X%X*X X%XN Z P n.Z.Q.Q..X.X}..XE.!.Q.  .       Q M.! ` f 5 + i e o = i v z.l.l.k.j.iXbX6Xd.: ",
": , (.~.(.W.~.L.W.L.=X=X&X%X*X%X*X*XXX*X%X X[ Z _ ' B.^.Q.}..X.X!.^.!.E.M.O       [ 7.` g 5 - $ 5 r # = r b z.k.k.k.j.iXbX8Xd.: ",
": # (.~.(.R.~.L.R.R.-X*X*X*X*X.X.X*X*X%X.X.XA.S O.v.n.V.!..X.XQ..X.XQ.V.N.O       W 1.<.g - = # 5 - - - p u.z.k.k.k.l.aXxXiXs.: "
};
