/* XPM */
static char *result[] = {
/* columns rows colors chars-per-pixel */
"64 64 60 1 ",
"  c black",
". c #0C0C0C",
"X c gray9",
"o c #2D2D2D",
"O c gray18",
"+ c gray19",
"@ c #313131",
"# c #323232",
"$ c gray20",
"% c #373737",
"& c #3A3A3A",
"* c gray23",
"= c #3C3C3C",
"- c gray24",
"; c gray25",
": c gray26",
"> c #494949",
", c #535353",
"< c #555555",
"1 c #585858",
"2 c gray36",
"3 c #606060",
"4 c gray39",
"5 c gray40",
"6 c #686868",
"7 c #6A6A6A",
"8 c gray42",
"9 c gray43",
"0 c #747474",
"q c #A5A5A5",
"w c #A7A7A7",
"e c #A9A9A9",
"r c #ACACAC",
"t c gray68",
"y c #AEAEAE",
"u c #AFAFAF",
"i c gray69",
"p c #B1B1B1",
"a c #B2B2B2",
"s c gray70",
"d c #B6B6B6",
"f c gray72",
"g c #B9B9B9",
"h c #BBBBBB",
"j c #BCBCBC",
"k c #CDCDCD",
"l c #CECECE",
"z c #D2D2D2",
"x c LightGray",
"c c #D5D5D5",
"v c gray84",
"b c gray85",
"n c gray86",
"m c #DDDDDD",
"M c #DFDFDF",
"N c #E1E1E1",
"B c #E4E4E4",
"V c gray93",
"C c #EFEFEF",
"Z c white",
/* pixels */
"ZZZZZZZZZZZZZZZZZZZZZZZZZZZZZZZZZZZZZZZZZZZZZZZZZZZZZZZZZZZZZZZZ",
"ZZZZZZZZZZZZZZZZZZZZZZZZZZZZZZZZZZZZZZZZZZZZZZZZZZZZZZZZZZZZZZZZ",
"ZZZZZZZZZZZZZZZZZZZZZZZZZZZZZZZZZZZZZZZZZZZZZZZZZZZZZZZZZZZZZZZZ",
"ZZZZZZZZZZZZZZZZZZZZZZZZZZZZZZZZZZZZZZZZZZZZZZZZZZZZZZZZZZZZZZZZ",
"ZZZZZZZZZZZZZZZZZZZZZZZZZZZZZZZZZZZZZZZZZZZZZZZZZZZZZZZZZZZZZZZZ",
"ZZZZZZZZZZZZZZZZZZZZZZZZZZZZZZZZZZZZZZZZZZZZZZZZZZZZZZZZZZZZZZZZ",
"ZZZZZZZZZZZZZZZZZZZZZZZZZZZZZZZZZZZZZZZZZZZZZZZZZZZZZZZZZZZZZZZZ",
"ZZZZZZZZZZZZZZZZZZZZZZZZZZZZZZZZZZZZZZZZZZZZZZZZZZZZZZZZZZZZZZZZ",
"ZZZZZZZZZZZZZZZZZZZZZZZZZZZZZZZZZZZZZZZZZZZZZZZZZZZZZZZZZZZZZZZZ",
"ZZZZZZZZZZZZZZZZZZZZZZZZZZZZZZZZZZZZZZZZZZZZZZZZZZZZZZZZZZZZZZZZ",
"ZZZZZZZZZZZZZZZZZZZZZZZf          8ZZZZZ          C           ZZ",
"ZZZZZZZZZZZZZZZZZZZZZZt          4ZZZZZZ         MZ           ZZ",
"ZZZZZZZZZZZZZZZZZZZZZy          0ZZZZZZZ        VZZ           ZZ",
"ZZZZZZZZZZZZZZZZZZZZq          2ZZZZZZZZ       BZZZ           ZZ",
"ZZZZZZZZZZZZZZZZZZZd          6ZZZZZZZZZ      NZZZZ           ZZ",
"ZZZZZZZZZZZZZZZZZZu          <ZZZZZZZZZZ     NZZZZZ           ZZ",
"ZZZZZZZZZZZZZZZZZr          9ZZZZZZZZZZZ    BZZZZZZ           ZZ",
"ZZZZZZZZZZZZZZZZr          >ZZZZZZZZZZZZ   BZZZZZZZ           ZZ",
"ZZZZZZZZZZZZZZZp          4ZZZZZZZZZZZZZ  bZZZZZZZZ           ZZ",
"ZZZZZZZZZZZZZZg          :ZZZZZZZZZZZZZZ BZZZZZZZZZ           ZZ",
"ZZZZZZZZZZZZZw          7ZZZZZZZZZZZZZZZbZZZZZZZZZZ           ZZ",
"ZZZZZZZZZZZZa          -ZZZZZZZZZZZZZZZZZZZZZZZZZZ           cZZ",
"ZZZZZZZZZZZi          3ZZZZZZZZZZZZZZZZZZZZZZZZZZ#          kZZZ",
"ZZZZZZZZZZh          %ZZZZZZZZZZZZZZZZZZZZZZZZZZ           kZZZZ",
"ZZZZZZZZZe          5ZZZZZZZZZZZZZZZZZZZZZZZZZZ+          zZZZZZ",
"ZZZZZZZZs          $ZZZZZZZZZZZZZZZZZZZZZZZZZZ.          zZZZZZZ",
"ZZZZZZZu          1ZZZZZZZZZZZZZZZZZZZZZZZZZZ+          cZZZZZZZ",
"ZZZZZZj          %ZZZZZZZZZZZZZZZZZZZZZZZZZZ.          lZZZZZZZZ",
"ZZZZZw          3ZZZZZZZZZZZZZZZZZZZZZZZZZZO          nZZZZZZZZZ",
"ZZZZs          =ZZZZZZZZZZZZZZZZZZZZZZZZZZX          vZZZZZZZZZZ",
"ZZZy          ,ZZZZZZZZZZZZZZZZZZZZZZZZZZO          mZZZZZZZZZZZ",
"ZZj          -ZZZZZZZZZZZZZZZZZZZZZZZZZZX          xZZZZZZZZZZZZ",
"ZZ                                 ZZZZZ           ZZZZZZZZZZ&ZZ",
"ZZ                                 ZZZZZ           ZZZZZZZZZ& ZZ",
"ZZ                                 ZZZZZ           ZZZZZZZZ;  ZZ",
"ZZ                                 ZZZZZ           ZZZZZZZ*   ZZ",
"ZZ                                 ZZZZZ           ZZZZZZ%    ZZ",
"ZZ                                 ZZZZZ           ZZZZZ$     ZZ",
"ZZ                                 ZZZZZ           ZZZZ=      ZZ",
"ZZ                                 ZZZZZ           ZZZ%       ZZ",
"ZZ                                 ZZZZZ           ZZ@        ZZ",
"ZZZZZZZZZZZZZZZZZZZZZZZZ           ZZZZZ           Zo         ZZ",
"ZZZZZZZZZZZZZZZZZZZZZZZZ           ZZZZZ           +          ZZ",
"ZZZZZZZZZZZZZZZZZZZZZZZZ           ZZZZZZZZZZZZZZZZZZZZZZZZZZZZZ",
"ZZZZZZZZZZZZZZZZZZZZZZZZ           ZZZZZZZZZZZZZZZZZZZZZZZZZZZZZ",
"ZZZZZZZZZZZZZZZZZZZZZZZZ           ZZZZZZZZZZZZZZZZZZZZZZZZZZZZZ",
"ZZZZZZZZZZZZZZZZZZZZZZZZ           ZZZZZZZZZZZZZZZZZZZZZZZZZZZZZ",
"ZZZZZZZZZZZZZZZZZZZZZZZZ           ZZZZZZZZZZZZZZZZZZZZZZZZZZZZZ",
"ZZZZZZZZZZZZZZZZZZZZZZZZ           ZZZZZZZZZZZZZZZZZZZZZZZZZZZZZ",
"ZZZZZZZZZZZZZZZZZZZZZZZZ           ZZZZZZZZZZZZZZZZZZZZZZZZZZZZZ",
"ZZZZZZZZZZZZZZZZZZZZZZZZ           ZZZZZZZZZZZZZZZZZZZZZZZZZZZZZ",
"ZZZZZZZZZZZZZZZZZZZZZZZZ           ZZZZZZZZZZZZZZZZZZZZZZZZZZZZZ",
"ZZZZZZZZZZZZZZZZZZZZZZZZZZZZZZZZZZZZZZZZZZZZZZZZZZZZZZZZZZZZZZZZ",
"ZZZZZZZZZZZZZZZZZZZZZZZZZZZZZZZZZZZZZZZZZZZZZZZZZZZZZZZZZZZZZZZZ",
"ZZZZZZZZZZZZZZZZZZZZZZZZZZZZZZZZZZZZZZZZZZZZZZZZZZZZZZZZZZZZZZZZ",
"ZZZZZZZZZZZZZZZZZZZZZZZZZZZZZZZZZZZZZZZZZZZZZZZZZZZZZZZZZZZZZZZZ",
"ZZZZZZZZZZZZZZZZZZZZZZZZZZZZZZZZZZZZZZZZZZZZZZZZZZZZZZZZZZZZZZZZ",
"ZZZZZZZZZZZZZZZZZZZZZZZZZZZZZZZZZZZZZZZZZZZZZZZZZZZZZZZZZZZZZZZZ",
"ZZZZZZZZZZZZZZZZZZZZZZZZZZZZZZZZZZZZZZZZZZZZZZZZZZZZZZZZZZZZZZZZ",
"ZZZZZZZZZZZZZZZZZZZZZZZZZZZZZZZZZZZZZZZZZZZZZZZZZZZZZZZZZZZZZZZZ",
"ZZZZZZZZZZZZZZZZZZZZZZZZZZZZZZZZZZZZZZZZZZZZZZZZZZZZZZZZZZZZZZZZ",
"ZZZZZZZZZZZZZZZZZZZZZZZZZZZZZZZZZZZZZZZZZZZZZZZZZZZZZZZZZZZZZZZZ",
"ZZZZZZZZZZZZZZZZZZZZZZZZZZZZZZZZZZZZZZZZZZZZZZZZZZZZZZZZZZZZZZZZ",
"ZZZZZZZZZZZZZZZZZZZZZZZZZZZZZZZZZZZZZZZZZZZZZZZZZZZZZZZZZZZZZZZZ"
};
