/* XPM */
static char *result[] = {
/* columns rows colors chars-per-pixel */
"64 64 103 2 ",
"   c black",
".  c #010101",
"X  c gray1",
"o  c gray2",
"O  c #060606",
"+  c gray4",
"@  c #0C0C0C",
"#  c gray5",
"$  c #0E0E0E",
"%  c gray6",
"&  c #111111",
"*  c gray7",
"=  c gray8",
"-  c #161616",
";  c #181818",
":  c gray10",
">  c #1B1B1B",
",  c #1D1D1D",
"<  c #1E1E1E",
"1  c gray12",
"2  c gray13",
"3  c #2A2A2A",
"4  c gray17",
"5  c #2C2C2C",
"6  c gray18",
"7  c #2F2F2F",
"8  c gray19",
"9  c #343434",
"0  c gray21",
"q  c #3A3A3A",
"w  c #3C3C3C",
"e  c #3F3F3F",
"r  c #414141",
"t  c gray26",
"y  c #444444",
"u  c gray28",
"i  c gray29",
"p  c #4B4B4B",
"a  c gray30",
"s  c #4E4E4E",
"d  c #515151",
"f  c gray33",
"g  c #585858",
"h  c gray35",
"j  c gray36",
"k  c #5D5D5D",
"l  c gray38",
"z  c gray42",
"x  c #6D6D6D",
"c  c #6F6F6F",
"v  c #717171",
"b  c #727272",
"n  c gray45",
"m  c #767676",
"M  c #777777",
"N  c #797979",
"B  c #7E7E7E",
"V  c gray50",
"C  c #808080",
"Z  c #868686",
"A  c gray57",
"S  c gray58",
"D  c gray60",
"F  c #ACACAC",
"G  c #AEAEAE",
"H  c gray69",
"J  c #B4B4B4",
"K  c #B7B7B7",
"L  c gray72",
"P  c #B9B9B9",
"I  c #BBBBBB",
"U  c gray74",
"Y  c gray",
"T  c #C0C0C0",
"R  c gray76",
"E  c #C3C3C3",
"W  c #C5C5C5",
"Q  c gray78",
"!  c #CBCBCB",
"~  c gray80",
"^  c gray81",
"/  c gray82",
"(  c #D2D2D2",
")  c gainsboro",
"_  c #DDDDDD",
"`  c gray88",
"'  c #E2E2E2",
"]  c gray89",
"[  c gray92",
"{  c #ECECEC",
"}  c gray94",
"|  c #F1F1F1",
" . c #F3F3F3",
".. c #F4F4F4",
"X. c gray96",
"o. c gray97",
"O. c #F8F8F8",
"+. c #F9F9F9",
"@. c #FBFBFB",
"#. c gray99",
"$. c #FDFDFD",
"%. c #FEFEFE",
"&. c white",
/* pixels */
"&.&.&.&.&.&.&.&.&.&.&.&.&.&.&.&.&.&.&.&.&.&.&.&.&.&.&.&.P         E &.&.&.&.&.&.&.&.&.&.&.&.&.&.&.&.&.&.&.&.&.&.&.&.&.&.&.&.&.&.",
"&.&.&.&.&.&.&.&.&.&.&.&.&.&.&.&.&.&.&.&.&.&.&.&.&.&.'               3 &.&.&.&.&.&.&.&.&.&.&.&.&.&.&.&.&.&.&.&.&.&.&.&.&.&.&.&.&.",
"&.&.&.&.&.&.&.&.&.&.&.&.&.&.&.&.&.&.&.&.&.&.&.&.&.A                   5 | &.&.&.&.&.&.&.&.&.&.&.&.&.&.&.&.&.&.&.&.&.&.&.&.&.&.&.",
"&.&.&.&.&.&.&.&.&.&.&.&.&.&.&.&.&.&.&.&.&.&.&.&.0                           &.&.&.&.&.&.&.&.&.&.&.&.&.&.&.&.&.&.&.&.&.&.&.&.&.&.",
"&.&.&.&.&.&.&.&.&.&.&.&.&.&.&.&.&.&.&.&.&.&.&.g                               $.&.&.&.&.&.&.&.&.&.&.&.&.&.&.&.&.&.&.&.&.&.&.&.&.",
"&.&.&.&.&.&.&.&.&.&.&.&.&.&.&.&.&.&.&.&.&.&.F                                   &.&.&.&.&.&.&.&.&.&.&.&.&.&.&.&.&.&.&.&.&.&.&.&.",
"&.&.&.&.&.&.&.&.&.&.&.&.&.&.&.&.&.&.&.&.&.{                                     #.&.&.&.&.&.&.&.&.&.&.&.&.&.&.&.&.&.&.&.&.&.&.&.",
"&.&.&.&.&.&.&.&.&.&.&.&.&.&.&.&.&.&.&.&.&.&.&.                                  U &.&.&.&.&.&.&.&.&.&.&.&.&.&.&.&.&.&.&.&.&.&.&.",
"&.&.&.&.&.&.&.&.&.&.&.&.&.&.&.&.&.&.&.&.&.&.&.K                                 B &.&.&.&.&.&.&.&.&.&.&.&.&.&.&.&.&.&.&.&.&.&.&.",
"&.&.&.&.&.&.&.&.&.&.&.&.&.&.&.&.&.&.&.&.&.&.&.&.                                C &.&.&.&.&.&.&.&.&.&.&.&.&.&.&.&.&.&.&.&.&.&.&.",
"&.&.&.&.&.&.&.&.&.&.&.&.&.&.&.&.&.&.&.&.&.&.&.&.                                U &.&.&.&.&.&.&.&.&.&.&.&.&.&.&.&.&.&.&.&.&.&.&.",
"&.&.&.&.&.&.&.&.&.&.&.&.&.&.&.&.&.&.&.&.&.&.&.&.                                &.&.&.&.&.&.&.&.&.&.&.&.&.&.&.&.&.&.&.&.&.&.&.&.",
"&.&.&.&.&.&.&.&.&.&.&.&.&.&.&.&.&.&.&.&.&.&.&.&.                              s &.&.&.&.&.&.&.&.&.&.&.&.&.&.&.&.&.&.&.&.&.&.&.&.",
"&.&.&.&.&.&.&.&.&.&.&.&.&.&.&.&.&.&.&.&.&.&.&.&.                            . #.&.&.&.&.&.&.&.&.&.&.&.&.&.&.&.&.&.&.&.&.&.&.&.&.",
"&.&.&.&.&.&.&.&.&.&.&.&.&.&.&.&.&.&.&.&.&.&.&.S                                 &.&.&.&.&.&.&.&.&.&.&.&.&.&.&.&.&.&.&.&.&.&.&.&.",
"&.&.&.&.&.&.&.&.&.&.&.&.&.&.&.&.&.&.&.&.&.&.&.S                                 &.&.&.&.&.&.&.&.&.&.&.&.&.&.&.&.&.&.&.&.&.&.&.&.",
"&.&.&.&.&.&.&.&.&.&.&.&.&.&.&.&.&.&.&.&.&.&.&.&.                              W &.&.&.&.&.&.&.&.&.&.&.&.&.&.&.&.&.&.&.&.&.&.&.&.",
"&.&.&.&.&.&.&.&.&.&.&.&.&.&.&.&.&.&.&.&.&.&.&.&.w                             %.&.&.&.&.&.&.&.&.&.&.&.&.&.&.&.&.&.&.&.&.&.&.&.&.",
"&.&.&.&.&.&.&.&.&.&.&.&.&.&.&.&.&.&.&.&.&.&.&.&.&.9                         &.&.&.&.&.&.&.&.&.&.&.&.&.&.&.&.&.&.&.&.&.&.&.&.&.&.",
"&.&.&.&.&.&.&.&.&.&.&.&.&.&.&.&.&.&.&.&.&.&.&.&.&.#.                      n &.&.&.&.&.&.&.&.&.&.&.&.&.&.&.&.&.&.&.&.&.&.&.&.&.&.",
"&.&.&.&.&.&.&.&.&.&.&.&.&.&.&.&.&.&.&.&.&.&.&.&.&.&.D                   d &.&.&.&.&.&.&.&.&.&.&.&.&.&.&.&.&.&.&.&.&.&.&.&.&.&.&.",
"&.&.&.&.&.&.&.&.&.&.&.&.&.&.&.&.&.&.&.&.&.&.&.&.&.&.&.>                 &.&.&.&.&.&.&.&.&.&.&.&.&.&.&.&.&.&.&.&.&.&.&.&.&.&.&.&.",
"&.&.&.&.&.&.&.&.&.&.&.&.&.&.&.&.&.&.&.&.&.&.&.&.&.&.&.&.o.x         ! &.&.&.&.&.&.&.&.&.&.&.&.&.&.&.&.&.&.&.&.&.&.&.&.&.&.&.&.&.",
"&.&.&.&.&.&.&.&.&.&.&.&.&.&.&.&.&.&.&.&.&.&.&.&.&.&.$ &.&.&.&.&.&.&.&.&.% &.&.&.&.&.&.&.&.&.&.&.&.&.&.&.&.&.&.&.&.&.&.&.&.&.&.&.",
"&.&.&.&.&.&.&.&.&.&.&.&.&.&.&.&.&.&.&.&.&.&.( f       &.&.o.      L &.&.      a / &.&.&.&.&.&.&.&.&.&.&.&.&.&.&.&.&.&.&.&.&.&.&.",
"&.&.&.&.&.&.&.&.&.&.&.&.&.&.&.&.&.X.z                 V &.&.      ) &.H               O b O.&.&.&.&.&.&.&.&.&.&.&.&.&.&.&.&.&.&.",
"&.&.&.&.&.&.&.&.&.&.&.&.&.&.&.%.o                       &.&.'   4 &.&.                        %.&.&.&.&.&.&.&.&.&.&.&.&.&.&.&.&.",
"&.&.&.&.&.&.&.&.&.&.&.&.&.&.&.                          +.&.      &.&.                          &.&.&.&.&.&.&.&.&.&.&.&.&.&.&.&.",
"&.&.&.&.&.&.&.&.&.&.&.&.&.&.I                           t &.      ] F                           J &.&.&.&.&.&.&.&.&.&.&.&.&.&.&.",
"&.&.&.&.&.&.&.&.&.&.&.&.&.&.                              E       1 o                             &.&.&.&.&.&.&.&.&.&.&.&.&.&.&.",
"&.&.&.&.&.&.&.&.&.&.&.&.&.&.                                                                      &.&.&.&.&.&.&.&.&.&.&.&.&.&.&.",
"&.&.&.&.&.&.r                                                                                                   e &.&.&.&.&.&.&.",
"&.&.&.&.&.j                                                                                                       g &.&.&.&.&.&.",
"&.&.&.&.&.    @ c c c c c c c c c c c c c c c c c c c c c c c c c c c c c c c c c c c c c c c c c c c c c c c &     &.&.&.&.&.&.",
"&.&.&.&.&.    < &.&.&.&.&.&.&.&.&.&.&.&.&.&.&.&.&.&.&.&.&.&.&.&.&.&.&.&.&.&.&.&.&.&.&.&.&.&.&.&.&.&.&.&.&.&.&.6     &.&.&.&.&.&.",
"&.&.&.&.&.    < &.&.&.&.&.&.&.&.&.&.&.&.&.&.&.&.&.&.&.&.&.&.&.&.&.&.&.&.&.&.&.&.&.&.&.&.&.&.&.&.&.&.&.&.&.&.&.6     &.&.&.&.&.&.",
"&.&.&.&.&.    < &.&.&.&.&.&.&.&.&.&.&.&.&.&.&.&.&.&.&.&.&.&.&.&.&.&.&.&.&.&.&.&.&.&.&.&.&.&.&.&.&.&.&.&.&.&.&.6     &.&.&.&.&.&.",
"&.&.&.&.&.    < &.&.&.&.&.&.&.&.&.&.&.&.&.&.&.&.&.&.&.&.&.&.&.&.&.&.&.&.&.&.&.&.&.&.&.&.&.&.&.&.&.&.&.&.&.&.&.6     &.&.&.&.&.&.",
"&.&.&.&.&.    < &.&.&.&.&.&.&.&.&.&.&.&.&.&.&.&.&.&.&.&.&.&.&.&.&.&.&.&.&.&.&.&.&.&.&.&.&.&.&.&.&.&.&.&.&.&.&.6     &.&.&.&.&.&.",
"&.&.&.&.&.    1 &.&.&.&.&.&.&.&.&.&.&.&.&.&.&.&.&.&.&.&.&.&.&.&.&.&.&.&.&.&.&.&.&.&.&.&.&.&.&.&.&.&.&.&.&.&.&.7     &.&.&.&.&.&.",
"&.&.&.&.&..                                                                                                         &.&.&.&.&.&.",
"&.&.&.&.&...                                                                                                      } &.&.&.&.&.&.",
"&.&.&.&.&.&.#.~ I #     I I I I I I I I I I I I I I I I I I I I I I I I I I I I I I I I I I I I I I I Y     P Q #.&.&.&.&.&.&.&.",
"&.&.&.&.&.&.&.&.&.*     &.&.&.&.&.&.&.&.&.&.&.&.&.&.&.&.&.&.&.&.&.&.&.&.&.&.&.&.&.&.&.&.&.&.&.&.&.&.&.&.    | &.&.&.&.&.&.&.&.&.",
"&.&.&.&.&.&.&.&.&.*     &.&.&.&.&.&.&.&.&.&.&.&.&.&.&.&.&.&.&.&.&.&.&.&.&.&.&.&.&.&.&.&.&.&.&.&.&.&.&.&.    | &.&.&.&.&.&.&.&.&.",
"&.&.&.&.&.&.&.&.&.*     &.&.&.&.&.&.&.&.&.&.&.&.&.&.&.&.&.&.&.&.&.&.&.&.&.&.&.&.&.&.&.&.&.&.&.&.&.&.&.&.    | &.&.&.&.&.&.&.&.&.",
"&.&.&.&.&.&.&.&.&.*     &.&.&.&.&.&.&.&.k     / &.&.[           u &.&.&.              { &.&.&.&.&.&.&.&.    | &.&.&.&.&.&.&.&.&.",
"&.&.&.&.&.&.&.&.&.*     &.&.&.&.&.&.&.&.k     / &.@.                &.&.                &.&.&.&.&.&.&.&.    | &.&.&.&.&.&.&.&.&.",
"&.&.&.&.&.&.&.&.&.*     &.&.&.&.&.&.&.&.k     / &.:                 ` &.                T &.&.&.&.&.&.&.    | &.&.&.&.&.&.&.&.&.",
"&.&.&.&.&.&.&.&.&.*     &.&.&.&.&.&.&.&.k     / &.      &.&.&.h     v &.      $.&.Q     G &.&.&.&.&.&.&.    | &.&.&.&.&.&.&.&.&.",
"&.&.&.&.&.&.&.&.&.*     &.&.&.&.&.&.&.&.k     / &.      &.&.&.&.    1 &.      / ^ 8     &.&.&.&.&.&.&.&.    | &.&.&.&.&.&.&.&.&.",
"&.&.&.&.&.&.&.&.&.*     &.&.&.&.&.&.&.&.k     / &.      &.&.&.&.      &.              T &.&.&.&.&.&.&.&.    | &.&.&.&.&.&.&.&.&.",
"&.&.&.&.&.&.&.&.&.*     &.&.&.&.&.&.&.&.k     / &.      &.&.&.&.    . &.                X.&.&.&.&.&.&.&.    | &.&.&.&.&.&.&.&.&.",
"&.&.&.&.&.&.&.&.&.*     &.&.&.&.&.&.&.&.k     / &.      &.&.&.@.    9 &.      $.&.&.    < &.&.&.&.&.&.&.    | &.&.&.&.&.&.&.&.&.",
"&.&.&.&.&.&.&.&.&.*     &.&.&.&.&.&.&.&.a     / &.       .&.&.X     Z &.      $.&.&.      &.&.&.&.&.&.&.    | &.&.&.&.&.&.&.&.&.",
"&.&.&.&.&.&.&.&.&.*     &.&.&.&.&.&.          $.&.8                 +.&.                = &.&.&.&.&.&.&.    | &.&.&.&.&.&.&.&.&.",
"&.&.&.&.&.&.&.&.&.*     &.&.&.&.&.&.          &.&.&.              q &.&.                _ &.&.&.&.&.&.&.    | &.&.&.&.&.&.&.&.&.",
"&.&.&.&.&.&.&.&.&.*     &.&.&.&.&.&.p     a &.&.&.&.&.m ;     y R &.&.&.+ - : , 2 < l } &.&.&.&.&.&.&.&.    | &.&.&.&.&.&.&.&.&.",
"&.&.&.&.&.&.&.&.&.*     &.&.&.&.&.&.&.&.&.&.&.&.&.&.&.&.&.&.&.&.&.&.&.&.&.&.&.&.&.&.&.&.&.&.&.&.&.&.&.&.    | &.&.&.&.&.&.&.&.&.",
"&.&.&.&.&.&.&.&.&.*     &.&.&.&.&.&.&.&.&.&.&.&.&.&.&.&.&.&.&.&.&.&.&.&.&.&.&.&.&.&.&.&.&.&.&.&.&.&.&.&.    | &.&.&.&.&.&.&.&.&.",
"&.&.&.&.&.&.&.&.&.*     &.&.&.&.&.&.&.&.&.&.&.&.&.&.&.&.&.&.&.&.&.&.&.&.&.&.&.&.&.&.&.&.&.&.&.&.&.&.&.&.    | &.&.&.&.&.&.&.&.&.",
"&.&.&.&.&.&.&.&.&.*     M M M M M M M M M M M M M M M M M M M M M M M M M M M M M M M M M M M M M M M N     | &.&.&.&.&.&.&.&.&.",
"&.&.&.&.&.&.&.&.&.>                                                                                         o.&.&.&.&.&.&.&.&.&.",
"&.&.&.&.&.&.&.&.&.&.                                                                                      i &.&.&.&.&.&.&.&.&.&."
};
