/* XPM */
static char *result[] = {
/* columns rows colors chars-per-pixel */
"64 64 97 2 ",
"   c #1E1E1E",
".  c gray12",
"X  c #202020",
"o  c gray13",
"O  c #222222",
"+  c #232323",
"@  c gray14",
"#  c #252525",
"$  c gray15",
"%  c #272727",
"&  c #282828",
"*  c gray16",
"=  c #2A2A2A",
"-  c gray17",
";  c #2C2C2C",
":  c #2D2D2D",
">  c gray18",
",  c #2F2F2F",
"<  c gray19",
"1  c #323232",
"2  c gray20",
"3  c gray21",
"4  c gray22",
"5  c #393939",
"6  c #3A3A3A",
"7  c gray23",
"8  c #3C3C3C",
"9  c gray24",
"0  c #3E3E3E",
"q  c #3F3F3F",
"w  c gray25",
"e  c #414141",
"r  c gray26",
"t  c gray29",
"y  c #4C4C4C",
"u  c #515151",
"i  c #5D5D5D",
"p  c gray37",
"a  c gray39",
"s  c #646464",
"d  c gray42",
"f  c #717171",
"g  c gray47",
"h  c #848484",
"j  c #868686",
"k  c #909090",
"l  c gray57",
"z  c #9D9D9D",
"x  c gray68",
"c  c #AEAEAE",
"v  c #B2B2B2",
"b  c gray72",
"n  c gray73",
"m  c #C1C1C1",
"M  c #C3C3C3",
"N  c #C8C8C8",
"B  c gray80",
"V  c #D0D0D0",
"C  c #D2D2D2",
"Z  c gray83",
"A  c #D5D5D5",
"S  c gray84",
"D  c #D7D7D7",
"F  c #D8D8D8",
"G  c gray85",
"H  c gray86",
"J  c gainsboro",
"K  c #DDDDDD",
"L  c gray87",
"P  c #DFDFDF",
"I  c gray88",
"U  c #E1E1E1",
"Y  c #E2E2E2",
"T  c gray89",
"R  c #E4E4E4",
"E  c #E7E7E7",
"W  c #E9E9E9",
"Q  c #EAEAEA",
"!  c #ECECEC",
"~  c gray93",
"^  c #EEEEEE",
"/  c #EFEFEF",
"(  c #F1F1F1",
")  c gray95",
"_  c #F3F3F3",
"`  c #F4F4F4",
"'  c gray96",
"]  c #F6F6F6",
"[  c gray97",
"{  c #F8F8F8",
"}  c #F9F9F9",
"|  c gray98",
" . c #FBFBFB",
".. c gray99",
"X. c #FDFDFD",
"o. c #FEFEFE",
"O. c white",
/* pixels */
"                                                                                                                                ",
"                                                                                                                                ",
"                                                                                                                                ",
"                                                    O.                              o.%         O.                              ",
"      O.        O.O.          O.w     O.  O.                    O.        O.O.    o.o.o.      o.O.o.        o.o.                ",
"  O.O.  O.    O.  * ..    n '   .   O.  O.  ..      O.      O.X o o.    O.  0 c     o.%         O.        O.    o.              ",
"  O.    ..    !     O.    o.3       O.  O.  O.      O.      O.    O.    o.O.O.O.    o.%         O.        o.O.O.O.              ",
"  O.    ..  . Y     O.    o.%       O.  O.  O.      O.      O.    O.    o.          o.%         O.        o.                    ",
"  O.    ..    O.    O.    o.%       O.  O.  O.      O.      O.    O.  2 O.          o.y         O.        O.                    ",
"  O.    ..    e O.O.      o.%       O.  O.  O.  J O.O.O.R   O.    O.    j O.O.z       N O.        W O.    1 O.O.S               ",
"                                                                                                                                ",
"                                                                                                                                ",
"                                                                                                                                ",
"                                                                                                                                ",
"                                                                                                                                ",
"                                          _                                                                                     ",
"        o.      o.o.          o.o.        o.      o.o.            q         ; -     o.o.            o.                  o.o.    ",
"    O.o.  o.  O.X u ~     n Q   $       D       G f   O.      D o.o.&   Z | o.>   o.    O.      O.o.  o.              O.    H   ",
"    O.        /     O.    n 6           O.      O.o.o.q       o.o.      Z         o.    o.d     O.                    ' o.o.    ",
"    O.      . U     O.    n %         o.@       O.            o.        Z         O.    o.      O.                    P         ",
"    O.        O.    O.    n %         o.        O.            o.        Z          .    o.1     O.          O.o.      o.        ",
"    O.        p O.O.      n %       o.4           o.O.o.      v         Z           o.O.        O.          O.o.      + O.O.C   ",
"                                    o.                                                                                          ",
"                                                                                                                                ",
"                                                                                                                                ",
"                                                                                                                                ",
"                                                                                                                                ",
"                                                          O./     O.    O.o.O.                U D o.O.    O.O.O.^     ( A o.'   ",
"                                                          O.O.    O.  o.a     `               O.          O.    O.    [         ",
"    O.I   [   O.o.o.J     o.o.o.>     o.O.                O.  V   O.  Q $     O.              O.7         O.    O.  o.$         ",
"    O.        )     O.    o.9                             O.  O.  O.  ` o     O.                ` O.X.    O.O.O.I   o.          ",
"    O.      . I     O.    o.%                             O.  $ x O.  T =     O.                    O.    O.        l u         ",
"    O.        O.    O.    o.%         o.o.                O.    O.O.  = M   + L                     o.    O.          o.        ",
"    O.        k O.O.<     n %         o.o.                O.    , O.    { O.O.                O.O.O.m     O.          t O.O.'   ",
"                                                                                                                                ",
"                                                                                o o.o.o.o.o.                                  @ ",
"                                                                                                                                ",
"                                                                                                                                ",
"      C                                                                                                                         ",
"      o.      o.o.X         o.=                                                               O.o.Q       o.o.O.,               ",
"    c #         o.                                                                                  O.          O.              ",
"    O.          o.        o.o.=     v / 8 O.      F o.O.      o.s                                   O.        5 !               ",
"    O.          o.X         o.=     o.    o.>   O.    o.      6 $                                 ] q       O.o.                ",
"    O.          o.X         o.=     o.    o.3   O.o.o.                                          o.o.            O.              ",
"    b O         o.r o.      o.=     o.    o.3   O.            O.o.                            2 _               O.      O.      ",
"      o.          O.O.    O.O.O.O.  o.    o.3   . O.O.O.      O.o.                            O.O.O.O.  : O.O.O.>       O.      ",
"      K                                                                                                               h (       ",
"                                                                                                                                ",
"                                                                                                                                ",
"                                                                                                                                ",
"                                                                                                                                ",
"                                                                          O.                                                    ",
"                                                                          O.                                                    ",
"                                                  ^ o.O.    O.  . _   o.o.O.o.g     O.O.g o.  O.o.o.X.                O.o.B     ",
"                                                O.    o.      _ o.        O.        O.              O.                }         ",
"                                                O.o.o.  =      .          O.        O.        O.o.  O.                o.O.O.    ",
"                                                O.          o.i {         O.        O.        O.    O.                    w o.  ",
"                                                ; O.R O.  O '     O.      O.O.o.    O.        o.E o.O.                o.T O.    ",
"                                                                                                                                ",
"                                                                                                                                ",
"                                                                                                                                ",
"                                                                                                                                ",
"                                                                                                                                ",
"                                                                                                                                "
};
