/* XPM */
static char *result[] = {
/* columns rows colors chars-per-pixel */
"64 64 135 2 ",
"   c #5CB85C",
".  c #5DB85D",
"X  c #5EB85E",
"o  c #5EB95E",
"O  c #5FB95F",
"+  c #60B960",
"@  c #60BA60",
"#  c #61BA61",
"$  c #62BA62",
"%  c #62BB62",
"&  c #63BB63",
"*  c #64BB64",
"=  c #65BC65",
"-  c #66BC66",
";  c #67BD67",
":  c #68BD68",
">  c #69BD69",
",  c #69BE69",
"<  c #6ABE6A",
"1  c #6BBE6B",
"2  c #6BBF6B",
"3  c #6CBE6C",
"4  c #6CBF6C",
"5  c #6DBF6D",
"6  c #6EC06E",
"7  c #6FC06F",
"8  c #70C170",
"9  c #71C171",
"0  c #72C172",
"q  c #73C273",
"w  c #74C274",
"e  c #76C376",
"r  c #77C377",
"t  c #77C477",
"y  c #78C478",
"u  c #79C479",
"i  c #7AC57A",
"p  c #7BC57B",
"a  c #7CC67C",
"s  c #7DC67D",
"d  c #7EC67E",
"f  c #7EC77E",
"g  c #7FC67F",
"h  c #7FC77F",
"j  c #80C880",
"k  c #81C881",
"l  c #85CA85",
"z  c #86CA86",
"x  c #88CB88",
"c  c #89CB89",
"v  c #8ACC8A",
"b  c #8ECE8E",
"n  c #91CF91",
"m  c #92CF92",
"M  c #93D093",
"N  c #94D094",
"B  c #95D195",
"V  c #96D196",
"C  c #99D299",
"Z  c #9AD39A",
"A  c #9BD39B",
"S  c #9BD49B",
"D  c #9CD39C",
"F  c #9CD49C",
"G  c #9DD49D",
"H  c #9ED49E",
"J  c #9ED59E",
"K  c #A0D5A0",
"L  c #A0D6A0",
"P  c #A1D6A1",
"I  c #A2D6A2",
"U  c #A4D7A4",
"Y  c #AEDCAE",
"T  c #AFDCAF",
"R  c #B0DCB0",
"E  c #B0DDB0",
"W  c #B2DDB2",
"Q  c #B6DFB6",
"!  c #B8E0B8",
"~  c #B9E0B9",
"^  c #BAE1BA",
"/  c #BCE1BC",
"(  c #BCE2BC",
")  c #C0E4C0",
"_  c #C2E4C2",
"`  c #C7E6C7",
"'  c #C8E7C8",
"]  c #CAE8CA",
"[  c #CBE8CB",
"{  c #CEE9CE",
"}  c #D1EBD1",
"|  c #D2EBD2",
" . c #D3EBD3",
".. c #D3ECD3",
"X. c #D4ECD4",
"o. c #D6EDD6",
"O. c #D9EED9",
"+. c #DFF0DF",
"@. c #DFF1DF",
"#. c #E0F1E0",
"$. c #E0F2E0",
"%. c #E1F2E1",
"&. c #E2F2E2",
"*. c #E3F2E3",
"=. c #E3F3E3",
"-. c #E5F4E5",
";. c #E7F5E7",
":. c #E8F4E8",
">. c #E9F5E9",
",. c #EAF6EA",
"<. c #EBF6EB",
"1. c #ECF6EC",
"2. c #ECF7EC",
"3. c #EDF7ED",
"4. c #EEF7EE",
"5. c #EFF8EF",
"6. c #F0F8F0",
"7. c #F1F8F1",
"8. c #F1F9F1",
"9. c #F2F9F2",
"0. c #F3FAF3",
"q. c #F4FAF4",
"w. c #F5FAF5",
"e. c #F6FBF6",
"r. c #F7FBF7",
"t. c #F8FBF8",
"y. c #F8FCF8",
"u. c #F9FCF9",
"i. c #FAFDFA",
"p. c #FBFDFB",
"a. c #FCFDFC",
"s. c #FCFEFC",
"d. c #FDFEFD",
"f. c #FEFEFE",
"g. c white",
/* pixels */
"                                                                                                                                ",
"                                                                                                                                ",
"                                                                                                                                ",
"                                                                                                                                ",
"                                                                                                                                ",
"                            A G                                                                                                 ",
"                          F g.g.H                                                                                               ",
"                        J g.g.g.$.X                                                                                             ",
"                      I f.g.g.#.&                                                                                               ",
"                    K f.g.g.:.#                                                                                                 ",
"          < r.g   C f.g.g.r..                                                                                                   ",
"        ; u.g.g.L g.g.g.8.                g.g.g.  0.#   | ,   * g.g.      m g.g.$   8 =.4.      g.g.g.  g.9.g.                  ",
"        = 1.g.g.g.g.g.-.@               g.  u r   0.#   | , $ g.j   g.    g.O > g.: 6.4 + 9.1 g.  <   g.  #   .                 ",
"          : 1.g.g.g.%.&                 g.g.g.$   0.#   | , a g.          g.        g.g.&.g.  g.=.g.= g.g.g.k                   ",
"            , q.g.;.*                     O   g.  g.&   X.* s g.          g.        g.              g.    u g.1                 ",
"              - <.$                     g.g.1 g.  g.D X 5.  $ q.l   g.    g.O 4 g., t.r O g.8 g.g.$ a.  g.. g.7                 ",
"                                        O g.g.2   + g.g.k     = g.g.      M g.g.#   9 &.7.y   . g.g.0   g.g.                    ",
"                                                                                                                                ",
"                                                                                                                                ",
"                                                                                                                                ",
"                                                                                                                                ",
"                                                                                                                                ",
"                                                                                                                                ",
"                                                                                                                                ",
"                                                                                                                                ",
"                                                                                                                                ",
"                                                                                                                                ",
"                                                                                                                                ",
"                                                                                                                                ",
"                                                                                                                                ",
"                                                                                                                                ",
"                                                                                                                                ",
"                                                                                                                                ",
"                                      ; n Z d                                                                                   ",
"          ..g.g.g.g.f             e d.g.g.g.g.g.|                     z g.g.g.g.g.g.g.g.-                                       ",
"        p i.i.i.g.g.f           D g.g.d.7.4.w.f.g.9.$                 @.g.i.r.r.r.r.r.r.=                                       ",
"                g.g.f         e f.g.+.+       v a.g.O.                g.g.d                                                     ",
"                g.g.f         | g.3.X           u g.g.h             7 g.0.                                                      ",
"                g.g.f       $ g.g.v               9.g.T             [ g. .                                                      ",
"                g.g.f       4 g.g.9               ' g.[             y.g.B                                                       ",
"                g.g.f                             X.g._           % f.f.Y ) U @                                                 ",
"                g.g.f                           X g.g.C           R g.g.g.g.g.g.r.e                                             ",
"                g.g.f                           B g.a.4           *.a.@.{ | ,.f.g.d.c                                           ",
"                g.g.f                         2 g.g.~           # W #         x i.g.t.1                                         ",
"                g.g.f                       . 7.g.2.O                           3 g.g.~                                         ",
"                g.g.f                       o.g.d.5                               E g.p.o                                       ",
"                g.g.f                     / g.g.i                                 e g.g.1                                       ",
"                g.g.f                   G g.g.P                                   5 g.g.7                                       ",
"                g.g.f                 z g.g.(                                     q g.g.4                                       ",
"                g.g.f               6 g.g.} .                                     V g.f.#                                       ",
"                g.g.f             % t.g.=.#                 O ' m               o e.g.]           , :                           ",
"                g.g.f             ,.g.e.#                   ^ g.a.z             &.g.g.9           g.  g.g.    g.    g.  &       ",
"                g.g.f           X.g.g.X                     O 0.g.g.*.=     b a.g.g.U           g.g.    g.. g.  g.g.  g.u       ",
"                g.g.f         Q g.g.g.g.g.g.g.g.g.g.g.`       # #.f.g.g.g.g.g.g.i.S             g.      g.  g.  g.g.. g.t       ",
"                | | w       x >.>.>.>.>.>.>.>.>.>.>.>.!           N o.0.s.y.*.Q o             g.y       g.    g.  < g.  #       ",
"                                                                                            . g.                                ",
"                                                                                            X ;                                 ",
"                                                                                                                                ",
"                                                                                                                                ",
"                                                                                                                                ",
"                                                                                                                                ",
"                                                                                                                                ",
"                                                                                                                                ",
"                                                                                                                                "
};
